<?xml version="1.0" encoding="UTF-8"?>
<!DOCTYPE svg PUBLIC "-//W3C//DTD SVG 1.1//EN" "http://www.w3.org/Graphics/SVG/1.1/DTD/svg11.dtd">
<!-- Creator: CorelDRAW -->
<svg xmlns="http://www.w3.org/2000/svg" xml:space="preserve" width="6.82666in" height="6.82666in" style="shape-rendering:geometricPrecision; text-rendering:geometricPrecision; image-rendering:optimizeQuality; fill-rule:evenodd; clip-rule:evenodd"
viewBox="0 0 6.82666 6.82666"
 xmlns:xlink="http://www.w3.org/1999/xlink">
 <defs>
  <style type="text/css">
   <![CDATA[
    .fil0 {fill:#795548}
    .fil1 {fill:#FFFFFE}
    .fil2 {fill:#FFFFFE;fill-rule:nonzero}
   ]]>
  </style>
 </defs>
 <g id="Layer_x0020_1">
  <metadata id="CorelCorpID_0Corel-Layer"/>
  <rect class="fil0" width="6.82666" height="6.82666" rx="0.853335" ry="0.853335"/>
  <g id="_461095992">
   <path id="_461095680" class="fil1" d="M0.971843 1.52007l4.88297 0c0.065189,0 0.118516,0.0555433 0.118516,0.123331l0 2.77916c0,0.0677913 -0.0533661,0.123331 -0.118516,0.123331l-4.88297 0c-0.0651457,0 -0.118512,-0.0554961 -0.118512,-0.123331l0 -2.77916c0,-0.0678346 0.0533268,-0.123331 0.118512,-0.123331zm1.10367 1.77663l0.610748 0.163646c0.0543937,-0.0793465 0.145693,-0.131406 0.249157,-0.131406 0.0359646,0 0.0704567,0.00630315 0.102441,0.0178425l0.426839 -0.739307c-0.0476496,-0.0533701 -0.076626,-0.123776 -0.076626,-0.200949 0,-0.166728 0.135157,-0.301886 0.301886,-0.301886 0.166724,0 0.301886,0.135157 0.301886,0.301886 0,0.166724 -0.135161,0.301886 -0.301886,0.301886 -0.00907087,0 -0.0180433,-0.00042126 -0.0269094,-0.00120472l-0.45652 0.790713c0.0197008,0.0401063 0.0307756,0.0852087 0.0307756,0.132906 0,0.166724 -0.135157,0.301886 -0.301886,0.301886 -0.150909,0 -0.275945,-0.110736 -0.298315,-0.255378l-0.618035 -0.165602c-0.0549606,0.0746654 -0.143445,0.123126 -0.243268,0.123126 -0.166724,0 -0.301886,-0.135161 -0.301886,-0.301886 0,-0.166728 0.135161,-0.301886 0.301886,-0.301886 0.154449,0 0.281795,0.115992 0.299713,0.265614zm2.22826 0.449449l1.22435 0 0 0.222614 -1.22435 0 0 -0.222614zm0.178484 -0.389567l1.04587 0 0 0.222614 -1.04587 0 0 -0.222614zm0.152461 -0.389571l0.893406 0 0 0.222618 -0.893406 0 0 -0.222618z"/>
   <polygon id="_461095968" class="fil2" points="3.52464,4.48682 3.52464,5.13404 3.8558,5.13404 3.8558,5.35665 2.97086,5.35665 2.97086,5.13404 3.30203,5.13404 3.30203,4.48682 "/>
  </g>
 </g>
</svg>
