<?xml version="1.0" encoding="UTF-8"?>
<!DOCTYPE svg PUBLIC "-//W3C//DTD SVG 1.1//EN" "http://www.w3.org/Graphics/SVG/1.1/DTD/svg11.dtd">
<!-- Creator: CorelDRAW -->
<svg xmlns="http://www.w3.org/2000/svg" xml:space="preserve" width="6.82666in" height="6.82666in" style="shape-rendering:geometricPrecision; text-rendering:geometricPrecision; image-rendering:optimizeQuality; fill-rule:evenodd; clip-rule:evenodd"
viewBox="0 0 6.82666 6.82666"
 xmlns:xlink="http://www.w3.org/1999/xlink">
 <defs>
  <style type="text/css">
   <![CDATA[
    .fil0 {fill:#9E9E9E}
    .fil1 {fill:#FFFFFE}
    .fil2 {fill:#FFFFFE;fill-rule:nonzero}
   ]]>
  </style>
 </defs>
 <g id="Layer_x0020_1">
  <metadata id="CorelCorpID_0Corel-Layer"/>
  <rect class="fil0" width="6.82666" height="6.82666" rx="0.853335" ry="0.853335"/>
  <g id="_461093808">
   <path id="_461093568" class="fil1" d="M1.30746 1.89259l4.21175 0c0.0693583,0 0.126098,0.0567441 0.126098,0.126098l0 2.47157c0,0.0693504 -0.0567441,0.126098 -0.126098,0.126098l-4.21175 0c-0.0693543,0 -0.126098,-0.0567441 -0.126098,-0.126098l0 -2.47157c0,-0.0693583 0.0567402,-0.126098 0.126098,-0.126098zm0.457728 0.337177c0.0343307,0 0.0610787,0.0122638 0.0803425,0.0367126 0.0229646,0.0288898 0.0344921,0.0768819 0.0344921,0.143965 0,0.0668386 -0.0116102,0.114913 -0.0347441,0.144217 -0.0190906,0.0241181 -0.0457598,0.0361417 -0.0800906,0.0361417 -0.0343268,0 -0.0620669,-0.0131732 -0.0831378,-0.0396772 -0.0210709,-0.0264213 -0.0316102,-0.0735906 -0.0316102,-0.141421 0,-0.0665945 0.0116102,-0.114504 0.0347402,-0.14372 0.0190984,-0.024122 0.0457677,-0.0362165 0.0800079,-0.0362165zm0 1.68838c0.0343307,0 0.0610787,0.0122638 0.0803425,0.0367126 0.0229646,0.0288898 0.0344921,0.0768819 0.0344921,0.143969 0,0.0668386 -0.0116102,0.114913 -0.0347441,0.144217 -0.0190906,0.0241142 -0.0457598,0.0361378 -0.0800906,0.0361378 -0.0343268,0 -0.0620669,-0.0131693 -0.0831378,-0.0396772 -0.0210709,-0.0264213 -0.0316102,-0.0735906 -0.0316102,-0.141417 0,-0.0665945 0.0116102,-0.114504 0.0347402,-0.143724 0.0190984,-0.0241181 0.0457677,-0.0362165 0.0800079,-0.0362165zm0 0.0562165c-0.00814961,0 -0.0154724,0.0026378 -0.0218937,0.00782283 -0.00642126,0.00526772 -0.0114409,0.0146575 -0.0149803,0.0281535 -0.00461417,0.0175354 -0.00699606,0.047 -0.00699606,0.0884882 0,0.0414843 0.00214173,0.0699646 0.00625197,0.0854449 0.00420472,0.0155551 0.0094685,0.0258465 0.0158071,0.0310354 0.00642126,0.00509449 0.0136614,0.00773228 0.021811,0.00773228 0.00823228,0 0.0155591,-0.0026378 0.0219803,-0.00790157 0.00641732,-0.00518504 0.011437,-0.0145709 0.0149843,-0.0280709 0.00460236,-0.0173701 0.00699606,-0.0467559 0.00699606,-0.0882402 0,-0.0414882 -0.00214173,-0.0699685 -0.00625984,-0.0855276 -0.00419291,-0.0154764 -0.00946063,-0.0258465 -0.0158031,-0.0311142 -0.00642126,-0.00518504 -0.0136654,-0.00782283 -0.0218976,-0.00782283zm0.333543 0.298811l-0.0677441 0 0 -0.255425c-0.0247795,0.0232126 -0.0539213,0.0403307 -0.0875079,0.0513622l0 -0.0614882c0.017622,-0.00576378 0.0368819,-0.0167126 0.057622,-0.0328465 0.020748,-0.0162165 0.0349843,-0.035063 0.0426417,-0.0566299l0.0549882 0 0 0.355028zm0.215827 -0.355028c0.0343268,0 0.0610787,0.0122638 0.0803425,0.0367126 0.0229606,0.0288898 0.0344882,0.0768819 0.0344882,0.143969 0,0.0668386 -0.0116102,0.114913 -0.0347402,0.144217 -0.0190906,0.0241142 -0.0457638,0.0361378 -0.0800906,0.0361378 -0.0343307,0 -0.0620669,-0.0131693 -0.0831417,-0.0396772 -0.0210709,-0.0264213 -0.0316102,-0.0735906 -0.0316102,-0.141417 0,-0.0665945 0.0116102,-0.114504 0.0347402,-0.143724 0.0191024,-0.0241181 0.0457677,-0.0362165 0.0800118,-0.0362165zm0 0.0562165c-0.00815354,0 -0.0154724,0.0026378 -0.0218976,0.00782283 -0.00642126,0.00526772 -0.011437,0.0146575 -0.0149803,0.0281535 -0.00461024,0.0175354 -0.00699606,0.047 -0.00699606,0.0884882 0,0.0414843 0.00214173,0.0699646 0.00625591,0.0854449 0.00420079,0.0155551 0.00946457,0.0258465 0.0158031,0.0310354 0.00642126,0.00509449 0.0136614,0.00773228 0.021815,0.00773228 0.00823228,0 0.0155591,-0.0026378 0.0219764,-0.00790157 0.00642126,-0.00518504 0.011437,-0.0145709 0.0149843,-0.0280709 0.00461024,-0.0173701 0.007,-0.0467559 0.007,-0.0882402 0,-0.0414882 -0.00214173,-0.0699685 -0.00626378,-0.0855276 -0.00419291,-0.0154764 -0.00946063,-0.0258465 -0.0158031,-0.0311142 -0.00642126,-0.00518504 -0.0136614,-0.00782283 -0.0218937,-0.00782283zm0.333539 0.298811l-0.0677441 0 0 -0.255425c-0.0247795,0.0232126 -0.0539213,0.0403307 -0.0875039,0.0513622l0 -0.0614882c0.0176181,-0.00576378 0.036878,-0.0167126 0.0576181,-0.0328465 0.020748,-0.0162165 0.0349843,-0.035063 0.0426417,-0.0566299l0.0549882 0 0 0.355028zm0.215827 -0.355028c0.0343268,0 0.0610827,0.0122638 0.0803425,0.0367126 0.0229606,0.0288898 0.0344882,0.0768819 0.0344882,0.143969 0,0.0668386 -0.0116063,0.114913 -0.0347362,0.144217 -0.0190945,0.0241142 -0.0457677,0.0361378 -0.0800945,0.0361378 -0.0343268,0 -0.062063,-0.0131693 -0.0831339,-0.0396772 -0.0210748,-0.0264213 -0.0316181,-0.0735906 -0.0316181,-0.141417 0,-0.0665945 0.0116102,-0.114504 0.0347402,-0.143724 0.0191024,-0.0241181 0.0457717,-0.0362165 0.0800118,-0.0362165zm0 0.0562165c-0.00814961,0 -0.0154724,0.0026378 -0.0218976,0.00782283 -0.00642126,0.00526772 -0.011437,0.0146575 -0.0149764,0.0281535 -0.00461024,0.0175354 -0.00699606,0.047 -0.00699606,0.0884882 0,0.0414843 0.0021378,0.0699646 0.00625197,0.0854449 0.00420079,0.0155551 0.00947244,0.0258465 0.0158031,0.0310354 0.0064252,0.00509449 0.0136654,0.00773228 0.021815,0.00773228 0.00823228,0 0.015563,-0.0026378 0.0219764,-0.00790157 0.0064252,-0.00518504 0.0114449,-0.0145709 0.0149882,-0.0280709 0.0046063,-0.0173701 0.00699606,-0.0467559 0.00699606,-0.0882402 0,-0.0414882 -0.00214173,-0.0699685 -0.00625984,-0.0855276 -0.00419685,-0.0154764 -0.00946457,-0.0258465 -0.0158071,-0.0311142 -0.00642126,-0.00518504 -0.0136614,-0.00782283 -0.0218937,-0.00782283zm0.333543 0.298811l-0.067748 0 0 -0.255425c-0.0247795,0.0232126 -0.0539173,0.0403307 -0.0875039,0.0513622l0 -0.0614882c0.0176181,-0.00576378 0.0368819,-0.0167126 0.0576181,-0.0328465 0.020748,-0.0162165 0.0349882,-0.035063 0.0426457,-0.0566299l0.0549882 0 0 0.355028zm0.215827 -0.355028c0.0343228,0 0.0610787,0.0122638 0.0803386,0.0367126 0.0229646,0.0288898 0.0344921,0.0768819 0.0344921,0.143969 0,0.0668386 -0.0116102,0.114913 -0.0347402,0.144217 -0.0190945,0.0241142 -0.0457677,0.0361378 -0.0800906,0.0361378 -0.0343307,0 -0.0620669,-0.0131693 -0.0831378,-0.0396772 -0.0210709,-0.0264213 -0.0316142,-0.0735906 -0.0316142,-0.141417 0,-0.0665945 0.0116063,-0.114504 0.0347402,-0.143724 0.0190984,-0.0241181 0.0457677,-0.0362165 0.0800118,-0.0362165zm0 0.0562165c-0.00815354,0 -0.0154764,0.0026378 -0.0218937,0.00782283 -0.0064252,0.00526772 -0.0114449,0.0146575 -0.0149843,0.0281535 -0.00461024,0.0175354 -0.00699606,0.047 -0.00699606,0.0884882 0,0.0414843 0.00214173,0.0699646 0.00625591,0.0854449 0.00419685,0.0155551 0.0094685,0.0258465 0.0157992,0.0310354 0.0064252,0.00509449 0.0136654,0.00773228 0.0218189,0.00773228 0.00823228,0 0.0155591,-0.0026378 0.0219724,-0.00790157 0.0064252,-0.00518504 0.0114449,-0.0145709 0.0149882,-0.0280709 0.0046063,-0.0173701 0.00699606,-0.0467559 0.00699606,-0.0882402 0,-0.0414882 -0.00214173,-0.0699685 -0.00625984,-0.0855276 -0.00419685,-0.0154764 -0.00946457,-0.0258465 -0.0158031,-0.0311142 -0.0064252,-0.00518504 -0.0136614,-0.00782283 -0.0218937,-0.00782283zm0.333539 0.298811l-0.067748 0 0 -0.255425c-0.0247756,0.0232126 -0.0539173,0.0403307 -0.0875039,0.0513622l0 -0.0614882c0.0176181,-0.00576378 0.0368819,-0.0167126 0.057622,-0.0328465 0.0207441,-0.0162165 0.0349843,-0.035063 0.0426417,-0.0566299l0.0549882 0 0 0.355028zm0.215827 -0.355028c0.0343307,0 0.0610787,0.0122638 0.0803386,0.0367126 0.0229646,0.0288898 0.0344921,0.0768819 0.0344921,0.143969 0,0.0668386 -0.0116102,0.114913 -0.0347402,0.144217 -0.0190945,0.0241142 -0.0457598,0.0361378 -0.0800906,0.0361378 -0.0343268,0 -0.0620669,-0.0131693 -0.0831378,-0.0396772 -0.0210709,-0.0264213 -0.0316102,-0.0735906 -0.0316102,-0.141417 0,-0.0665945 0.0116063,-0.114504 0.0347362,-0.143724 0.0190984,-0.0241181 0.0457717,-0.0362165 0.0800118,-0.0362165zm0 0.0562165c-0.00814961,0 -0.0154724,0.0026378 -0.0218937,0.00782283 -0.0064252,0.00526772 -0.0114449,0.0146575 -0.0149803,0.0281535 -0.00461417,0.0175354 -0.007,0.047 -0.007,0.0884882 0,0.0414843 0.00214173,0.0699646 0.00625591,0.0854449 0.00420079,0.0155551 0.0094685,0.0258465 0.0158031,0.0310354 0.00642126,0.00509449 0.0136654,0.00773228 0.021815,0.00773228 0.00823228,0 0.0155591,-0.0026378 0.0219764,-0.00790157 0.00642126,-0.00518504 0.0114409,-0.0145709 0.0149843,-0.0280709 0.0046063,-0.0173701 0.00699606,-0.0467559 0.00699606,-0.0882402 0,-0.0414882 -0.0021378,-0.0699685 -0.00625591,-0.0855276 -0.00419685,-0.0154764 -0.00946457,-0.0258465 -0.0158071,-0.0311142 -0.00642126,-0.00518504 -0.0136614,-0.00782283 -0.0218937,-0.00782283zm0.333539 0.298811l-0.0677441 0 0 -0.255425c-0.0247795,0.0232126 -0.0539213,0.0403307 -0.0875079,0.0513622l0 -0.0614882c0.017622,-0.00576378 0.0368819,-0.0167126 0.057626,-0.0328465 0.0207441,-0.0162165 0.0349803,-0.035063 0.0426417,-0.0566299l0.0549843 0 0 0.355028zm0.215827 -0.355028c0.0343307,0 0.0610787,0.0122638 0.0803386,0.0367126 0.0229646,0.0288898 0.0344921,0.0768819 0.0344921,0.143969 0,0.0668386 -0.0116063,0.114913 -0.0347402,0.144217 -0.0190906,0.0241142 -0.0457598,0.0361378 -0.0800906,0.0361378 -0.0343268,0 -0.0620669,-0.0131693 -0.0831378,-0.0396772 -0.0210709,-0.0264213 -0.0316102,-0.0735906 -0.0316102,-0.141417 0,-0.0665945 0.0116102,-0.114504 0.0347402,-0.143724 0.0190945,-0.0241181 0.0457677,-0.0362165 0.0800079,-0.0362165zm0 0.0562165c-0.00814961,0 -0.0154724,0.0026378 -0.0218937,0.00782283 -0.00642126,0.00526772 -0.0114409,0.0146575 -0.0149803,0.0281535 -0.00461417,0.0175354 -0.00699606,0.047 -0.00699606,0.0884882 0,0.0414843 0.00214173,0.0699646 0.00625197,0.0854449 0.00420079,0.0155551 0.0094685,0.0258465 0.0158071,0.0310354 0.00642126,0.00509449 0.0136614,0.00773228 0.021811,0.00773228 0.00823228,0 0.0155591,-0.0026378 0.0219764,-0.00790157 0.00642126,-0.00518504 0.0114409,-0.0145709 0.0149843,-0.0280709 0.0046063,-0.0173701 0.007,-0.0467559 0.007,-0.0882402 0,-0.0414882 -0.00214173,-0.0699685 -0.00625984,-0.0855276 -0.00419685,-0.0154764 -0.00946063,-0.0258465 -0.0158031,-0.0311142 -0.00642126,-0.00518504 -0.0136654,-0.00782283 -0.0218976,-0.00782283zm0.333543 0.298811l-0.0677441 0 0 -0.255425c-0.0247795,0.0232126 -0.0539252,0.0403307 -0.0875118,0.0513622l0 -0.0614882c0.017622,-0.00576378 0.0368819,-0.0167126 0.057626,-0.0328465 0.020748,-0.0162165 0.0349803,-0.035063 0.0426417,-0.0566299l0.0549882 0 0 0.355028zm0.215823 -0.355028c0.0343307,0 0.0610787,0.0122638 0.0803465,0.0367126 0.0229606,0.0288898 0.0344882,0.0768819 0.0344882,0.143969 0,0.0668386 -0.0116102,0.114913 -0.0347402,0.144217 -0.0190945,0.0241142 -0.0457638,0.0361378 -0.0800945,0.0361378 -0.0343268,0 -0.0620669,-0.0131693 -0.0831378,-0.0396772 -0.0210709,-0.0264213 -0.0316102,-0.0735906 -0.0316102,-0.141417 0,-0.0665945 0.0116102,-0.114504 0.0347402,-0.143724 0.0191024,-0.0241181 0.0457677,-0.0362165 0.0800079,-0.0362165zm0 0.0562165c-0.00814961,0 -0.0154685,0.0026378 -0.0218937,0.00782283 -0.00642126,0.00526772 -0.0114409,0.0146575 -0.0149803,0.0281535 -0.00461024,0.0175354 -0.00699606,0.047 -0.00699606,0.0884882 0,0.0414843 0.00214173,0.0699646 0.00625197,0.0854449 0.00420472,0.0155551 0.0094685,0.0258465 0.0158071,0.0310354 0.00642126,0.00509449 0.0136614,0.00773228 0.021811,0.00773228 0.00823228,0 0.0155591,-0.0026378 0.0219803,-0.00790157 0.00642126,-0.00518504 0.011437,-0.0145709 0.0149843,-0.0280709 0.00949606,-0.0358031 0.0101693,-0.138134 0.00073622,-0.173768 -0.00419291,-0.0154764 -0.00946063,-0.0258465 -0.0158031,-0.0311142 -0.00642126,-0.00518504 -0.0136654,-0.00782283 -0.0218976,-0.00782283zm-3.2962 -0.619008c0.0343307,0 0.0610787,0.0122638 0.0803425,0.0367126 0.0229646,0.0288898 0.0344921,0.0768819 0.0344921,0.143965 0,0.0668386 -0.0116102,0.114913 -0.0347441,0.144217 -0.0190906,0.0241181 -0.0457598,0.0361417 -0.0800906,0.0361417 -0.0343268,0 -0.0620669,-0.0131732 -0.0831378,-0.0396772 -0.0210709,-0.0264213 -0.0316102,-0.0735906 -0.0316102,-0.141421 0,-0.0665945 0.0116102,-0.114504 0.0347402,-0.14372 0.0190984,-0.024122 0.0457677,-0.0362165 0.0800079,-0.0362165zm0 0.0562165c-0.00814961,0 -0.0154724,0.00263386 -0.0218937,0.00782283 -0.00642126,0.00526772 -0.0114409,0.0146535 -0.0149803,0.0281496 -0.00461417,0.0175354 -0.00699606,0.0470039 -0.00699606,0.0884882 0,0.0414882 0.00214173,0.0699685 0.00625197,0.0854449 0.00420472,0.0155591 0.0094685,0.0258504 0.0158071,0.0310354 0.00642126,0.00509843 0.0136614,0.00773622 0.021811,0.00773622 0.00823228,0 0.0155591,-0.0026378 0.0219803,-0.00790157 0.00641732,-0.00518898 0.011437,-0.0145709 0.0149843,-0.0280709 0.00460236,-0.0173701 0.00699606,-0.0467559 0.00699606,-0.0882441 0,-0.0414843 -0.00214173,-0.0699646 -0.00625984,-0.0855276 -0.00419291,-0.0154724 -0.00946063,-0.0258425 -0.0158031,-0.0311102 -0.00642126,-0.00518898 -0.0136654,-0.00782283 -0.0218976,-0.00782283zm0.333543 0.298807l-0.0677441 0 0 -0.255421c-0.0247795,0.0232087 -0.0539213,0.0403307 -0.0875079,0.0513583l0 -0.0614882c0.017622,-0.00576378 0.0368819,-0.0167087 0.057622,-0.0328425 0.020748,-0.0162165 0.0349843,-0.0350669 0.0426417,-0.0566299l0.0549882 0 0 0.355024zm0.215827 -0.355024c0.0343268,0 0.0610787,0.0122638 0.0803425,0.0367126 0.0229606,0.0288898 0.0344882,0.0768819 0.0344882,0.143965 0,0.0668386 -0.0116102,0.114913 -0.0347402,0.144217 -0.0190906,0.0241181 -0.0457638,0.0361417 -0.0800906,0.0361417 -0.0343307,0 -0.0620669,-0.0131732 -0.0831417,-0.0396772 -0.0210709,-0.0264213 -0.0316102,-0.0735906 -0.0316102,-0.141421 0,-0.0665945 0.0116102,-0.114504 0.0347402,-0.14372 0.0191024,-0.024122 0.0457677,-0.0362165 0.0800118,-0.0362165zm0 0.0562165c-0.00815354,0 -0.0154724,0.00263386 -0.0218976,0.00782283 -0.00642126,0.00526772 -0.011437,0.0146535 -0.0149803,0.0281496 -0.00461024,0.0175354 -0.00699606,0.0470039 -0.00699606,0.0884882 0,0.0414882 0.00214173,0.0699685 0.00625591,0.0854449 0.00420079,0.0155591 0.00946457,0.0258504 0.0158031,0.0310354 0.00642126,0.00509843 0.0136614,0.00773622 0.021815,0.00773622 0.00823228,0 0.0155591,-0.0026378 0.0219764,-0.00790157 0.00642126,-0.00518898 0.011437,-0.0145709 0.0149843,-0.0280709 0.00461024,-0.0173701 0.007,-0.0467559 0.007,-0.0882441 0,-0.0414843 -0.00214173,-0.0699646 -0.00626378,-0.0855276 -0.00419291,-0.0154724 -0.00946063,-0.0258425 -0.0158031,-0.0311102 -0.00642126,-0.00518898 -0.0136614,-0.00782283 -0.0218937,-0.00782283zm0.333539 0.298807l-0.0677441 0 0 -0.255421c-0.0247795,0.0232087 -0.0539213,0.0403307 -0.0875039,0.0513583l0 -0.0614882c0.0176181,-0.00576378 0.036878,-0.0167087 0.0576181,-0.0328425 0.020748,-0.0162165 0.0349843,-0.0350669 0.0426417,-0.0566299l0.0549882 0 0 0.355024zm0.215827 -0.355024c0.0343268,0 0.0610827,0.0122638 0.0803425,0.0367126 0.0229606,0.0288898 0.0344882,0.0768819 0.0344882,0.143965 0,0.0668386 -0.0116063,0.114913 -0.0347362,0.144217 -0.0190945,0.0241181 -0.0457677,0.0361417 -0.0800945,0.0361417 -0.0343268,0 -0.062063,-0.0131732 -0.0831339,-0.0396772 -0.0210748,-0.0264213 -0.0316181,-0.0735906 -0.0316181,-0.141421 0,-0.0665945 0.0116102,-0.114504 0.0347402,-0.14372 0.0191024,-0.024122 0.0457717,-0.0362165 0.0800118,-0.0362165zm0 0.0562165c-0.00814961,0 -0.0154724,0.00263386 -0.0218976,0.00782283 -0.00642126,0.00526772 -0.011437,0.0146535 -0.0149764,0.0281496 -0.00461024,0.0175354 -0.00699606,0.0470039 -0.00699606,0.0884882 0,0.0414882 0.0021378,0.0699685 0.00625197,0.0854449 0.00420079,0.0155591 0.00947244,0.0258504 0.0158031,0.0310354 0.0064252,0.00509843 0.0136654,0.00773622 0.021815,0.00773622 0.00823228,0 0.015563,-0.0026378 0.0219764,-0.00790157 0.0064252,-0.00518898 0.0114449,-0.0145709 0.0149882,-0.0280709 0.0046063,-0.0173701 0.00699606,-0.0467559 0.00699606,-0.0882441 0,-0.0414843 -0.00214173,-0.0699646 -0.00625984,-0.0855276 -0.00419685,-0.0154724 -0.00946457,-0.0258425 -0.0158071,-0.0311102 -0.00642126,-0.00518898 -0.0136614,-0.00782283 -0.0218937,-0.00782283zm0.333543 0.298807l-0.067748 0 0 -0.255421c-0.0247795,0.0232087 -0.0539173,0.0403307 -0.0875039,0.0513583l0 -0.0614882c0.0176181,-0.00576378 0.0368819,-0.0167087 0.0576181,-0.0328425 0.020748,-0.0162165 0.0349882,-0.0350669 0.0426457,-0.0566299l0.0549882 0 0 0.355024zm0.215827 -0.355024c0.0343228,0 0.0610787,0.0122638 0.0803386,0.0367126 0.0229646,0.0288898 0.0344921,0.0768819 0.0344921,0.143965 0,0.0668386 -0.0116102,0.114913 -0.0347402,0.144217 -0.0190945,0.0241181 -0.0457677,0.0361417 -0.0800906,0.0361417 -0.0343307,0 -0.0620669,-0.0131732 -0.0831378,-0.0396772 -0.0210709,-0.0264213 -0.0316142,-0.0735906 -0.0316142,-0.141421 0,-0.0665945 0.0116063,-0.114504 0.0347402,-0.14372 0.0190984,-0.024122 0.0457677,-0.0362165 0.0800118,-0.0362165zm0 0.0562165c-0.00815354,0 -0.0154764,0.00263386 -0.0218937,0.00782283 -0.0064252,0.00526772 -0.0114449,0.0146535 -0.0149843,0.0281496 -0.00461024,0.0175354 -0.00699606,0.0470039 -0.00699606,0.0884882 0,0.0414882 0.00214173,0.0699685 0.00625591,0.0854449 0.00419685,0.0155591 0.0094685,0.0258504 0.0157992,0.0310354 0.0064252,0.00509843 0.0136654,0.00773622 0.0218189,0.00773622 0.00823228,0 0.0155591,-0.0026378 0.0219724,-0.00790157 0.0064252,-0.00518898 0.0114449,-0.0145709 0.0149882,-0.0280709 0.0046063,-0.0173701 0.00699606,-0.0467559 0.00699606,-0.0882441 0,-0.0414843 -0.00214173,-0.0699646 -0.00625984,-0.0855276 -0.00419685,-0.0154724 -0.00946457,-0.0258425 -0.0158031,-0.0311102 -0.0064252,-0.00518898 -0.0136614,-0.00782283 -0.0218937,-0.00782283zm0.333539 0.298807l-0.067748 0 0 -0.255421c-0.0247756,0.0232087 -0.0539173,0.0403307 -0.0875039,0.0513583l0 -0.0614882c0.0176181,-0.00576378 0.0368819,-0.0167087 0.057622,-0.0328425 0.0207441,-0.0162165 0.0349843,-0.0350669 0.0426417,-0.0566299l0.0549882 0 0 0.355024zm0.215827 -0.355024c0.0343307,0 0.0610787,0.0122638 0.0803386,0.0367126 0.0229646,0.0288898 0.0344921,0.0768819 0.0344921,0.143965 0,0.0668386 -0.0116102,0.114913 -0.0347402,0.144217 -0.0190945,0.0241181 -0.0457598,0.0361417 -0.0800906,0.0361417 -0.0343268,0 -0.0620669,-0.0131732 -0.0831378,-0.0396772 -0.0210709,-0.0264213 -0.0316102,-0.0735906 -0.0316102,-0.141421 0,-0.0665945 0.0116063,-0.114504 0.0347362,-0.14372 0.0190984,-0.024122 0.0457717,-0.0362165 0.0800118,-0.0362165zm0 0.0562165c-0.00814961,0 -0.0154724,0.00263386 -0.0218937,0.00782283 -0.0064252,0.00526772 -0.0114449,0.0146535 -0.0149803,0.0281496 -0.00461417,0.0175354 -0.007,0.0470039 -0.007,0.0884882 0,0.0414882 0.00214173,0.0699685 0.00625591,0.0854449 0.00420079,0.0155591 0.0094685,0.0258504 0.0158031,0.0310354 0.00642126,0.00509843 0.0136654,0.00773622 0.021815,0.00773622 0.00823228,0 0.0155591,-0.0026378 0.0219764,-0.00790157 0.00642126,-0.00518898 0.0114409,-0.0145709 0.0149843,-0.0280709 0.0046063,-0.0173701 0.00699606,-0.0467559 0.00699606,-0.0882441 0,-0.0414843 -0.0021378,-0.0699646 -0.00625591,-0.0855276 -0.00419685,-0.0154724 -0.00946457,-0.0258425 -0.0158071,-0.0311102 -0.00642126,-0.00518898 -0.0136614,-0.00782283 -0.0218937,-0.00782283zm0.333539 0.298807l-0.0677441 0 0 -0.255421c-0.0247795,0.0232087 -0.0539213,0.0403307 -0.0875079,0.0513583l0 -0.0614882c0.017622,-0.00576378 0.0368819,-0.0167087 0.057626,-0.0328425 0.0207441,-0.0162165 0.0349803,-0.0350669 0.0426417,-0.0566299l0.0549843 0 0 0.355024zm0.215827 -0.355024c0.0343307,0 0.0610787,0.0122638 0.0803386,0.0367126 0.0229646,0.0288898 0.0344921,0.0768819 0.0344921,0.143965 0,0.0668386 -0.0116063,0.114913 -0.0347402,0.144217 -0.0190906,0.0241181 -0.0457598,0.0361417 -0.0800906,0.0361417 -0.0343268,0 -0.0620669,-0.0131732 -0.0831378,-0.0396772 -0.0210709,-0.0264213 -0.0316102,-0.0735906 -0.0316102,-0.141421 0,-0.0665945 0.0116102,-0.114504 0.0347402,-0.14372 0.0190945,-0.024122 0.0457677,-0.0362165 0.0800079,-0.0362165zm0 0.0562165c-0.00814961,0 -0.0154724,0.00263386 -0.0218937,0.00782283 -0.00642126,0.00526772 -0.0114409,0.0146535 -0.0149803,0.0281496 -0.00461417,0.0175354 -0.00699606,0.0470039 -0.00699606,0.0884882 0,0.0414882 0.00214173,0.0699685 0.00625197,0.0854449 0.00420079,0.0155591 0.0094685,0.0258504 0.0158071,0.0310354 0.00642126,0.00509843 0.0136614,0.00773622 0.021811,0.00773622 0.00823228,0 0.0155591,-0.0026378 0.0219764,-0.00790157 0.00642126,-0.00518898 0.0114409,-0.0145709 0.0149843,-0.0280709 0.0046063,-0.0173701 0.007,-0.0467559 0.007,-0.0882441 0,-0.0414843 -0.00214173,-0.0699646 -0.00625984,-0.0855276 -0.00419685,-0.0154724 -0.00946063,-0.0258425 -0.0158031,-0.0311102 -0.00642126,-0.00518898 -0.0136654,-0.00782283 -0.0218976,-0.00782283zm0.333543 0.298807l-0.0677441 0 0 -0.255421c-0.0247795,0.0232087 -0.0539252,0.0403307 -0.0875118,0.0513583l0 -0.0614882c0.017622,-0.00576378 0.0368819,-0.0167087 0.057626,-0.0328425 0.020748,-0.0162165 0.0349803,-0.0350669 0.0426417,-0.0566299l0.0549882 0 0 0.355024zm0.215823 -0.355024c0.0343307,0 0.0610787,0.0122638 0.0803465,0.0367126 0.0229606,0.0288898 0.0344882,0.0768819 0.0344882,0.143965 0,0.0668386 -0.0116102,0.114913 -0.0347402,0.144217 -0.0190945,0.0241181 -0.0457638,0.0361417 -0.0800945,0.0361417 -0.0343268,0 -0.0620669,-0.0131732 -0.0831378,-0.0396772 -0.0210709,-0.0264213 -0.0316102,-0.0735906 -0.0316102,-0.141421 0,-0.0665945 0.0116102,-0.114504 0.0347402,-0.14372 0.0191024,-0.024122 0.0457677,-0.0362165 0.0800079,-0.0362165zm0 0.0562165c-0.00814961,0 -0.0154685,0.00263386 -0.0218937,0.00782283 -0.00642126,0.00526772 -0.0114409,0.0146535 -0.0149803,0.0281496 -0.00461024,0.0175354 -0.00699606,0.0470039 -0.00699606,0.0884882 0,0.0414882 0.00214173,0.0699685 0.00625197,0.0854449 0.00420472,0.0155591 0.0094685,0.0258504 0.0158071,0.0310354 0.00642126,0.00509843 0.0136614,0.00773622 0.021811,0.00773622 0.00823228,0 0.0155591,-0.0026378 0.0219803,-0.00790157 0.00642126,-0.00518898 0.011437,-0.0145709 0.0149843,-0.0280709 0.00949606,-0.0358071 0.0101693,-0.138138 0.00073622,-0.173772 -0.00419291,-0.0154724 -0.00946063,-0.0258425 -0.0158031,-0.0311102 -0.00642126,-0.00518898 -0.0136654,-0.00782283 -0.0218976,-0.00782283zm-3.2962 -0.619012c0.0343307,0 0.0610787,0.0122638 0.0803425,0.0367126 0.0229646,0.0288898 0.0344921,0.0768819 0.0344921,0.143969 0,0.0668386 -0.0116102,0.114913 -0.0347441,0.144217 -0.0190906,0.0241142 -0.0457598,0.0361378 -0.0800906,0.0361378 -0.0343268,0 -0.0620669,-0.0131693 -0.0831378,-0.0396772 -0.0210709,-0.0264213 -0.0316102,-0.0735906 -0.0316102,-0.141417 0,-0.0665945 0.0116102,-0.114504 0.0347402,-0.143724 0.0190984,-0.0241181 0.0457677,-0.0362165 0.0800079,-0.0362165zm0 0.0562165c-0.00814961,0 -0.0154724,0.0026378 -0.0218937,0.00782283 -0.00642126,0.00526772 -0.0114409,0.0146575 -0.0149803,0.0281535 -0.00461417,0.0175315 -0.00699606,0.047 -0.00699606,0.0884882 0,0.0414843 0.00214173,0.0699646 0.00625197,0.0854449 0.00420472,0.0155551 0.0094685,0.0258465 0.0158071,0.0310354 0.00642126,0.00509449 0.0136614,0.00773228 0.021811,0.00773228 0.00823228,0 0.0155591,-0.0026378 0.0219803,-0.00790157 0.00641732,-0.00518504 0.011437,-0.0145709 0.0149843,-0.0280709 0.00460236,-0.0173701 0.00699606,-0.0467559 0.00699606,-0.0882402 0,-0.0414882 -0.00214173,-0.0699685 -0.00625984,-0.0855276 -0.00419291,-0.0154764 -0.00946063,-0.0258465 -0.0158031,-0.0311142 -0.00642126,-0.00518504 -0.0136654,-0.00782283 -0.0218976,-0.00782283zm0.333543 0.298811l-0.0677441 0 0 -0.255425c-0.0247795,0.0232126 -0.0539213,0.0403307 -0.0875079,0.0513622l0 -0.0614882c0.017622,-0.00576378 0.0368819,-0.0167126 0.057622,-0.0328465 0.020748,-0.0162165 0.0349843,-0.035063 0.0426417,-0.0566299l0.0549882 0 0 0.355028zm0.215827 -0.355028c0.0343268,0 0.0610787,0.0122638 0.0803425,0.0367126 0.0229606,0.0288898 0.0344882,0.0768819 0.0344882,0.143969 0,0.0668386 -0.0116102,0.114913 -0.0347402,0.144217 -0.0190906,0.0241142 -0.0457638,0.0361378 -0.0800906,0.0361378 -0.0343307,0 -0.0620669,-0.0131693 -0.0831417,-0.0396772 -0.0210709,-0.0264213 -0.0316102,-0.0735906 -0.0316102,-0.141417 0,-0.0665945 0.0116102,-0.114504 0.0347402,-0.143724 0.0191024,-0.0241181 0.0457677,-0.0362165 0.0800118,-0.0362165zm0 0.0562165c-0.00815354,0 -0.0154724,0.0026378 -0.0218976,0.00782283 -0.00642126,0.00526772 -0.011437,0.0146575 -0.0149803,0.0281535 -0.00461024,0.0175315 -0.00699606,0.047 -0.00699606,0.0884882 0,0.0414843 0.00214173,0.0699646 0.00625591,0.0854449 0.00420079,0.0155551 0.00946457,0.0258465 0.0158031,0.0310354 0.00642126,0.00509449 0.0136614,0.00773228 0.021815,0.00773228 0.00823228,0 0.0155591,-0.0026378 0.0219764,-0.00790157 0.00642126,-0.00518504 0.011437,-0.0145709 0.0149843,-0.0280709 0.00461024,-0.0173701 0.007,-0.0467559 0.007,-0.0882402 0,-0.0414882 -0.00214173,-0.0699685 -0.00626378,-0.0855276 -0.00419291,-0.0154764 -0.00946063,-0.0258465 -0.0158031,-0.0311142 -0.00642126,-0.00518504 -0.0136614,-0.00782283 -0.0218937,-0.00782283zm0.333539 0.298811l-0.0677441 0 0 -0.255425c-0.0247795,0.0232126 -0.0539213,0.0403307 -0.0875039,0.0513622l0 -0.0614882c0.0176181,-0.00576378 0.036878,-0.0167126 0.0576181,-0.0328465 0.020748,-0.0162165 0.0349843,-0.035063 0.0426417,-0.0566299l0.0549882 0 0 0.355028zm0.215827 -0.355028c0.0343268,0 0.0610827,0.0122638 0.0803425,0.0367126 0.0229606,0.0288898 0.0344882,0.0768819 0.0344882,0.143969 0,0.0668386 -0.0116063,0.114913 -0.0347362,0.144217 -0.0190945,0.0241142 -0.0457677,0.0361378 -0.0800945,0.0361378 -0.0343268,0 -0.062063,-0.0131693 -0.0831339,-0.0396772 -0.0210748,-0.0264213 -0.0316181,-0.0735906 -0.0316181,-0.141417 0,-0.0665945 0.0116102,-0.114504 0.0347402,-0.143724 0.0191024,-0.0241181 0.0457717,-0.0362165 0.0800118,-0.0362165zm0 0.0562165c-0.00814961,0 -0.0154724,0.0026378 -0.0218976,0.00782283 -0.00642126,0.00526772 -0.011437,0.0146575 -0.0149764,0.0281535 -0.00461024,0.0175315 -0.00699606,0.047 -0.00699606,0.0884882 0,0.0414843 0.0021378,0.0699646 0.00625197,0.0854449 0.00420079,0.0155551 0.00947244,0.0258465 0.0158031,0.0310354 0.0064252,0.00509449 0.0136654,0.00773228 0.021815,0.00773228 0.00823228,0 0.015563,-0.0026378 0.0219764,-0.00790157 0.0064252,-0.00518504 0.0114449,-0.0145709 0.0149882,-0.0280709 0.0046063,-0.0173701 0.00699606,-0.0467559 0.00699606,-0.0882402 0,-0.0414882 -0.00214173,-0.0699685 -0.00625984,-0.0855276 -0.00419685,-0.0154764 -0.00946457,-0.0258465 -0.0158071,-0.0311142 -0.00642126,-0.00518504 -0.0136614,-0.00782283 -0.0218937,-0.00782283zm0.333543 0.298811l-0.067748 0 0 -0.255425c-0.0247795,0.0232126 -0.0539173,0.0403307 -0.0875039,0.0513622l0 -0.0614882c0.0176181,-0.00576378 0.0368819,-0.0167126 0.0576181,-0.0328465 0.020748,-0.0162165 0.0349882,-0.035063 0.0426457,-0.0566299l0.0549882 0 0 0.355028zm0.215827 -0.355028c0.0343228,0 0.0610787,0.0122638 0.0803386,0.0367126 0.0229646,0.0288898 0.0344921,0.0768819 0.0344921,0.143969 0,0.0668386 -0.0116102,0.114913 -0.0347402,0.144217 -0.0190945,0.0241142 -0.0457677,0.0361378 -0.0800906,0.0361378 -0.0343307,0 -0.0620669,-0.0131693 -0.0831378,-0.0396772 -0.0210709,-0.0264213 -0.0316142,-0.0735906 -0.0316142,-0.141417 0,-0.0665945 0.0116063,-0.114504 0.0347402,-0.143724 0.0190984,-0.0241181 0.0457677,-0.0362165 0.0800118,-0.0362165zm0 0.0562165c-0.00815354,0 -0.0154764,0.0026378 -0.0218937,0.00782283 -0.0064252,0.00526772 -0.0114449,0.0146575 -0.0149843,0.0281535 -0.00461024,0.0175315 -0.00699606,0.047 -0.00699606,0.0884882 0,0.0414843 0.00214173,0.0699646 0.00625591,0.0854449 0.00419685,0.0155551 0.0094685,0.0258465 0.0157992,0.0310354 0.0064252,0.00509449 0.0136654,0.00773228 0.0218189,0.00773228 0.00823228,0 0.0155591,-0.0026378 0.0219724,-0.00790157 0.0064252,-0.00518504 0.0114449,-0.0145709 0.0149882,-0.0280709 0.0046063,-0.0173701 0.00699606,-0.0467559 0.00699606,-0.0882402 0,-0.0414882 -0.00214173,-0.0699685 -0.00625984,-0.0855276 -0.00419685,-0.0154764 -0.00946457,-0.0258465 -0.0158031,-0.0311142 -0.0064252,-0.00518504 -0.0136614,-0.00782283 -0.0218937,-0.00782283zm0.333539 0.298811l-0.067748 0 0 -0.255425c-0.0247756,0.0232126 -0.0539173,0.0403307 -0.0875039,0.0513622l0 -0.0614882c0.0176181,-0.00576378 0.0368819,-0.0167126 0.057622,-0.0328465 0.0207441,-0.0162165 0.0349843,-0.035063 0.0426417,-0.0566299l0.0549882 0 0 0.355028zm0.215827 -0.355028c0.0343307,0 0.0610787,0.0122638 0.0803386,0.0367126 0.0229646,0.0288898 0.0344921,0.0768819 0.0344921,0.143969 0,0.0668386 -0.0116102,0.114913 -0.0347402,0.144217 -0.0190945,0.0241142 -0.0457598,0.0361378 -0.0800906,0.0361378 -0.0343268,0 -0.0620669,-0.0131693 -0.0831378,-0.0396772 -0.0210709,-0.0264213 -0.0316102,-0.0735906 -0.0316102,-0.141417 0,-0.0665945 0.0116063,-0.114504 0.0347362,-0.143724 0.0190984,-0.0241181 0.0457717,-0.0362165 0.0800118,-0.0362165zm0 0.0562165c-0.00814961,0 -0.0154724,0.0026378 -0.0218937,0.00782283 -0.0064252,0.00526772 -0.0114449,0.0146575 -0.0149803,0.0281535 -0.00461417,0.0175315 -0.007,0.047 -0.007,0.0884882 0,0.0414843 0.00214173,0.0699646 0.00625591,0.0854449 0.00420079,0.0155551 0.0094685,0.0258465 0.0158031,0.0310354 0.00642126,0.00509449 0.0136654,0.00773228 0.021815,0.00773228 0.00823228,0 0.0155591,-0.0026378 0.0219764,-0.00790157 0.00642126,-0.00518504 0.0114409,-0.0145709 0.0149843,-0.0280709 0.0046063,-0.0173701 0.00699606,-0.0467559 0.00699606,-0.0882402 0,-0.0414882 -0.0021378,-0.0699685 -0.00625591,-0.0855276 -0.00419685,-0.0154764 -0.00946457,-0.0258465 -0.0158071,-0.0311142 -0.00642126,-0.00518504 -0.0136614,-0.00782283 -0.0218937,-0.00782283zm0.333539 0.298811l-0.0677441 0 0 -0.255425c-0.0247795,0.0232126 -0.0539213,0.0403307 -0.0875079,0.0513622l0 -0.0614882c0.017622,-0.00576378 0.0368819,-0.0167126 0.057626,-0.0328465 0.0207441,-0.0162165 0.0349803,-0.035063 0.0426417,-0.0566299l0.0549843 0 0 0.355028zm0.215827 -0.355028c0.0343307,0 0.0610787,0.0122638 0.0803386,0.0367126 0.0229646,0.0288898 0.0344921,0.0768819 0.0344921,0.143969 0,0.0668386 -0.0116063,0.114913 -0.0347402,0.144217 -0.0190906,0.0241142 -0.0457598,0.0361378 -0.0800906,0.0361378 -0.0343268,0 -0.0620669,-0.0131693 -0.0831378,-0.0396772 -0.0210709,-0.0264213 -0.0316102,-0.0735906 -0.0316102,-0.141417 0,-0.0665945 0.0116102,-0.114504 0.0347402,-0.143724 0.0190945,-0.0241181 0.0457677,-0.0362165 0.0800079,-0.0362165zm0 0.0562165c-0.00814961,0 -0.0154724,0.0026378 -0.0218937,0.00782283 -0.00642126,0.00526772 -0.0114409,0.0146575 -0.0149803,0.0281535 -0.00461417,0.0175315 -0.00699606,0.047 -0.00699606,0.0884882 0,0.0414843 0.00214173,0.0699646 0.00625197,0.0854449 0.00420079,0.0155551 0.0094685,0.0258465 0.0158071,0.0310354 0.00642126,0.00509449 0.0136614,0.00773228 0.021811,0.00773228 0.00823228,0 0.0155591,-0.0026378 0.0219764,-0.00790157 0.00642126,-0.00518504 0.0114409,-0.0145709 0.0149843,-0.0280709 0.0046063,-0.0173701 0.007,-0.0467559 0.007,-0.0882402 0,-0.0414882 -0.00214173,-0.0699685 -0.00625984,-0.0855276 -0.00419685,-0.0154764 -0.00946063,-0.0258465 -0.0158031,-0.0311142 -0.00642126,-0.00518504 -0.0136654,-0.00782283 -0.0218976,-0.00782283zm0.333543 0.298811l-0.0677441 0 0 -0.255425c-0.0247795,0.0232126 -0.0539252,0.0403307 -0.0875118,0.0513622l0 -0.0614882c0.017622,-0.00576378 0.0368819,-0.0167126 0.057626,-0.0328465 0.020748,-0.0162165 0.0349803,-0.035063 0.0426417,-0.0566299l0.0549882 0 0 0.355028zm0.215823 -0.355028c0.0343307,0 0.0610787,0.0122638 0.0803465,0.0367126 0.0229606,0.0288898 0.0344882,0.0768819 0.0344882,0.143969 0,0.0668386 -0.0116102,0.114913 -0.0347402,0.144217 -0.0190945,0.0241142 -0.0457638,0.0361378 -0.0800945,0.0361378 -0.0343268,0 -0.0620669,-0.0131693 -0.0831378,-0.0396772 -0.0210709,-0.0264213 -0.0316102,-0.0735906 -0.0316102,-0.141417 0,-0.0665945 0.0116102,-0.114504 0.0347402,-0.143724 0.0191024,-0.0241181 0.0457677,-0.0362165 0.0800079,-0.0362165zm0 0.0562165c-0.00814961,0 -0.0154685,0.0026378 -0.0218937,0.00782283 -0.00642126,0.00526772 -0.0114409,0.0146575 -0.0149803,0.0281535 -0.00461024,0.0175315 -0.00699606,0.047 -0.00699606,0.0884882 0,0.0414843 0.00214173,0.0699646 0.00625197,0.0854449 0.00420472,0.0155551 0.0094685,0.0258465 0.0158071,0.0310354 0.00642126,0.00509449 0.0136614,0.00773228 0.021811,0.00773228 0.00823228,0 0.0155591,-0.0026378 0.0219803,-0.00790157 0.00642126,-0.00518504 0.011437,-0.0145709 0.0149843,-0.0280709 0.00949606,-0.0358031 0.0101693,-0.138134 0.00073622,-0.173768 -0.00419291,-0.0154764 -0.00946063,-0.0258465 -0.0158031,-0.0311142 -0.00642126,-0.00518504 -0.0136654,-0.00782283 -0.0218976,-0.00782283zm-3.2962 -0.562791c-0.00814961,0 -0.0154724,0.00263386 -0.0218937,0.00782283 -0.00642126,0.00526772 -0.0114409,0.0146535 -0.0149803,0.0281496 -0.00461417,0.0175354 -0.00699606,0.0470039 -0.00699606,0.0884882 0,0.0414882 0.00214173,0.0699685 0.00625197,0.0854449 0.00420472,0.0155591 0.0094685,0.0258504 0.0158071,0.0310354 0.00642126,0.00509843 0.0136614,0.00773622 0.021811,0.00773622 0.00823228,0 0.0155591,-0.0026378 0.0219803,-0.00790157 0.00641732,-0.00518898 0.011437,-0.0145709 0.0149843,-0.0280709 0.00460236,-0.0173701 0.00699606,-0.0467559 0.00699606,-0.0882441 0,-0.0414843 -0.00214173,-0.0699646 -0.00625984,-0.0855276 -0.00419291,-0.0154724 -0.00946063,-0.0258425 -0.0158031,-0.0311102 -0.00642126,-0.00518898 -0.0136654,-0.00782283 -0.0218976,-0.00782283zm0.333543 0.298807l-0.0677441 0 0 -0.255425c-0.0247795,0.0232126 -0.0539213,0.0403346 -0.0875079,0.0513622l0 -0.0614882c0.017622,-0.00576378 0.0368819,-0.0167126 0.057622,-0.0328425 0.020748,-0.0162165 0.0349843,-0.0350669 0.0426417,-0.0566299l0.0549882 0 0 0.355024zm0.215827 -0.355024c0.0343268,0 0.0610787,0.0122638 0.0803425,0.0367126 0.0229606,0.0288898 0.0344882,0.0768819 0.0344882,0.143965 0,0.0668386 -0.0116102,0.114913 -0.0347402,0.144217 -0.0190906,0.0241181 -0.0457638,0.0361417 -0.0800906,0.0361417 -0.0343307,0 -0.0620669,-0.0131732 -0.0831417,-0.0396772 -0.0210709,-0.0264213 -0.0316102,-0.0735906 -0.0316102,-0.141421 0,-0.0665945 0.0116102,-0.114504 0.0347402,-0.14372 0.0191024,-0.024122 0.0457677,-0.0362165 0.0800118,-0.0362165zm0 0.0562165c-0.00815354,0 -0.0154724,0.00263386 -0.0218976,0.00782283 -0.00642126,0.00526772 -0.011437,0.0146535 -0.0149803,0.0281496 -0.00461024,0.0175354 -0.00699606,0.0470039 -0.00699606,0.0884882 0,0.0414882 0.00214173,0.0699685 0.00625591,0.0854449 0.00420079,0.0155591 0.00946457,0.0258504 0.0158031,0.0310354 0.00642126,0.00509843 0.0136614,0.00773622 0.021815,0.00773622 0.00823228,0 0.0155591,-0.0026378 0.0219764,-0.00790157 0.00642126,-0.00518898 0.011437,-0.0145709 0.0149843,-0.0280709 0.00461024,-0.0173701 0.007,-0.0467559 0.007,-0.0882441 0,-0.0414843 -0.00214173,-0.0699646 -0.00626378,-0.0855276 -0.00419291,-0.0154724 -0.00946063,-0.0258425 -0.0158031,-0.0311102 -0.00642126,-0.00518898 -0.0136614,-0.00782283 -0.0218937,-0.00782283zm0.333539 0.298807l-0.0677441 0 0 -0.255425c-0.0247795,0.0232126 -0.0539213,0.0403346 -0.0875039,0.0513622l0 -0.0614882c0.0176181,-0.00576378 0.036878,-0.0167126 0.0576181,-0.0328425 0.020748,-0.0162165 0.0349843,-0.0350669 0.0426417,-0.0566299l0.0549882 0 0 0.355024zm0.215827 -0.355024c0.0343268,0 0.0610827,0.0122638 0.0803425,0.0367126 0.0229606,0.0288898 0.0344882,0.0768819 0.0344882,0.143965 0,0.0668386 -0.0116063,0.114913 -0.0347362,0.144217 -0.0190945,0.0241181 -0.0457677,0.0361417 -0.0800945,0.0361417 -0.0343268,0 -0.062063,-0.0131732 -0.0831339,-0.0396772 -0.0210748,-0.0264213 -0.0316181,-0.0735906 -0.0316181,-0.141421 0,-0.0665945 0.0116102,-0.114504 0.0347402,-0.14372 0.0191024,-0.024122 0.0457717,-0.0362165 0.0800118,-0.0362165zm0 0.0562165c-0.00814961,0 -0.0154724,0.00263386 -0.0218976,0.00782283 -0.00642126,0.00526772 -0.011437,0.0146535 -0.0149764,0.0281496 -0.00461024,0.0175354 -0.00699606,0.0470039 -0.00699606,0.0884882 0,0.0414882 0.0021378,0.0699685 0.00625197,0.0854449 0.00420079,0.0155591 0.00947244,0.0258504 0.0158031,0.0310354 0.0064252,0.00509843 0.0136654,0.00773622 0.021815,0.00773622 0.00823228,0 0.015563,-0.0026378 0.0219764,-0.00790157 0.0064252,-0.00518898 0.0114449,-0.0145709 0.0149882,-0.0280709 0.0046063,-0.0173701 0.00699606,-0.0467559 0.00699606,-0.0882441 0,-0.0414843 -0.00214173,-0.0699646 -0.00625984,-0.0855276 -0.00419685,-0.0154724 -0.00946457,-0.0258425 -0.0158071,-0.0311102 -0.00642126,-0.00518898 -0.0136614,-0.00782283 -0.0218937,-0.00782283zm0.333543 0.298807l-0.067748 0 0 -0.255425c-0.0247795,0.0232126 -0.0539173,0.0403346 -0.0875039,0.0513622l0 -0.0614882c0.0176181,-0.00576378 0.0368819,-0.0167126 0.0576181,-0.0328425 0.020748,-0.0162165 0.0349882,-0.0350669 0.0426457,-0.0566299l0.0549882 0 0 0.355024zm0.215827 -0.355024c0.0343228,0 0.0610787,0.0122638 0.0803386,0.0367126 0.0229646,0.0288898 0.0344921,0.0768819 0.0344921,0.143965 0,0.0668386 -0.0116102,0.114913 -0.0347402,0.144217 -0.0190945,0.0241181 -0.0457677,0.0361417 -0.0800906,0.0361417 -0.0343307,0 -0.0620669,-0.0131732 -0.0831378,-0.0396772 -0.0210709,-0.0264213 -0.0316142,-0.0735906 -0.0316142,-0.141421 0,-0.0665945 0.0116063,-0.114504 0.0347402,-0.14372 0.0190984,-0.024122 0.0457677,-0.0362165 0.0800118,-0.0362165zm0 0.0562165c-0.00815354,0 -0.0154764,0.00263386 -0.0218937,0.00782283 -0.0064252,0.00526772 -0.0114449,0.0146535 -0.0149843,0.0281496 -0.00461024,0.0175354 -0.00699606,0.0470039 -0.00699606,0.0884882 0,0.0414882 0.00214173,0.0699685 0.00625591,0.0854449 0.00419685,0.0155591 0.0094685,0.0258504 0.0157992,0.0310354 0.0064252,0.00509843 0.0136654,0.00773622 0.0218189,0.00773622 0.00823228,0 0.0155591,-0.0026378 0.0219724,-0.00790157 0.0064252,-0.00518898 0.0114449,-0.0145709 0.0149882,-0.0280709 0.0046063,-0.0173701 0.00699606,-0.0467559 0.00699606,-0.0882441 0,-0.0414843 -0.00214173,-0.0699646 -0.00625984,-0.0855276 -0.00419685,-0.0154724 -0.00946457,-0.0258425 -0.0158031,-0.0311102 -0.0064252,-0.00518898 -0.0136614,-0.00782283 -0.0218937,-0.00782283zm0.333539 0.298807l-0.067748 0 0 -0.255425c-0.0247756,0.0232126 -0.0539173,0.0403346 -0.0875039,0.0513622l0 -0.0614882c0.0176181,-0.00576378 0.0368819,-0.0167126 0.057622,-0.0328425 0.0207441,-0.0162165 0.0349843,-0.0350669 0.0426417,-0.0566299l0.0549882 0 0 0.355024zm0.215827 -0.355024c0.0343307,0 0.0610787,0.0122638 0.0803386,0.0367126 0.0229646,0.0288898 0.0344921,0.0768819 0.0344921,0.143965 0,0.0668386 -0.0116102,0.114913 -0.0347402,0.144217 -0.0190945,0.0241181 -0.0457598,0.0361417 -0.0800906,0.0361417 -0.0343268,0 -0.0620669,-0.0131732 -0.0831378,-0.0396772 -0.0210709,-0.0264213 -0.0316102,-0.0735906 -0.0316102,-0.141421 0,-0.0665945 0.0116063,-0.114504 0.0347362,-0.14372 0.0190984,-0.024122 0.0457717,-0.0362165 0.0800118,-0.0362165zm0 0.0562165c-0.00814961,0 -0.0154724,0.00263386 -0.0218937,0.00782283 -0.0064252,0.00526772 -0.0114449,0.0146535 -0.0149803,0.0281496 -0.00461417,0.0175354 -0.007,0.0470039 -0.007,0.0884882 0,0.0414882 0.00214173,0.0699685 0.00625591,0.0854449 0.00420079,0.0155591 0.0094685,0.0258504 0.0158031,0.0310354 0.00642126,0.00509843 0.0136654,0.00773622 0.021815,0.00773622 0.00823228,0 0.0155591,-0.0026378 0.0219764,-0.00790157 0.00642126,-0.00518898 0.0114409,-0.0145709 0.0149843,-0.0280709 0.0046063,-0.0173701 0.00699606,-0.0467559 0.00699606,-0.0882441 0,-0.0414843 -0.0021378,-0.0699646 -0.00625591,-0.0855276 -0.00419685,-0.0154724 -0.00946457,-0.0258425 -0.0158071,-0.0311102 -0.00642126,-0.00518898 -0.0136614,-0.00782283 -0.0218937,-0.00782283zm0.333539 0.298807l-0.0677441 0 0 -0.255425c-0.0247795,0.0232126 -0.0539213,0.0403346 -0.0875079,0.0513622l0 -0.0614882c0.017622,-0.00576378 0.0368819,-0.0167126 0.057626,-0.0328425 0.0207441,-0.0162165 0.0349803,-0.0350669 0.0426417,-0.0566299l0.0549843 0 0 0.355024zm0.215827 -0.355024c0.0343307,0 0.0610787,0.0122638 0.0803386,0.0367126 0.0229646,0.0288898 0.0344921,0.0768819 0.0344921,0.143965 0,0.0668386 -0.0116063,0.114913 -0.0347402,0.144217 -0.0190906,0.0241181 -0.0457598,0.0361417 -0.0800906,0.0361417 -0.0343268,0 -0.0620669,-0.0131732 -0.0831378,-0.0396772 -0.0210709,-0.0264213 -0.0316102,-0.0735906 -0.0316102,-0.141421 0,-0.0665945 0.0116102,-0.114504 0.0347402,-0.14372 0.0190945,-0.024122 0.0457677,-0.0362165 0.0800079,-0.0362165zm0 0.0562165c-0.00814961,0 -0.0154724,0.00263386 -0.0218937,0.00782283 -0.00642126,0.00526772 -0.0114409,0.0146535 -0.0149803,0.0281496 -0.00461417,0.0175354 -0.00699606,0.0470039 -0.00699606,0.0884882 0,0.0414882 0.00214173,0.0699685 0.00625197,0.0854449 0.00420079,0.0155591 0.0094685,0.0258504 0.0158071,0.0310354 0.00642126,0.00509843 0.0136614,0.00773622 0.021811,0.00773622 0.00823228,0 0.0155591,-0.0026378 0.0219764,-0.00790157 0.00642126,-0.00518898 0.0114409,-0.0145709 0.0149843,-0.0280709 0.0046063,-0.0173701 0.007,-0.0467559 0.007,-0.0882441 0,-0.0414843 -0.00214173,-0.0699646 -0.00625984,-0.0855276 -0.00419685,-0.0154724 -0.00946063,-0.0258425 -0.0158031,-0.0311102 -0.00642126,-0.00518898 -0.0136654,-0.00782283 -0.0218976,-0.00782283zm0.333543 0.298807l-0.0677441 0 0 -0.255425c-0.0247795,0.0232126 -0.0539252,0.0403346 -0.0875118,0.0513622l0 -0.0614882c0.017622,-0.00576378 0.0368819,-0.0167126 0.057626,-0.0328425 0.020748,-0.0162165 0.0349803,-0.0350669 0.0426417,-0.0566299l0.0549882 0 0 0.355024zm0.215823 -0.355024c0.0343307,0 0.0610787,0.0122638 0.0803465,0.0367126 0.0229606,0.0288898 0.0344882,0.0768819 0.0344882,0.143965 0,0.0668386 -0.0116102,0.114913 -0.0347402,0.144217 -0.0190945,0.0241181 -0.0457638,0.0361417 -0.0800945,0.0361417 -0.0343268,0 -0.0620669,-0.0131732 -0.0831378,-0.0396772 -0.0210709,-0.0264213 -0.0316102,-0.0735906 -0.0316102,-0.141421 0,-0.0665945 0.0116102,-0.114504 0.0347402,-0.14372 0.0191024,-0.024122 0.0457677,-0.0362165 0.0800079,-0.0362165zm0 0.0562165c-0.00814961,0 -0.0154685,0.00263386 -0.0218937,0.00782283 -0.00642126,0.00526772 -0.0114409,0.0146535 -0.0149803,0.0281496 -0.00461024,0.0175354 -0.00699606,0.0470039 -0.00699606,0.0884882 0,0.0414882 0.00214173,0.0699685 0.00625197,0.0854449 0.00420472,0.0155591 0.0094685,0.0258504 0.0158071,0.0310354 0.00642126,0.00509843 0.0136614,0.00773622 0.021811,0.00773622 0.00823228,0 0.0155591,-0.0026378 0.0219803,-0.00790157 0.00642126,-0.00518898 0.011437,-0.0145709 0.0149843,-0.0280709 0.00949606,-0.0358071 0.0101693,-0.138138 0.00073622,-0.173772 -0.00419291,-0.0154724 -0.00946063,-0.0258425 -0.0158031,-0.0311102 -0.00642126,-0.00518898 -0.0136654,-0.00782283 -0.0218976,-0.00782283z"/>
   <path id="_461094000" class="fil2" d="M0.954213 4.7323c-0.0557126,0 -0.100882,0.0451654 -0.100882,0.100882 0,0.0557126 0.0451693,0.100882 0.100882,0.100882l4.91824 0c0.0557126,0 0.100882,-0.0451693 0.100882,-0.100882 0,-0.0557165 -0.0451693,-0.100882 -0.100882,-0.100882l-4.91824 0z"/>
  </g>
 </g>
</svg>
