<?xml version="1.0" encoding="UTF-8"?>
<!DOCTYPE svg PUBLIC "-//W3C//DTD SVG 1.1//EN" "http://www.w3.org/Graphics/SVG/1.1/DTD/svg11.dtd">
<!-- Creator: CorelDRAW -->
<svg xmlns="http://www.w3.org/2000/svg" xml:space="preserve" width="6.82666in" height="6.82666in" style="shape-rendering:geometricPrecision; text-rendering:geometricPrecision; image-rendering:optimizeQuality; fill-rule:evenodd; clip-rule:evenodd"
viewBox="0 0 6.82666 6.82666"
 xmlns:xlink="http://www.w3.org/1999/xlink">
 <defs>
  <style type="text/css">
   <![CDATA[
    .fil0 {fill:#FF5722}
    .fil1 {fill:#FFFFFE}
   ]]>
  </style>
 </defs>
 <g id="Layer_x0020_1">
  <metadata id="CorelCorpID_0Corel-Layer"/>
  <rect class="fil0" width="6.82666" height="6.82666" rx="0.853335" ry="0.853335"/>
  <g id="_305264608">
   <g>
    <path id="_457342256" class="fil1" d="M1.36073 2.92012c0.0577835,0 0.113303,0.0100472 0.165043,0.0285197 0.062752,-0.216972 0.256575,-0.375063 0.486,-0.375063 0.229421,0 0.423252,0.158091 0.485996,0.375063 0.051748,-0.0184685 0.107264,-0.0285197 0.165051,-0.0285197 0.280224,0 0.507394,0.235839 0.507394,0.526768 0,0.290929 -0.227169,0.526768 -0.507394,0.526768 -0.0756378,0 -1.22646,0 -1.30209,0 -0.280224,0 -0.507394,-0.235839 -0.507394,-0.526768 0,-0.290929 0.227169,-0.526768 0.507394,-0.526768zm0.285811 0.664815l0.400976 0 0 0.107815 -0.400976 0 0 -0.107815zm0 -0.365228l0.730465 0 0 0.107815 -0.730465 0 0 -0.107815zm0 0.182626l0.54785 0 0 0.107815 -0.54785 0 0 -0.107815z"/>
    <path id="_457341896" class="fil1" d="M4.16385 2.92012c0.0577835,0 0.113299,0.0100472 0.165043,0.0285197 0.062748,-0.216972 0.256575,-0.375063 0.486,-0.375063 0.229421,0 0.423248,0.158091 0.485996,0.375063 0.0517441,-0.0184685 0.107264,-0.0285197 0.165051,-0.0285197 0.28022,0 0.50739,0.235839 0.50739,0.526768 0,0.290929 -0.227169,0.526768 -0.50739,0.526768 -0.0756378,0 -1.22646,0 -1.30209,0 -0.280228,0 -0.507398,-0.235839 -0.507398,-0.526768 0,-0.290929 0.227169,-0.526768 0.507398,-0.526768zm0.285811 0.664815l0.400972 0 0 0.107815 -0.400972 0 0 -0.107815zm0 -0.365228l0.730465 0 0 0.107815 -0.730465 0 0 -0.107815zm0 0.182626l0.54785 0 0 0.107815 -0.54785 0 0 -0.107815z"/>
   </g>
   <g>
    <path id="_457342064" class="fil1" d="M2.76229 1.42139c0.0577835,0 0.113303,0.0100472 0.165043,0.0285197 0.062752,-0.216972 0.256575,-0.375063 0.486,-0.375063 0.229421,0 0.423248,0.158091 0.485996,0.375063 0.0517441,-0.0184685 0.107264,-0.0285197 0.165051,-0.0285197 0.280224,0 0.507394,0.235839 0.507394,0.526768 0,0.290929 -0.227169,0.526768 -0.507394,0.526768 -0.0756378,0 -1.22646,0 -1.30209,0 -0.280228,0 -0.507398,-0.235839 -0.507398,-0.526768 0,-0.290929 0.227169,-0.526768 0.507398,-0.526768zm0.285811 0.664815l0.400972 0 0 0.107815 -0.400972 0 0 -0.107815zm0 -0.365228l0.730465 0 0 0.107815 -0.730465 0 0 -0.107815zm0 0.182626l0.54785 0 0 0.107815 -0.54785 0 0 -0.107815z"/>
    <path id="_305264296" class="fil1" d="M2.76229 4.69828c0.0577835,0 0.113303,0.0100472 0.165043,0.0285197 0.062752,-0.216972 0.256575,-0.375063 0.486,-0.375063 0.229421,0 0.423248,0.158091 0.485996,0.375063 0.0517441,-0.0184685 0.107264,-0.0285197 0.165051,-0.0285197 0.280224,0 0.507394,0.235843 0.507394,0.526768 0,0.290929 -0.227169,0.526768 -0.507394,0.526768 -0.0756378,0 -1.22646,0 -1.30209,0 -0.280228,0 -0.507398,-0.235839 -0.507398,-0.526768 0,-0.290925 0.227169,-0.526768 0.507398,-0.526768zm0.285811 0.664815l0.400972 0 0 0.107815 -0.400972 0 0 -0.107815zm0 -0.365224l0.730465 0 0 0.107815 -0.730465 0 0 -0.107815zm0 0.182626l0.54785 0 0 0.107811 -0.54785 0 0 -0.107811z"/>
   </g>
  </g>
 </g>
</svg>
