<?xml version="1.0" encoding="UTF-8"?>
<!DOCTYPE svg PUBLIC "-//W3C//DTD SVG 1.1//EN" "http://www.w3.org/Graphics/SVG/1.1/DTD/svg11.dtd">
<!-- Creator: CorelDRAW -->
<svg xmlns="http://www.w3.org/2000/svg" xml:space="preserve" width="6.82666in" height="6.82666in" style="shape-rendering:geometricPrecision; text-rendering:geometricPrecision; image-rendering:optimizeQuality; fill-rule:evenodd; clip-rule:evenodd"
viewBox="0 0 6.82666 6.82666"
 xmlns:xlink="http://www.w3.org/1999/xlink">
 <defs>
  <style type="text/css">
   <![CDATA[
    .fil0 {fill:#EC407A}
    .fil1 {fill:#FFFFFE}
    .fil2 {fill:#FFFFFE;fill-rule:nonzero}
   ]]>
  </style>
 </defs>
 <g id="Layer_x0020_1">
  <metadata id="CorelCorpID_0Corel-Layer"/>
  <rect class="fil0" width="6.82666" height="6.82666" rx="0.853335" ry="0.853335"/>
  <path class="fil1" d="M2.01267 3.74985c0.124315,0 0.243756,0.0197008 0.355079,0.0559055 0.134996,-0.42528 0.551996,-0.735165 1.04558,-0.735165 0.493583,0 0.910579,0.309886 1.04558,0.735169 0.111327,-0.0362047 0.230764,-0.0559094 0.355087,-0.0559094 0.602874,0 1.09161,0.462276 1.09161,1.03252 0,0.570244 -0.488732,1.03252 -1.09161,1.03252 -1.07018,0 -1.73115,0 -2.80132,0 -0.602882,0 -1.09161,-0.462276 -1.09161,-1.03252 0,-0.570244 0.488728,-1.03252 1.09161,-1.03252z"/>
  <polygon class="fil2" points="1.99111,2.63716 1.99111,3.75295 1.88274,3.75295 1.88274,2.63716 "/>
  <polygon class="fil2" points="4.94392,2.63716 4.94392,3.75295 4.83556,3.75295 4.83556,2.63716 "/>
  <g id="_457598400">
   <polygon id="_457598184" class="fil2" points="4.95611,2.33285 4.95611,2.61111 5.09078,2.61111 5.09078,2.74386 4.68871,2.74386 4.68871,2.61111 4.82337,2.61111 4.82337,2.33285 "/>
   <path id="_457598328" class="fil1" d="M3.85631 1.01176l2.06686 0c0.0275906,0 0.0501654,0.0253898 0.0501654,0.0563819l0 1.27063c0,0.0309921 -0.0225945,0.0563819 -0.0501654,0.0563819l-2.06686 0c-0.0275709,0 -0.0501654,-0.0253701 -0.0501654,-0.0563819l0 -1.27063c0,-0.0310079 0.0225709,-0.0563819 0.0501654,-0.0563819z"/>
  </g>
  <g id="_457597632">
   <polygon id="_457597488" class="fil2" points="2.0033,2.33285 2.0033,2.61111 2.13796,2.61111 2.13796,2.74386 1.7359,2.74386 1.7359,2.61111 1.87056,2.61111 1.87056,2.33285 "/>
   <path id="_457597776" class="fil1" d="M0.9035 1.01176l2.06686 0c0.0275906,0 0.0501654,0.0253898 0.0501654,0.0563819l0 1.27063c0,0.0309921 -0.0225945,0.0563819 -0.0501654,0.0563819l-2.06686 0c-0.0275709,0 -0.0501654,-0.0253701 -0.0501654,-0.0563819l0 -1.27063c0,-0.0310079 0.0225709,-0.0563819 0.0501654,-0.0563819z"/>
  </g>
 </g>
</svg>
