<?xml version="1.0" encoding="UTF-8"?>
<!DOCTYPE svg PUBLIC "-//W3C//DTD SVG 1.1//EN" "http://www.w3.org/Graphics/SVG/1.1/DTD/svg11.dtd">
<!-- Creator: CorelDRAW -->
<svg xmlns="http://www.w3.org/2000/svg" xml:space="preserve" width="6.82666in" height="6.82666in" style="shape-rendering:geometricPrecision; text-rendering:geometricPrecision; image-rendering:optimizeQuality; fill-rule:evenodd; clip-rule:evenodd"
viewBox="0 0 6.82666 6.82666"
 xmlns:xlink="http://www.w3.org/1999/xlink">
 <defs>
  <style type="text/css">
   <![CDATA[
    .fil0 {fill:#EF5350}
    .fil2 {fill:#FFFFFE}
    .fil1 {fill:#FFFFFE;fill-rule:nonzero}
   ]]>
  </style>
 </defs>
 <g id="Layer_x0020_1">
  <metadata id="CorelCorpID_0Corel-Layer"/>
  <rect class="fil0" width="6.82666" height="6.82666" rx="0.853335" ry="0.853335"/>
  <g id="_305266264">
   <path id="_305266408" class="fil1" d="M4.00615 3.03669l0 0.975665 0.212087 0 0.109654 0 0 0.109654 0 0.222689c-0.0651339,0.057752 -0.118996,0.12878 -0.157417,0.209402 -0.0204803,-0.0035 -0.0411299,-0.00599213 -0.0618898,-0.00746457l0 -0.314972 -0.212083 0 -0.109654 0 0 -0.109654 0 -1.08532 0.219303 0zm-0.966335 0l0 1.08532 0 0.109654 -0.109654 0 -0.212083 0 0 0.314972c-0.0207598,0.00147244 -0.0414055,0.00396457 -0.0618858,0.00746457 -0.0384252,-0.080626 -0.0922874,-0.151654 -0.157421,-0.209406l0 -0.222685 0 -0.109654 0.109654 0 0.212087 0 0 -0.975665 0.219303 0z"/>
   <path id="_305266072" class="fil2" d="M2.30755 1.43014c0.0981457,0 0.192441,0.0155551 0.280327,0.0441339 0.106575,-0.335744 0.435783,-0.58039 0.825453,-0.58039 0.389669,0 0.718874,0.244646 0.825453,0.580394 0.0878898,-0.0285827 0.182185,-0.0441378 0.280331,-0.0441378 0.475953,0 0.861791,0.364953 0.861791,0.815142 0,0.450193 -0.385839,0.815146 -0.861791,0.815146 -0.844874,0 -1.36669,0 -2.21156,0 -0.475957,0 -0.861791,-0.364953 -0.861791,-0.815146 0,-0.450189 0.385835,-0.815142 0.861791,-0.815142z"/>
   <path id="_305265904" class="fil2" d="M4.06352 4.65469c0.0609882,0 0.119583,0.0104882 0.174197,0.0297598 0.0662244,-0.226429 0.270803,-0.391429 0.512945,-0.391429 0.242142,0 0.44672,0.165 0.512941,0.391437 0.054622,-0.0192795 0.113217,-0.0297677 0.174205,-0.0297677 0.295764,0 0.535524,0.24613 0.535524,0.549752 0,0.303622 -0.23976,0.549752 -0.535524,0.549752 -0.525016,0 -0.849276,0 -1.37429,0 -0.295768,0 -0.535531,-0.24613 -0.535531,-0.549752 0,-0.303622 0.239764,-0.549752 0.535531,-0.549752zm-2.67466 0c0.0609882,0 0.119583,0.0104882 0.174201,0.0297598 0.0662205,-0.226429 0.270799,-0.391429 0.512941,-0.391429 0.242142,0 0.44672,0.165 0.512945,0.391437 0.0546181,-0.0192795 0.113213,-0.0297677 0.174201,-0.0297677 0.295764,0 0.535528,0.24613 0.535528,0.549752 0,0.303622 -0.239764,0.549752 -0.535528,0.549752 -0.525016,0 -0.849276,0 -1.37429,0 -0.295768,0 -0.535528,-0.24613 -0.535528,-0.549752 0,-0.303622 0.23976,-0.549752 0.535528,-0.549752z"/>
  </g>
 </g>
</svg>
