<?xml version="1.0" encoding="UTF-8"?>
<!DOCTYPE svg PUBLIC "-//W3C//DTD SVG 1.1//EN" "http://www.w3.org/Graphics/SVG/1.1/DTD/svg11.dtd">
<!-- Creator: CorelDRAW -->
<svg xmlns="http://www.w3.org/2000/svg" xml:space="preserve" width="6.82666in" height="6.82666in" style="shape-rendering:geometricPrecision; text-rendering:geometricPrecision; image-rendering:optimizeQuality; fill-rule:evenodd; clip-rule:evenodd"
viewBox="0 0 6.82666 6.82666"
 xmlns:xlink="http://www.w3.org/1999/xlink">
 <defs>
  <style type="text/css">
   <![CDATA[
    .fil0 {fill:#00838F}
    .fil1 {fill:#FFFFFE}
    .fil2 {fill:#FFFFFE;fill-rule:nonzero}
   ]]>
  </style>
 </defs>
 <g id="Layer_x0020_1">
  <metadata id="CorelCorpID_0Corel-Layer"/>
  <rect class="fil0" width="6.82666" height="6.82666" rx="0.853335" ry="0.853335"/>
  <g id="_457599912">
   <path id="_457600752" class="fil1" d="M2.03456 1.54733c0.122374,0 0.239949,0.0193937 0.349531,0.0550315 0.13289,-0.418634 0.54337,-0.723681 1.02924,-0.723681 0.48587,0 0.896354,0.305047 1.02924,0.723685 0.109587,-0.0356417 0.227161,-0.0550354 0.349535,-0.0550354 0.593461,0 1.07456,0.455051 1.07456,1.01639 0,0.561339 -0.481094,1.01639 -1.07456,1.01639 -1.05345,0 -1.7041,0 -2.75756,0 -0.593465,0 -1.07456,-0.455051 -1.07456,-1.01639 0,-0.561335 0.481094,-1.01639 1.07456,-1.01639z"/>
   <g>
    <polygon id="_457600872" class="fil2" points="2.74692,5.25532 3.34382,5.87573 3.41333,5.94798 3.48284,5.87573 4.07974,5.25532 3.54003,5.25532 3.54003,3.75867 3.28663,3.75867 3.28663,5.25532 "/>
    <polygon id="_457599600" class="fil2" points="4.08561,4.92021 4.54885,5.40171 4.6028,5.45778 4.65675,5.40171 5.12,4.92021 4.70113,4.92021 4.70113,3.75867 4.50447,3.75867 4.50447,4.92021 "/>
    <polygon id="_457600320" class="fil2" points="1.70667,4.92021 2.16991,5.40171 2.22386,5.45778 2.27781,5.40171 2.74106,4.92021 2.32219,4.92021 2.32219,3.75867 2.12553,3.75867 2.12553,4.92021 "/>
   </g>
  </g>
 </g>
</svg>
