<?xml version="1.0" encoding="UTF-8"?>
<!DOCTYPE svg PUBLIC "-//W3C//DTD SVG 1.1//EN" "http://www.w3.org/Graphics/SVG/1.1/DTD/svg11.dtd">
<!-- Creator: CorelDRAW -->
<svg xmlns="http://www.w3.org/2000/svg" xml:space="preserve" width="6.82666in" height="6.82666in" style="shape-rendering:geometricPrecision; text-rendering:geometricPrecision; image-rendering:optimizeQuality; fill-rule:evenodd; clip-rule:evenodd"
viewBox="0 0 6.82666 6.82666"
 xmlns:xlink="http://www.w3.org/1999/xlink">
 <defs>
  <style type="text/css">
   <![CDATA[
    .fil0 {fill:#9E9E9E}
    .fil2 {fill:#FFFFFE}
    .fil1 {fill:#FFFFFE;fill-rule:nonzero}
   ]]>
  </style>
 </defs>
 <g id="Layer_x0020_1">
  <metadata id="CorelCorpID_0Corel-Layer"/>
  <rect class="fil0" width="6.82666" height="6.82666" rx="0.853335" ry="0.853335"/>
  <g id="_460872944">
   <polygon id="_460873352" class="fil1" points="3.49541,2.90018 3.49541,4.4851 3.28024,4.4851 3.28024,2.90018 "/>
   <polygon id="_460873952" class="fil1" points="2.03674,4.27359 4.7389,4.27359 4.7389,4.48876 2.03674,4.48876 "/>
   <path id="_460874024" class="fil2" d="M0.962307 3.87261l1.03165 0c0.059937,0 0.108972,0.061311 0.108972,0.136217l0 0.744685c0,0.0749055 -0.0490472,0.136217 -0.108972,0.136217l-1.03165 0c-0.0599252,0 -0.108972,-0.0612953 -0.108972,-0.136217l0 -0.744685c0,-0.0749213 0.0490354,-0.136217 0.108972,-0.136217z"/>
   <path id="_460873544" class="fil2" d="M4.83271 3.87261l1.03165 0c0.059937,0 0.108972,0.061311 0.108972,0.136217l0 0.744685c0,0.0749055 -0.0490472,0.136217 -0.108972,0.136217l-1.03165 0c-0.0599213,0 -0.108972,-0.0612953 -0.108972,-0.136217l0 -0.744685c0,-0.0749213 0.0490354,-0.136217 0.108972,-0.136217z"/>
   <path id="_460872800" class="fil2" d="M2.872 1.93693l1.03165 0c0.059937,0 0.108972,0.061311 0.108972,0.136217l0 0.744685c0,0.0749055 -0.0490472,0.136217 -0.108972,0.136217l-1.03165 0c-0.0599252,0 -0.108972,-0.0612953 -0.108972,-0.136217l0 -0.744685c0,-0.0749213 0.0490354,-0.136217 0.108972,-0.136217z"/>
  </g>
 </g>
</svg>
