<?xml version="1.0" encoding="UTF-8"?>
<!DOCTYPE svg PUBLIC "-//W3C//DTD SVG 1.1//EN" "http://www.w3.org/Graphics/SVG/1.1/DTD/svg11.dtd">
<!-- Creator: CorelDRAW -->
<svg xmlns="http://www.w3.org/2000/svg" xml:space="preserve" width="6.82666in" height="6.82666in" style="shape-rendering:geometricPrecision; text-rendering:geometricPrecision; image-rendering:optimizeQuality; fill-rule:evenodd; clip-rule:evenodd"
viewBox="0 0 6.82666 6.82666"
 xmlns:xlink="http://www.w3.org/1999/xlink">
 <defs>
  <style type="text/css">
   <![CDATA[
    .fil0 {fill:#424242}
    .fil1 {fill:#FFFFFE;fill-rule:nonzero}
   ]]>
  </style>
 </defs>
 <g id="Layer_x0020_1">
  <metadata id="CorelCorpID_0Corel-Layer"/>
  <rect class="fil0" width="6.82666" height="6.82666" rx="0.853335" ry="0.853335"/>
  <polygon class="fil1" points="3.73333,3.48113 4.80789,3.48113 4.80789,2.26666 5.02123,2.26666 5.02123,4.90894 4.80789,4.90894 4.80789,3.69447 3.73333,3.69447 "/>
  <path class="fil1" d="M4.48889 1.0953l1.39357 0c0.0589094,0 0.106669,0.0477598 0.106669,0.106669l0 1.06469c0,0.0589094 -0.0477598,0.106669 -0.106669,0.106669l-1.9358 0c-0.0589094,0 -0.106669,-0.0477598 -0.106669,-0.106669l0 -1.30667c0,-0.0589094 0.0477598,-0.106669 0.106669,-0.106669l0.435555 0c0.0589094,0 0.106669,0.0477598 0.106669,0.106669l0 0.135307z"/>
  <path class="fil1" d="M4.48889 4.80227l1.39357 0c0.0589094,0 0.106669,0.0477598 0.106669,0.106669l0 1.06469c0,0.0589094 -0.0477598,0.106669 -0.106669,0.106669l-1.9358 0c-0.0589094,0 -0.106669,-0.0477598 -0.106669,-0.106669l0 -1.30667c0,-0.0589094 0.0477598,-0.106669 0.106669,-0.106669l0.435555 0c0.0589094,0 0.106669,0.0477598 0.106669,0.106669l0 0.135307z"/>
  <path class="fil1" d="M1.75988 2.68472l1.94691 0c0.0822992,0 0.149024,0.0667244 0.149024,0.149024l0 1.48743c0,0.0822992 -0.0667244,0.149024 -0.149024,0.149024l-2.70443 0c-0.0822992,0 -0.149024,-0.0667244 -0.149024,-0.149024l0 -1.82549c0,-0.0822992 0.0667244,-0.149024 0.149024,-0.149024l0.608496 0c0.0822992,0 0.149024,0.0667244 0.149024,0.149024l0 0.189031z"/>
 </g>
</svg>
