<?xml version="1.0" encoding="UTF-8"?>
<!DOCTYPE svg PUBLIC "-//W3C//DTD SVG 1.1//EN" "http://www.w3.org/Graphics/SVG/1.1/DTD/svg11.dtd">
<!-- Creator: CorelDRAW -->
<svg xmlns="http://www.w3.org/2000/svg" xml:space="preserve" width="6.82666in" height="6.82666in" style="shape-rendering:geometricPrecision; text-rendering:geometricPrecision; image-rendering:optimizeQuality; fill-rule:evenodd; clip-rule:evenodd"
viewBox="0 0 6.82666 6.82666"
 xmlns:xlink="http://www.w3.org/1999/xlink">
 <defs>
  <style type="text/css">
   <![CDATA[
    .fil0 {fill:#EF5350}
    .fil1 {fill:#FFFFFE}
    .fil2 {fill:#FFFFFE;fill-rule:nonzero}
   ]]>
  </style>
 </defs>
 <g id="Layer_x0020_1">
  <metadata id="CorelCorpID_0Corel-Layer"/>
  <rect class="fil0" width="6.82666" height="6.82666" rx="0.853335" ry="0.853335"/>
  <path class="fil1" d="M1.06667 0.867882l3.5397 0 0 1.15433c-0.236122,-0.197 -0.539969,-0.315547 -0.871504,-0.315547 -0.187654,0 -0.366441,0.0379803 -0.529102,0.106665l-1.61358 0 0 0.232732 1.24335 0c-0.0217008,0.0191102 -0.0427992,0.0388858 -0.0632402,0.0593268 -0.24635,0.24635 -0.398724,0.586673 -0.398724,0.962567 0,0.0231417 0.000582677,0.0461457 0.00172441,0.0690079l-0.783114 0 0 0.232732 0.814976 0c0.0576614,0.254764 0.186752,0.482441 0.365138,0.660827 0.24635,0.24635 0.586677,0.398724 0.962567,0.398724 0.331535,0 0.635382,-0.118547 0.871504,-0.315547l0 1.52509 -3.5397 0 0 -4.7709zm0.525512 3.59272l2.48867 0 0 0.232732 -2.48867 0 0 -0.232732z"/>
  <path class="fil2" d="M4.5466 2.25621c-0.207732,-0.207728 -0.494724,-0.336217 -0.81174,-0.336217 -0.317012,0 -0.604008,0.128488 -0.81174,0.336217 -0.207728,0.207732 -0.336217,0.494724 -0.336217,0.81174 0,0.317012 0.128488,0.604008 0.336217,0.81174 0.207732,0.207728 0.494728,0.336217 0.81174,0.336217 0.317016,0 0.604008,-0.128488 0.81174,-0.336217 0.207728,-0.207732 0.336217,-0.494728 0.336217,-0.81174 0,-0.317016 -0.128488,-0.604008 -0.336217,-0.81174z"/>
  <polygon class="fil2" points="4.48701,3.74679 5.95717,5.21695 5.80634,5.36778 4.33618,3.89762 "/>
 </g>
</svg>
