<?xml version="1.0" encoding="UTF-8"?>
<!DOCTYPE svg PUBLIC "-//W3C//DTD SVG 1.1//EN" "http://www.w3.org/Graphics/SVG/1.1/DTD/svg11.dtd">
<!-- Creator: CorelDRAW -->
<svg xmlns="http://www.w3.org/2000/svg" xml:space="preserve" width="6.82666in" height="6.82666in" style="shape-rendering:geometricPrecision; text-rendering:geometricPrecision; image-rendering:optimizeQuality; fill-rule:evenodd; clip-rule:evenodd"
viewBox="0 0 6.82666 6.82666"
 xmlns:xlink="http://www.w3.org/1999/xlink">
 <defs>
  <style type="text/css">
   <![CDATA[
    .fil0 {fill:#AB47BC}
    .fil1 {fill:#FFFFFE}
   ]]>
  </style>
 </defs>
 <g id="Layer_x0020_1">
  <metadata id="CorelCorpID_0Corel-Layer"/>
  <rect class="fil0" width="6.82666" height="6.82666" rx="0.853335" ry="0.853335"/>
  <g id="_305269576">
   <path id="_305269000" class="fil1" d="M2.03455 1.58724c0.122378,0 0.239953,0.0212835 0.349535,0.0604016 0.13289,-0.459496 0.54337,-0.794311 1.02924,-0.794311 0.48587,0 0.89635,0.334815 1.02924,0.794315 0.109591,-0.0391181 0.227161,-0.0604055 0.349543,-0.0604055 0.593457,0 1.07455,0.499465 1.07455,1.11559 0,0.616126 -0.481094,1.11559 -1.07455,1.11559l-0.0981181 0c-0.187709,-0.312283 -0.484177,-0.547024 -0.832264,-0.6565 -0.39474,-0.124146 -0.668043,-0.0950945 -0.999059,0.0363071 -0.304457,0.120854 -0.561433,0.339713 -0.730024,0.620193l-0.0980984 0c-0.593461,0 -1.07456,-0.499465 -1.07456,-1.11559 0,-0.616122 0.481094,-1.11559 1.07456,-1.11559z"/>
   <path id="_305268904" class="fil1" d="M2.03019 4.48808c0.0115276,-0.16389 0.0514882,-0.319921 0.115067,-0.463173l0.541547 0c-0.0280669,0.156638 -0.0438189,0.310988 -0.048189,0.463173l-0.608425 0zm0.806217 -0.463173l0.50315 0 0 0.463173 -0.553831 0c0.00461417,-0.151949 0.0211654,-0.306291 0.0506811,-0.463173zm0.650689 0l0.48722 0c0.0385433,0.156941 0.0601457,0.311283 0.0661693,0.463173l-0.55339 0 0 -0.463173zm0.638469 0l0.555835 0c0.0635787,0.143252 0.103539,0.299283 0.115067,0.463173l-0.608772 0c-0.0056378,-0.152232 -0.0259528,-0.306587 -0.0621299,-0.463173zm-1.90391 -0.147539c0.155709,-0.261047 0.394732,-0.466622 0.680374,-0.580012 -0.0809764,0.196831 -0.142201,0.390098 -0.185264,0.580012l-0.49511 0zm0.865878 -0.638846c0.104488,-0.0251654 0.213575,-0.0385276 0.325795,-0.0385276 0.0752559,0 0.149098,0.00602756 0.221098,0.0175787 0.133602,0.225039 0.232146,0.444846 0.298858,0.659795l-0.446189 0 0 -0.674665 -0.147539 0 0 0.674665 -0.471736 0c0.0495591,-0.208374 0.122055,-0.421213 0.219713,-0.638846zm0.742205 0.0251378c0.3275,0.103008 0.602602,0.324248 0.775264,0.613709l-0.518063 0c-0.0587323,-0.200823 -0.143665,-0.405307 -0.257201,-0.613709zm0.969307 1.37196c-0.00633071,0.182035 -0.0477008,0.35515 -0.117646,0.512795l-0.56115 0c0.0383386,-0.15872 0.0613346,-0.319972 0.0674409,-0.483933 0.000358268,-0.00961024 0.000637795,-0.0192323 0.00088189,-0.0288622l0.610472 0zm-0.830346 0.512795l-0.481602 0 0 -0.512795 0.554382 0c-0.000208661,0.00789764 -0.000456693,0.0157913 -0.000751969,0.0236732 -0.00616929,0.165614 -0.0307795,0.328594 -0.0720276,0.489122zm-0.629142 0l-0.498846 0c-0.0315591,-0.160315 -0.0503976,-0.323098 -0.0551496,-0.488543 -0.000232283,-0.00807874 -0.000429134,-0.0161614 -0.000594488,-0.024252l0.554591 0 0 0.512795zm-0.648626 0l-0.545673 0c-0.0699449,-0.157646 -0.111315,-0.33076 -0.117646,-0.512795l0.610319 0c0.000185039,0.00943701 0.000397638,0.0188661 0.000665354,0.0282874 0.0047126,0.164134 0.022563,0.325579 0.0523346,0.484508zm1.91407 0.147539c-0.175921,0.294953 -0.458224,0.519067 -0.793949,0.619433 0.114028,-0.202295 0.204878,-0.408634 0.268949,-0.619433l0.525 0zm-0.989846 0.662748c-0.0658858,0.00961811 -0.133272,0.014626 -0.201827,0.014626 -0.106969,0 -0.211091,-0.0121575 -0.311098,-0.0350866 -0.0972756,-0.209807 -0.174693,-0.423744 -0.228756,-0.642287l0.466083 0 0 0.674665 0.147539 0 0 -0.674665 0.438831 0c-0.0728228,0.225591 -0.178083,0.446346 -0.310772,0.662748zm-0.699264 -0.077311c-0.291776,-0.112185 -0.536024,-0.320173 -0.694236,-0.585437l0.500472 0c0.0468819,0.198969 0.112268,0.393996 0.193764,0.585437z"/>
  </g>
 </g>
</svg>
