<?xml version="1.0" encoding="UTF-8"?>
<!DOCTYPE svg PUBLIC "-//W3C//DTD SVG 1.1//EN" "http://www.w3.org/Graphics/SVG/1.1/DTD/svg11.dtd">
<!-- Creator: CorelDRAW -->
<svg xmlns="http://www.w3.org/2000/svg" xml:space="preserve" width="6.82666in" height="6.82666in" style="shape-rendering:geometricPrecision; text-rendering:geometricPrecision; image-rendering:optimizeQuality; fill-rule:evenodd; clip-rule:evenodd"
viewBox="0 0 6.82666 6.82666"
 xmlns:xlink="http://www.w3.org/1999/xlink">
 <defs>
  <style type="text/css">
   <![CDATA[
    .fil0 {fill:#9E9E9E}
    .fil2 {fill:#FFFFFE}
    .fil1 {fill:#FFFFFE;fill-rule:nonzero}
   ]]>
  </style>
 </defs>
 <g id="Layer_x0020_1">
  <metadata id="CorelCorpID_0Corel-Layer"/>
  <rect class="fil0" width="6.82666" height="6.82666" rx="0.853335" ry="0.853335"/>
  <g id="_305263672">
   <path id="_305263744" class="fil1" d="M2.94641 2.52121c0.0636654,-0.155878 0.166563,-0.290394 0.295874,-0.390185 0.152646,-0.117803 0.341591,-0.187512 0.546028,-0.187512 0.204433,0 0.393374,0.0697047 0.546024,0.187512 0.129315,0.0997913 0.232217,0.234307 0.295886,0.390185 0.0642244,-0.0146417 0.129311,-0.021752 0.194087,-0.021752 0.183854,0 0.365732,0.057378 0.518587,0.162268 0.15322,0.105142 0.277291,0.257697 0.34513,0.447728 0.0361929,0.101406 0.0563661,0.213197 0.0563661,0.33376 0,0.259953 -0.101854,0.495673 -0.26652,0.666626 -0.0985827,0.102346 -0.219555,0.181457 -0.35465,0.228756 -0.0783189,-0.209315 -0.217004,-0.377693 -0.387343,-0.494587 -0.173996,-0.119398 -0.381031,-0.184709 -0.590323,-0.184709 -0.0737283,0 -0.147819,0.00809055 -0.220929,0.0247598 -0.0724724,-0.177441 -0.18961,-0.330559 -0.336811,-0.444157 -0.173764,-0.134102 -0.388839,-0.213449 -0.621551,-0.213449 -0.232713,0 -0.447795,0.0793543 -0.621551,0.213449 -0.147201,0.113598 -0.264331,0.266717 -0.336799,0.444157 -0.0500276,-0.0114055 -0.10052,-0.0187913 -0.151031,-0.0223268 -0.0160984,-0.0701575 -0.0246417,-0.143323 -0.0246417,-0.21852 0,-0.120575 0.0201732,-0.232374 0.0563701,-0.333768 0.0678346,-0.190035 0.191921,-0.342591 0.345134,-0.447724 0.152846,-0.104886 0.33472,-0.162268 0.518575,-0.162268 0.0647717,0 0.129862,0.00711417 0.194091,0.0217559z"/>
   <path id="_305264200" class="fil1" d="M3.79919 1.57993c0.0494646,-0.121126 0.129425,-0.22565 0.229902,-0.303189 0.118614,-0.0915394 0.265429,-0.145705 0.424287,-0.145705 0.158854,0 0.305669,0.0541654 0.424283,0.145705 0.100484,0.0775394 0.180441,0.182063 0.229913,0.303189 0.0499094,-0.011378 0.10048,-0.0169055 0.150811,-0.0169055 0.142866,0 0.284193,0.0445866 0.402969,0.126094 0.119055,0.0816969 0.215469,0.20024 0.268177,0.347898 0.028126,0.0787953 0.0437992,0.165665 0.0437992,0.259346 0,0.201996 -0.0791457,0.385157 -0.207094,0.517996 -0.020685,0.0214803 -0.0426457,0.0416299 -0.0657441,0.0603425 -0.0748701,-0.120776 -0.174307,-0.225094 -0.29326,-0.306724 -0.171094,-0.117409 -0.375315,-0.182217 -0.582921,-0.182217 -0.0426732,0 -0.0852992,0.00274016 -0.127575,0.00822441 -0.0705118,-0.13726 -0.170295,-0.258327 -0.292933,-0.352972 -0.177059,-0.136638 -0.391528,-0.211201 -0.615488,-0.211201 -0.223957,0 -0.438433,0.074563 -0.615488,0.211201 -0.0942638,0.072748 -0.17502,0.16111 -0.239362,0.260437l-3.54331e-005 -0.00508661c0,-0.0936929 0.0156772,-0.180563 0.0438071,-0.25935 0.0527087,-0.147665 0.149126,-0.266209 0.268181,-0.347898 0.118768,-0.0815039 0.260087,-0.126091 0.402953,-0.126091 0.0503307,0 0.100909,0.00552756 0.150819,0.0169055z"/>
   <path id="_305263960" class="fil2" d="M1.98265 3.79491c-0.0641693,-0.0146299 -0.129858,-0.0219213 -0.195669,-0.0219213 -0.187224,0 -0.371724,0.0589134 -0.525969,0.16476 -0.162177,0.111291 -0.283969,0.268815 -0.350126,0.454134 -0.0392047,0.109815 -0.0575512,0.225217 -0.0575512,0.341705 0,0.253406 0.0955,0.497161 0.271571,0.679961 0.172406,0.178992 0.405524,0.282075 0.655161,0.282075l2.37243 0c0.249634,0 0.482744,-0.103087 0.65515,-0.282075 0.176075,-0.182799 0.271571,-0.426555 0.271571,-0.679961 0,-0.116484 -0.0183425,-0.231878 -0.0575394,-0.341697 -0.0661535,-0.185323 -0.187941,-0.342846 -0.350126,-0.454138 -0.154252,-0.10585 -0.338756,-0.16476 -0.525988,-0.16476 -0.0658071,0 -0.131492,0.0072874 -0.195654,0.0219173l-0.0940591 0.0214449 -0.0364764 -0.089311c-0.0637638,-0.156126 -0.167417,-0.294028 -0.30102,-0.397138 -0.159004,-0.122709 -0.350906,-0.189756 -0.552083,-0.189756 -0.201177,0 -0.393079,0.0670472 -0.552083,0.18976 -0.133606,0.103102 -0.237248,0.241008 -0.301008,0.39713l-0.0364764 0.089315 -0.0940551 -0.0214449z"/>
  </g>
 </g>
</svg>
