<?xml version="1.0" encoding="UTF-8"?>
<!DOCTYPE svg PUBLIC "-//W3C//DTD SVG 1.1//EN" "http://www.w3.org/Graphics/SVG/1.1/DTD/svg11.dtd">
<!-- Creator: CorelDRAW -->
<svg xmlns="http://www.w3.org/2000/svg" xml:space="preserve" width="6.82666in" height="6.82666in" style="shape-rendering:geometricPrecision; text-rendering:geometricPrecision; image-rendering:optimizeQuality; fill-rule:evenodd; clip-rule:evenodd"
viewBox="0 0 6.82666 6.82666"
 xmlns:xlink="http://www.w3.org/1999/xlink">
 <defs>
  <style type="text/css">
   <![CDATA[
    .fil0 {fill:#FF5722}
    .fil1 {fill:#FFFFFE;fill-rule:nonzero}
   ]]>
  </style>
 </defs>
 <g id="Layer_x0020_1">
  <metadata id="CorelCorpID_0Corel-Layer"/>
  <rect class="fil0" width="6.82666" height="6.82666" rx="0.853335" ry="0.853335"/>
  <polygon class="fil1" points="1.20667,1.38666 1.20667,5.72666 5.54667,5.72666 5.54667,6.00666 1.06667,6.00666 0.926665,6.00666 0.926665,5.86666 0.926665,1.38666 "/>
  <polygon class="fil1" points="1.41608,5.26937 1.84641,4.83905 1.92183,4.76363 1.99724,4.83905 2.35215,5.19396 2.79314,4.75298 2.87541,4.6707 2.95022,4.76048 3.30574,5.1871 3.78289,4.70994 3.87176,4.62107 3.94498,4.72328 4.26243,5.16646 4.76127,4.66142 4.91294,4.81058 4.3251,5.40574 4.2361,5.49584 4.1626,5.39324 3.84486,4.94965 3.3743,5.42021 3.29203,5.50248 3.21722,5.41271 2.8617,4.98609 2.42757,5.42021 2.35215,5.49562 2.27674,5.42021 1.92183,5.0653 1.56692,5.42021 "/>
  <path class="fil1" d="M1.41608 3.67717l0.430327 -0.430327 0.0754173 -0.0754173 0.0754173 0.0754173 0.354909 0.354909 0.440984 -0.440976 0.0822756 -0.0822717 0.0748071 0.0897717 0.214138 0.256965c0.0226417,0.157827 0.083126,0.307228 0.17648,0.436224l-0.048811 0.048811 -0.074811 -0.0897717 -0.355516 -0.426622 -0.43413 0.434122 -0.0754173 0.0754134 -0.0754173 -0.0754134 -0.354909 -0.354909 -0.354909 0.354909 -0.150835 -0.150835z"/>
  <polygon class="fil1" points="1.41608,2.07656 1.92396,1.56869 1.99937,1.49328 2.07479,1.56869 2.50725,2.00115 3.04129,1.46711 3.12357,1.38484 3.19837,1.47461 3.63144,1.99429 4.20941,1.41632 4.29828,1.32745 4.37149,1.42966 4.7594,1.97119 5.36417,1.3589 5.51583,1.50806 4.82207,2.21047 4.73306,2.30058 4.65957,2.19797 4.27137,1.65603 3.7,2.2274 3.61772,2.30967 3.54292,2.2199 3.10985,1.70022 2.58267,2.2274 2.50726,2.30281 2.43183,2.2274 1.99937,1.79494 1.56692,2.2274 "/>
  <path class="fil1" d="M4.13972 2.37776c0.250354,0 0.477024,0.101488 0.641102,0.265567 0.164079,0.164079 0.265567,0.390748 0.265567,0.641102 0,0.250354 -0.101488,0.477024 -0.265567,0.641102 -0.164079,0.164079 -0.390748,0.265567 -0.641102,0.265567 -0.250354,0 -0.477024,-0.101488 -0.641102,-0.265567 -0.164079,-0.164079 -0.265567,-0.390748 -0.265567,-0.641102 0,-0.250354 0.101488,-0.477024 0.265567,-0.641102 0.164079,-0.164079 0.390748,-0.265567 0.641102,-0.265567z"/>
  <polygon class="fil1" points="4.84784,3.74303 6.02117,4.67795 5.88867,4.84462 4.71533,3.9097 "/>
 </g>
</svg>
