<?xml version="1.0" encoding="UTF-8"?>
<!DOCTYPE svg PUBLIC "-//W3C//DTD SVG 1.1//EN" "http://www.w3.org/Graphics/SVG/1.1/DTD/svg11.dtd">
<!-- Creator: CorelDRAW -->
<svg xmlns="http://www.w3.org/2000/svg" xml:space="preserve" width="6.82666in" height="6.82666in" style="shape-rendering:geometricPrecision; text-rendering:geometricPrecision; image-rendering:optimizeQuality; fill-rule:evenodd; clip-rule:evenodd"
viewBox="0 0 6.82666 6.82666"
 xmlns:xlink="http://www.w3.org/1999/xlink">
 <defs>
  <style type="text/css">
   <![CDATA[
    .fil0 {fill:#EC407A}
    .fil2 {fill:#FFFFFE}
    .fil1 {fill:#FFFFFE;fill-rule:nonzero}
   ]]>
  </style>
 </defs>
 <g id="Layer_x0020_1">
  <metadata id="CorelCorpID_0Corel-Layer"/>
  <rect class="fil0" width="6.82666" height="6.82666" rx="0.853335" ry="0.853335"/>
  <g id="_460877144">
   <polygon id="_460877120" class="fil1" points="4.81652,5.43999 4.81652,5.73345 4.95854,5.73345 4.95854,5.87345 4.5345,5.87345 4.5345,5.73345 4.67652,5.73345 4.67652,5.43999 "/>
   <path id="_460877024" class="fil2" d="M3.65663 4.04672l2.17978 0c0.0290984,0 0.0529055,0.0267795 0.0529055,0.0594685l0 1.34005c0,0.032685 -0.0238268,0.0594646 -0.0529055,0.0594646l-2.17978 0c-0.0290787,0 -0.0529055,-0.0267598 -0.0529055,-0.0594646l0 -1.34005c0,-0.0327087 0.0238071,-0.0594685 0.0529055,-0.0594685z"/>
  </g>
  <g id="_460876352">
   <polygon id="_460876472" class="fil1" points="2.10109,4.05993 2.10109,4.35339 2.24311,4.35339 2.24311,4.49339 1.81908,4.49339 1.81908,4.35339 1.96109,4.35339 1.96109,4.05993 "/>
   <path id="_460876184" class="fil2" d="M0.941205 2.66666l2.17978 0c0.0290984,0 0.0529055,0.0267795 0.0529055,0.0594685l0 1.34005c0,0.032685 -0.0238268,0.0594646 -0.0529055,0.0594646l-2.17978 0c-0.0290787,0 -0.0529055,-0.0267598 -0.0529055,-0.0594646l0 -1.34005c0,-0.0327087 0.0238071,-0.0594685 0.0529055,-0.0594685z"/>
  </g>
  <polygon class="fil1" points="1.94667,2.66666 1.94667,1.70666 1.94667,1.62666 2.02667,1.62666 3.73333,1.62666 3.73333,1.78666 2.10667,1.78666 2.10667,2.66666 "/>
  <polygon class="fil1" points="4.61333,4.09013 4.61333,3.52449 3.10373,3.52449 3.10373,3.36449 4.69333,3.36449 4.77333,3.36449 4.77333,3.44449 4.77333,4.09013 "/>
  <g id="_460876088">
   <polygon id="_460875680" class="fil1" points="4.81652,2.42493 4.81652,2.71839 4.95854,2.71839 4.95854,2.85839 4.5345,2.85839 4.5345,2.71839 4.67652,2.71839 4.67652,2.42493 "/>
   <path id="_460875848" class="fil2" d="M3.65663 1.03167l2.17978 0c0.0290984,0 0.0529055,0.0267795 0.0529055,0.0594685l0 1.34005c0,0.032685 -0.0238268,0.0594646 -0.0529055,0.0594646l-2.17978 0c-0.0290787,0 -0.0529055,-0.0267598 -0.0529055,-0.0594646l0 -1.34005c0,-0.0327087 0.0238071,-0.0594685 0.0529055,-0.0594685z"/>
  </g>
 </g>
</svg>
