<?xml version="1.0" encoding="UTF-8"?>
<!DOCTYPE svg PUBLIC "-//W3C//DTD SVG 1.1//EN" "http://www.w3.org/Graphics/SVG/1.1/DTD/svg11.dtd">
<!-- Creator: CorelDRAW -->
<svg xmlns="http://www.w3.org/2000/svg" xml:space="preserve" width="6.82666in" height="6.82666in" style="shape-rendering:geometricPrecision; text-rendering:geometricPrecision; image-rendering:optimizeQuality; fill-rule:evenodd; clip-rule:evenodd"
viewBox="0 0 6.82666 6.82666"
 xmlns:xlink="http://www.w3.org/1999/xlink">
 <defs>
  <style type="text/css">
   <![CDATA[
    .fil0 {fill:#AB47BC}
    .fil1 {fill:#FFFFFE}
   ]]>
  </style>
 </defs>
 <g id="Layer_x0020_1">
  <metadata id="CorelCorpID_0Corel-Layer"/>
  <rect class="fil0" width="6.82666" height="6.82666" rx="0.853335" ry="0.853335"/>
  <g id="_461090400">
   <path id="_461090616" class="fil1" d="M1.4655 0.853331l2.93806 0 0 0.908937 0 0.0554409 0.0556535 -3.93701e-006 0.901941 -7.87402e-006 0 4.15563 -3.89565 0 0 -5.12zm0.902831 1.85178l2.13333 0 0 0.213339 -2.13333 0 0 -0.213339zm0.64 -0.276185l0.853335 0 0 0.213339 -0.853335 0 0 -0.213339zm-0.324098 0.557736l1.50153 0 0 1.92 -1.50153 0 0 -1.92zm0.590772 0.32l0 1.28 -0.213339 0 0 -1.28 0.213339 0zm0.533323 0l0 1.28 -0.213339 0 0 -1.28 0.213339 0z"/>
   <polygon id="_461090952" class="fil1" points="4.51487,0.876602 5.34509,1.70682 4.51487,1.70683 "/>
  </g>
 </g>
</svg>
