<svg xmlns="http://www.w3.org/2000/svg" viewBox="0 0 64 64"><defs><style>.cls-1{fill:#f79341;}.cls-2{fill:#ffb248;}.cls-3{fill:#d94747;}.cls-4{fill:#ff9b9b;}.cls-5{fill:#2b2b4c;}.cls-6{fill:#f57070;}</style></defs><title>Health Insurance</title><g id="Health_Insurance" data-name="Health Insurance"><path class="cls-1" d="M59,32.56v8.58A12.34,12.34,0,0,1,50,53a12.42,12.42,0,0,1-7.43-5.86,12.17,12.17,0,0,1-1.57-6V32.56l6-1.71L50,30l1.13.32,6.42,1.83Z"/><path class="cls-2" d="M56,31.71v6.43A12.34,12.34,0,0,1,47,50a12.39,12.39,0,0,1-3.77-1.8A12.31,12.31,0,0,1,41,41.14V32.56L50,30Z"/><path class="cls-3" d="M57.55,32.15l-6.42-1.83L50,30l-3,.85-6,1.71v8.58a12.17,12.17,0,0,0,1.57,6C37,50.85,31.89,53.69,31.89,53.69l0,0,0,0S13.1,43.31,8.47,36.36c-2.68-4-3.75-7.61-3.75-10.77,0-4.72,2.37-8.5,5.29-11.42a12.57,12.57,0,0,1,17.75,0l4.1,4.1L36,14.17a12.57,12.57,0,0,1,17.75,0C57.89,18.34,60.92,24.27,57.55,32.15Z"/><polygon class="cls-4" points="28 22 28 28 22 28 22 34 16 34 16 28 10 28 10 22 16 22 16 16 22 16 22 22 28 22"/><path class="cls-5" d="M49,45a1,1,0,0,1-.71-.29l-2.5-2.5a1,1,0,0,1,1.42-1.42L49,42.59l4.29-4.3a1,1,0,0,1,1.42,1.42l-5,5A1,1,0,0,1,49,45Z"/><path class="cls-5" d="M50,54a.84.84,0,0,1-.27,0A13.35,13.35,0,0,1,40,41.14V40a1,1,0,0,1,2,0v1.14A11.32,11.32,0,0,0,46.28,50,11.39,11.39,0,0,0,50,52a11.4,11.4,0,0,0,8-10.82V33.32L50,31l-8,2.27V36a1,1,0,0,1-2,0V32.56a1,1,0,0,1,.73-1l9-2.56a1,1,0,0,1,.54,0l9,2.56a1,1,0,0,1,.73,1v8.58A13.39,13.39,0,0,1,50.27,54,.84.84,0,0,1,50,54Z"/><path class="cls-5" d="M31.89,54.69h-.13a1.08,1.08,0,0,1-.4-.11c-.78-.43-19-10.58-23.72-17.65C5,33,3.72,29.2,3.72,25.59a15.06,15.06,0,0,1,1.83-7.15,1,1,0,1,1,1.76.94,13.22,13.22,0,0,0-1.59,6.21c0,3.21,1.21,6.65,3.58,10.22,4,6.07,19.68,15.11,22.57,16.75,1.3-.74,5.18-3,9.4-5.76A13.3,13.3,0,0,1,40,41.14V40a1,1,0,0,1,2,0v1.14a11.27,11.27,0,0,0,1.44,5.51A1,1,0,0,1,43.13,48c-5.53,3.69-10.7,6.57-10.76,6.6A1,1,0,0,1,31.89,54.69Z"/><path class="cls-5" d="M41,37a1,1,0,0,1-1-1V32.56a1,1,0,0,1,.73-1l9-2.56a1,1,0,0,1,.54,0L57,30.94c2.19-5.85.87-11.25-4-16.06a11.42,11.42,0,0,0-8.13-3.38h-.07a11.42,11.42,0,0,0-8.13,3.38L32.57,19a1,1,0,0,1-1.42,0l-4.1-4.1a11.42,11.42,0,0,0-8.13-3.38h-.07a11.42,11.42,0,0,0-8.13,3.38c-.51.51-1,1-1.39,1.51a1,1,0,0,1-1.54-1.26c.45-.55,1-1.11,1.51-1.67a13.45,13.45,0,0,1,9.54-4h.08a13.45,13.45,0,0,1,9.55,4l3.39,3.4,3.4-3.4a13.45,13.45,0,0,1,9.54-4h.08a13.45,13.45,0,0,1,9.55,4c5.67,5.67,7,12.09,4,19.08a1,1,0,0,1-1.19.57L50,31l-8,2.27V36A1,1,0,0,1,41,37Z"/><path class="cls-4" d="M46,15.58h-.13a7.83,7.83,0,0,0-1.08-.07,1,1,0,0,1,0-2,10.2,10.2,0,0,1,1.35.09,1,1,0,0,1-.14,2Z"/><path class="cls-4" d="M54.87,28.23l-.16,0a1,1,0,0,1-.83-1.14c.52-3.35-.65-6.32-3.7-9.36a7,7,0,0,0-1.5-1.17l-.12-.07a1,1,0,0,1,1-1.74l.16.09a9.51,9.51,0,0,1,1.89,1.47c3.48,3.48,4.87,7.11,4.25,11.09A1,1,0,0,1,54.87,28.23Z"/><path class="cls-6" d="M22,35H16a1,1,0,0,1-1-1V29H10a1,1,0,0,1-1-1V22a1,1,0,0,1,1-1h5V16a1,1,0,0,1,1-1h6a1,1,0,0,1,1,1v5h5a1,1,0,0,1,1,1v6a1,1,0,0,1-1,1H23a1,1,0,0,1-2,0V28a1,1,0,0,1,1-1h5V23H22a1,1,0,0,1-1-1V17H17v5a1,1,0,0,1-1,1H11v4h5a1,1,0,0,1,1,1v5h4a1,1,0,0,1,2,0v1A1,1,0,0,1,22,35Z"/></g></svg>