<?xml version="1.0" encoding="utf-8"?>
<!-- Generator: Adobe Illustrator 22.1.0, SVG Export Plug-In . SVG Version: 6.00 Build 0)  -->
<svg version="1.1" id="Layer_1" xmlns="http://www.w3.org/2000/svg" xmlns:xlink="http://www.w3.org/1999/xlink" x="0px" y="0px"
	 viewBox="0 0 256 256" style="enable-background:new 0 0 256 256;" xml:space="preserve">
<style type="text/css">
	.st0{fill:#231F20;}
	.st1{fill:#FFEFE4;}
	.st2{fill:#69EBFC;}
	.st3{fill:#5FD4E3;}
	.st4{fill:#A1F1FC;}
	.st5{fill:#D476E2;}
	.st6{fill:#B665C2;}
	.st7{fill:#EA82FA;}
	.st8{fill:#FFF7F2;}
	.st9{fill:#FF8354;}
	.st10{fill:#FFA172;}
	.st11{fill:#6770E6;}
	.st12{fill:#5861C7;}
	.st13{fill:#E0734A;}
	.st14{fill:#EDD4C2;}
	.st15{fill:#CC6944;}
	.st16{fill:#858EFF;}
	.st17{fill:#C76642;}
	.st18{fill:#FFFFFF;}
	.st19{fill:#FFDEC7;}
	.st20{fill:#4E56B0;}
	.st21{fill:#94529E;}
	.st22{fill:#41B6C5;}
	.st23{fill:#9847A4;}
	.st24{fill:#C2552C;}
	.st25{fill:#CFB6A4;}
</style>
<g>
	<path class="st2" d="M193,256H63c-8.837,0-16-7.163-16-16V16c0-8.837,7.163-16,16-16h130c8.837,0,16,7.163,16,16v224
		C209,248.837,201.837,256,193,256z"/>
	<path class="st2" d="M193,256H63c-8.837,0-16-7.163-16-16V16c0-8.837,7.163-16,16-16h130c8.837,0,16,7.163,16,16v224
		C209,248.837,201.837,256,193,256z"/>
	<path class="st3" d="M193,250H63c-8.837,0-16-7.163-16-16v6c0,8.837,7.163,16,16,16h130c8.837,0,16-7.163,16-16v-6
		C209,242.837,201.837,250,193,250z"/>
	<path class="st4" d="M193,0H63c-8.837,0-16,7.163-16,16v6c0-8.837,7.163-16,16-16h130c8.837,0,16,7.163,16,16v-6
		C209,7.163,201.837,0,193,0z"/>
	<path class="st1" d="M57,238V30c0-4.418,3.582-8,8-8h126c4.418,0,8,3.582,8,8v208c0,4.418-3.582,8-8,8H65
		C60.582,246,57,242.418,57,238z"/>
	<path class="st3" d="M156,15h-56c-2.209,0-4-1.791-4-4v0c0-2.209,1.791-4,4-4h56c2.209,0,4,1.791,4,4v0
		C160,13.209,158.209,15,156,15z"/>
	<circle class="st3" cx="170" cy="11" r="4"/>
	<circle class="st11" cx="128.013" cy="127.739" r="90.625"/>
	<path class="st16" d="M128.013,44.114c48.878,0,88.711,38.697,90.551,87.125c0.044-1.162,0.074-2.327,0.074-3.5
		c0-50.051-40.574-90.625-90.625-90.625s-90.625,40.574-90.625,90.625c0,1.173,0.03,2.338,0.074,3.5
		C39.302,82.811,79.135,44.114,128.013,44.114z"/>
	<rect x="88.423" y="118.668" class="st2" width="16.059" height="52.545"/>
	<path class="st5" d="M83.236,178.284h-4.947c-6.553,0-11.865-5.312-11.865-11.865v-42.958c0-6.553,5.312-11.865,11.865-11.865
		h4.947c2.865,0,5.187,2.322,5.187,5.187v56.313C88.423,175.962,86.101,178.284,83.236,178.284z"/>
	<path class="st1" d="M189.602,133.138c0-4.206-3.409-7.615-7.615-7.615h-1.912v-0.109c3.616-0.592,6.379-3.722,6.379-7.506
		c0-3.784-2.762-6.914-6.379-7.506v-0.109h-1.236H152.73h-7.502l4.081-11.136c1.191-3.251,1.595-6.738,1.179-10.175l-0.301-2.483
		c-0.644-5.311-5.151-9.305-10.5-9.305c-1.74,0-3.151,1.411-3.151,3.151V82.3c0,4.363-1.067,8.659-3.109,12.514l-3.751,7.082
		c-1.624,3.066-3.828,5.787-6.492,8.01l-15.658,13.075l-3.043,1.524v38.221l8.333,4.388c5.112,2.692,10.802,4.098,16.58,4.098
		h18.868h23.647h2.462c4.206,0,7.615-3.409,7.615-7.615v0c0-4.119-3.272-7.465-7.357-7.602l0.002-0.013h4.207
		c4.206,0,7.615-3.409,7.615-7.615c0-4.206-3.409-7.615-7.615-7.615h3.149C186.193,140.753,189.602,137.344,189.602,133.138z"/>
	<circle class="st9" cx="208.79" cy="77.062" r="24.768"/>
	<path class="st10" d="M208.79,57.294c12.835,0,23.389,9.763,24.643,22.268c0.082-0.822,0.125-1.656,0.125-2.5
		c0-13.679-11.089-24.768-24.768-24.768c-13.679,0-24.768,11.089-24.768,24.768c0,0.844,0.043,1.678,0.125,2.5
		C185.401,67.057,195.955,57.294,208.79,57.294z"/>
	<path class="st8" d="M215.909,81.769c-1.463,0-2.792,0.561-3.795,1.474l-6.961-4.019c0.105-0.43,0.166-0.876,0.166-1.338
		c0-0.328-0.034-0.648-0.088-0.961l6.929-4c0.998,0.888,2.308,1.432,3.749,1.432c3.119,0,5.648-2.529,5.648-5.648
		s-2.529-5.648-5.648-5.648s-5.648,2.529-5.648,5.648c0,0.4,0.043,0.79,0.122,1.166l-6.812,3.933c-1.014-0.97-2.386-1.569-3.9-1.569
		c-3.119,0-5.648,2.529-5.648,5.648c0,3.119,2.529,5.648,5.648,5.648c1.376,0,2.636-0.493,3.616-1.311l7.083,4.09
		c-0.071,0.357-0.11,0.726-0.11,1.105c0,3.119,2.529,5.648,5.648,5.648s5.648-2.529,5.648-5.648
		C221.557,84.298,219.028,81.769,215.909,81.769z"/>
</g>
</svg>
