<?xml version="1.0" encoding="utf-8"?>
<!-- Generator: Adobe Illustrator 19.2.0, SVG Export Plug-In . SVG Version: 6.00 Build 0)  -->
<svg version="1.1" id="Layer_1" xmlns="http://www.w3.org/2000/svg" xmlns:xlink="http://www.w3.org/1999/xlink" x="0px" y="0px"
	 viewBox="0 0 500 500" style="enable-background:new 0 0 500 500;" xml:space="preserve">
<style type="text/css">
	.st0{fill:#ECF4F7;}
	.st1{fill:#1C1D21;}
	.st2{fill:#83E1E5;}
	.st3{fill:#AAB1BA;}
	.st4{fill:none;stroke:#1C1D21;stroke-width:10;stroke-linecap:round;stroke-linejoin:round;stroke-miterlimit:10;}
	.st5{fill:#FDDF7F;}
	.st6{fill:#FFFFFF;}
</style>
<g>
	<g>
		<g>
			<path class="st2" d="M471.7,325.7c12.9,0,23.3-10.4,23.3-23.3c0-30.5-24.7-55.2-55.2-55.2c0-52.3-42.4-94.8-94.8-94.8h-43.5
				c0-40.4-32.8-73.2-73.2-73.2c-40.4,0-73.2,32.8-73.2,73.2c-27.6,0-50,22.4-50,50c-27.6,0-50,22.4-50,50c-27.6,0-50,22.4-50,50
				c0,12.9,10.4,23.3,23.3,23.3H471.7z"/>
		</g>
	</g>
	<g>
		<g>
			<path class="st1" d="M471.7,330.7H28.3C12.7,330.7,0,318,0,302.5c0-28.7,22.1-52.4,50.2-54.8c2.3-26.5,23.5-47.7,50-50
				c2.3-26.5,23.5-47.7,49.9-50c2.5-40.9,36.6-73.4,78.1-73.4c41.5,0,75.5,32.4,78.1,73.2H345c53.4,0,97.1,42.2,99.7,95
				c30.9,2.5,55.3,28.5,55.3,60C500,318,487.3,330.7,471.7,330.7z M228.2,84.2c-37.6,0-68.2,30.6-68.2,68.2c0,2.8-2.2,5-5,5
				c-24.8,0-45,20.2-45,45c0,2.8-2.2,5-5,5c-24.8,0-45,20.2-45,45c0,2.8-2.2,5-5,5c-24.8,0-45,20.2-45,45c0,10.1,8.2,18.3,18.3,18.3
				h443.5c10.1,0,18.3-8.2,18.3-18.3c0-27.7-22.5-50.2-50.2-50.2c-2.8,0-5-2.2-5-5c0-49.5-40.3-89.8-89.8-89.8h-43.5
				c-2.8,0-5-2.2-5-5C296.5,114.8,265.9,84.2,228.2,84.2z"/>
		</g>
	</g>
	<g>
		<g>
			<g>
				<path class="st0" d="M272.1,367.8V291c0-6.7,5.5-12.2,12.2-12.2h15.9c10.3,0,16-12.1,9.3-20l-50.1-60c-4.9-5.8-13.8-5.8-18.7,0
					l-50.1,60c-6.6,7.9-1,20,9.3,20h15.9c6.7,0,12.2,5.5,12.2,12.2v76.9"/>
			</g>
		</g>
		<g>
			<g>
				<path class="st1" d="M272.1,372.8c-2.8,0-5-2.2-5-5V291c0-9.5,7.7-17.2,17.2-17.2h15.9c2.9,0,5.3-1.5,6.5-4.1
					c1.2-2.6,0.8-5.5-1-7.6l-50.1-60c-1.4-1.6-3.4-2.6-5.5-2.6c-2.1,0-4.1,0.9-5.5,2.6l-50.1,60c-1.8,2.2-2.2,5.1-1,7.6
					c1.2,2.6,3.6,4.1,6.5,4.1h15.9c9.5,0,17.2,7.7,17.2,17.2v76.9c0,2.8-2.2,5-5,5c-2.8,0-5-2.2-5-5V291c0-4-3.2-7.2-7.2-7.2h-15.9
					c-6.7,0-12.7-3.8-15.6-9.9c-2.9-6.1-1.9-13.1,2.4-18.3l50.1-60c3.3-3.9,8.1-6.2,13.2-6.2c5.1,0,9.9,2.2,13.2,6.2l50.1,60
					c4.3,5.2,5.2,12.2,2.4,18.3c-2.9,6.1-8.8,9.9-15.6,9.9h-15.9c-4,0-7.2,3.2-7.2,7.2v76.9C277.1,370.6,274.8,372.8,272.1,372.8z"
					/>
			</g>
		</g>
	</g>
	<g>
		<g>
			<path class="st1" d="M227.9,403.8c-2.8,0-5-2.2-5-5v-10.6c0-2.8,2.2-5,5-5c2.8,0,5,2.2,5,5v10.6
				C232.9,401.5,230.7,403.8,227.9,403.8z"/>
		</g>
	</g>
	<g>
		<g>
			<path class="st1" d="M227.9,425.8c-2.8,0-5-2.2-5-5v-2.7c0-2.8,2.2-5,5-5c2.8,0,5,2.2,5,5v2.7
				C232.9,423.5,230.7,425.8,227.9,425.8z"/>
		</g>
	</g>
	<g>
		<g>
			<path class="st1" d="M271.5,403.8c-2.8,0-5-2.2-5-5v-10.6c0-2.8,2.2-5,5-5s5,2.2,5,5v10.6C276.5,401.5,274.3,403.8,271.5,403.8z"
				/>
		</g>
	</g>
	<g>
		<g>
			<path class="st1" d="M271.5,425.8c-2.8,0-5-2.2-5-5v-2.7c0-2.8,2.2-5,5-5s5,2.2,5,5v2.7C276.5,423.5,274.3,425.8,271.5,425.8z"/>
		</g>
	</g>
</g>
</svg>
