<?xml version="1.0" encoding="utf-8"?>
<!-- Generator: Adobe Illustrator 18.0.0, SVG Export Plug-In . SVG Version: 6.00 Build 0)  -->
<!DOCTYPE svg PUBLIC "-//W3C//DTD SVG 1.1//EN" "http://www.w3.org/Graphics/SVG/1.1/DTD/svg11.dtd">
<svg version="1.1" id="Icon_Set" xmlns="http://www.w3.org/2000/svg" xmlns:xlink="http://www.w3.org/1999/xlink" x="0px" y="0px"
	 viewBox="0 0 256 256" style="enable-background:new 0 0 256 256;" xml:space="preserve">
<style type="text/css">
	.st0{fill:#4C4372;}
	.st1{fill:#F1C48B;}
	.st2{fill:#FFFFFF;}
	.st3{fill:#A3D0F1;}
	.st4{fill:#7BACF1;}
	.st5{fill:#D4E7F8;}
	.st6{fill:#FD919E;}
	.st7{fill:#D3E6F7;}
	.st8{fill:#E8677D;}
	.st9{fill:#D3E6F8;}
</style>
<g>
	<g>
		<circle class="st1" cx="128" cy="128" r="104.245"/>
	</g>
	<g>
		<circle class="st6" cx="50.292" cy="48.912" r="9.894"/>
	</g>
	<g>
		<path class="st0" d="M50.292,61.807c-3.443,0-6.682-1.342-9.117-3.777c-5.027-5.026-5.027-13.206-0.001-18.234
			c2.437-2.436,5.675-3.776,9.118-3.776c3.444,0,6.683,1.341,9.117,3.776c2.436,2.436,3.777,5.674,3.777,9.117
			c0,3.444-1.342,6.683-3.777,9.118C56.975,60.465,53.736,61.807,50.292,61.807z M50.292,42.019c-1.841,0-3.572,0.717-4.875,2.02
			c-2.688,2.688-2.688,7.062,0,9.749c1.303,1.302,3.034,2.02,4.875,2.02c1.842,0,3.572-0.718,4.874-2.02
			c1.303-1.303,2.021-3.033,2.021-4.875c0-1.841-0.718-3.572-2.02-4.875C53.865,42.735,52.134,42.019,50.292,42.019z"/>
	</g>
	<g>
		<circle class="st6" cx="205.708" cy="204.328" r="9.894"/>
	</g>
	<g>
		<path class="st0" d="M205.708,217.222c-3.444,0-6.683-1.341-9.117-3.776c-2.436-2.436-3.777-5.674-3.777-9.117
			c0-3.444,1.342-6.683,3.777-9.118c2.435-2.435,5.673-3.776,9.117-3.776c3.443,0,6.682,1.342,9.117,3.777
			c5.027,5.026,5.027,13.206,0.001,18.234C212.39,215.881,209.151,217.222,205.708,217.222z M205.708,197.434
			c-1.842,0-3.572,0.718-4.874,2.02c-1.303,1.303-2.021,3.033-2.021,4.875c0,1.841,0.718,3.572,2.02,4.875
			c1.302,1.302,3.033,2.019,4.875,2.019c1.841,0,3.572-0.717,4.875-2.02c2.688-2.688,2.688-7.062,0-9.749
			C209.28,198.151,207.549,197.434,205.708,197.434z"/>
	</g>
	<g>
		<circle class="st6" cx="205.708" cy="48.912" r="9.894"/>
	</g>
	<g>
		<path class="st0" d="M205.708,61.807c-3.444,0-6.683-1.342-9.118-3.777c-2.435-2.435-3.776-5.673-3.776-9.117
			c0-3.443,1.342-6.682,3.777-9.117c2.435-2.436,5.673-3.776,9.117-3.776c3.443,0,6.682,1.341,9.117,3.775
			c5.027,5.029,5.027,13.209,0,18.235C212.39,60.465,209.151,61.807,205.708,61.807z M205.708,42.019
			c-1.842,0-3.573,0.717-4.875,2.019c-1.302,1.303-2.02,3.034-2.02,4.875c0,1.842,0.718,3.572,2.02,4.874
			c1.303,1.303,3.033,2.021,4.875,2.021c1.841,0,3.572-0.718,4.875-2.02c2.688-2.688,2.688-7.062-0.001-9.75
			C209.28,42.735,207.549,42.019,205.708,42.019z"/>
	</g>
	<g>
		<circle class="st6" cx="50.292" cy="204.328" r="9.894"/>
	</g>
	<g>
		<path class="st0" d="M50.292,217.222c-3.443,0-6.682-1.341-9.117-3.775c-5.027-5.029-5.027-13.209,0-18.235
			c2.436-2.436,5.674-3.777,9.117-3.777c3.444,0,6.683,1.342,9.118,3.777c2.435,2.435,3.776,5.673,3.776,9.117
			c0,3.443-1.342,6.682-3.777,9.117C56.975,215.881,53.736,217.222,50.292,217.222z M50.292,197.434
			c-1.841,0-3.572,0.718-4.875,2.02c-2.688,2.688-2.688,7.062,0.001,9.75c1.302,1.302,3.033,2.019,4.874,2.019
			c1.842,0,3.573-0.717,4.875-2.019c1.302-1.303,2.02-3.034,2.02-4.875c0-1.842-0.718-3.572-2.02-4.874
			C53.864,198.151,52.134,197.434,50.292,197.434z"/>
	</g>
	<g>
		<path class="st0" d="M198.712,200.332c-0.768,0-1.535-0.293-2.121-0.879L55.167,58.029c-1.172-1.171-1.172-3.071,0-4.242
			c1.172-1.172,3.07-1.172,4.242,0l141.424,141.424c1.172,1.171,1.172,3.071,0,4.242
			C200.247,200.039,199.479,200.332,198.712,200.332z"/>
	</g>
	<g>
		<path class="st0" d="M57.288,200.332c-0.768,0-1.535-0.293-2.121-0.879c-1.172-1.171-1.172-3.071,0-4.242L196.591,53.787
			c1.172-1.172,3.07-1.172,4.242,0c1.172,1.171,1.172,3.071,0,4.242L59.409,199.453C58.823,200.039,58.056,200.332,57.288,200.332z"
			/>
	</g>
	<g>
		<circle class="st7" cx="128" cy="126.62" r="81"/>
	</g>
	<g>
		<path class="st3" d="M128,45.62c-2.36,0-4.691,0.123-7,0.321c41.455,3.552,74,38.305,74,80.679c0,42.375-32.545,77.128-74,80.679
			c2.309,0.198,4.64,0.321,7,0.321c44.735,0,81-36.265,81-81C209,81.885,172.735,45.62,128,45.62z"/>
	</g>
	<g>
		<path class="st0" d="M128,98.028c-26.558,0-50.932-6.192-66.875-16.988c-0.676-0.458-1.137-1.173-1.274-1.978
			c-0.138-0.806,0.059-1.632,0.544-2.289C76.188,55.388,101.462,42.62,128,42.62s51.812,12.768,67.605,34.153
			c0.485,0.657,0.682,1.483,0.544,2.289c-0.138,0.805-0.599,1.52-1.274,1.978C178.932,91.836,154.558,98.028,128,98.028z
			 M67.185,77.792C82.04,86.744,104.456,92.028,128,92.028s45.96-5.284,60.815-14.236C174.067,59.469,151.57,48.62,128,48.62
			S81.933,59.469,67.185,77.792z"/>
	</g>
	<g>
		<path class="st0" d="M128,210.62c-26.538,0-51.812-12.768-67.605-34.153c-0.485-0.657-0.682-1.483-0.544-2.289
			c0.138-0.805,0.599-1.52,1.274-1.978c15.943-10.796,40.317-16.988,66.875-16.988s50.932,6.192,66.875,16.988
			c0.676,0.458,1.137,1.173,1.274,1.978c0.138,0.806-0.059,1.632-0.544,2.289C179.812,197.853,154.538,210.62,128,210.62z
			 M67.185,175.448C81.933,193.771,104.43,204.62,128,204.62s46.067-10.849,60.815-29.172
			c-14.855-8.952-37.271-14.236-60.815-14.236S82.04,166.496,67.185,175.448z"/>
	</g>
	<g>
		<path class="st0" d="M128,210.62c-46.317,0-84-37.683-84-84s37.683-84,84-84s84,37.683,84,84S174.317,210.62,128,210.62z
			 M128,48.62c-43.01,0-78,34.99-78,78s34.99,78,78,78s78-34.99,78-78S171.01,48.62,128,48.62z"/>
	</g>
	<g>
		<path class="st0" d="M128,210.62c-24.393,0-43.5-36.897-43.5-84s19.107-84,43.5-84s43.5,36.897,43.5,84S152.393,210.62,128,210.62
			z M128,48.62c-20.327,0-37.5,35.72-37.5,78s17.173,78,37.5,78s37.5-35.72,37.5-78S148.327,48.62,128,48.62z"/>
	</g>
	<g>
		<path class="st0" d="M209,129.62H47c-1.657,0-3-1.343-3-3s1.343-3,3-3h162c1.657,0,3,1.343,3,3S210.657,129.62,209,129.62z"/>
	</g>
	<g>
		<path class="st0" d="M128,210.62c-1.657,0-3-1.343-3-3v-162c0-1.657,1.343-3,3-3s3,1.343,3,3v162
			C131,209.277,129.657,210.62,128,210.62z"/>
	</g>
	<g>
		<path class="st6" d="M167.846,216.981H88.154v-15.279c0-15.388,12.474-27.862,27.862-27.862h23.967
			c15.388,0,27.862,12.474,27.862,27.862V216.981z"/>
	</g>
	<g>
		<path class="st0" d="M167.846,219.981H88.154c-1.657,0-3-1.343-3-3v-15.279c0-17.018,13.845-30.862,30.862-30.862h23.967
			c17.018,0,30.862,13.845,30.862,30.862v15.279C170.846,218.639,169.503,219.981,167.846,219.981z M91.154,213.981h73.691v-12.279
			c0-13.709-11.153-24.862-24.862-24.862h-23.967c-13.709,0-24.862,11.153-24.862,24.862V213.981z"/>
	</g>
	<g>
		<path class="st2" d="M128,182.855L128,182.855c-4.716,0-8.538-3.823-8.538-8.538v-15.729h17.077v15.729
			C136.538,179.033,132.716,182.855,128,182.855z"/>
	</g>
	<g>
		<path class="st0" d="M128,185.855c-6.362,0-11.538-5.176-11.538-11.538v-15.729c0-1.657,1.343-3,3-3h17.076c1.657,0,3,1.343,3,3
			v15.729C139.538,180.68,134.362,185.855,128,185.855z M122.462,161.588v12.729c0,3.054,2.484,5.538,5.538,5.538
			s5.538-2.484,5.538-5.538v-12.729H122.462z"/>
	</g>
	<g>
		<path class="st2" d="M128,169.274L128,169.274c-10.81,0-19.573-8.763-19.573-19.573v-12.783c0-10.81,8.763-19.573,19.573-19.573h0
			c10.81,0,19.573,8.763,19.573,19.573V149.7C147.573,160.511,138.81,169.274,128,169.274z"/>
	</g>
	<g>
		<path class="st0" d="M128,172.273c-12.447,0-22.573-10.126-22.573-22.573v-12.782c0-12.447,10.126-22.573,22.573-22.573
			s22.573,10.126,22.573,22.573V149.7C150.573,162.147,140.447,172.273,128,172.273z M128,120.345
			c-9.139,0-16.573,7.435-16.573,16.573V149.7c0,9.139,7.435,16.573,16.573,16.573s16.573-7.435,16.573-16.573v-12.782
			C144.573,127.779,137.139,120.345,128,120.345z"/>
	</g>
</g>
</svg>
