<?xml version="1.0" encoding="UTF-8"?>
<!DOCTYPE svg PUBLIC "-//W3C//DTD SVG 1.1//EN" "http://www.w3.org/Graphics/SVG/1.1/DTD/svg11.dtd">
<!-- Creator: CorelDRAW -->
<svg xmlns="http://www.w3.org/2000/svg" xml:space="preserve" width="6.82666in" height="6.82666in" style="shape-rendering:geometricPrecision; text-rendering:geometricPrecision; image-rendering:optimizeQuality; fill-rule:evenodd; clip-rule:evenodd"
viewBox="0 0 6.82666 6.82666"
 xmlns:xlink="http://www.w3.org/1999/xlink">
 <defs>
  <style type="text/css">
   <![CDATA[
    .fil0 {fill:#8BC34A}
    .fil2 {fill:#FFFFFE}
    .fil1 {fill:#FFFFFE;fill-rule:nonzero}
   ]]>
  </style>
 </defs>
 <g id="Layer_x0020_1">
  <metadata id="CorelCorpID_0Corel-Layer"/>
  <rect class="fil0" width="6.82666" height="6.82666" rx="0.853335" ry="0.853335"/>
  <polygon class="fil1" points="2.02698,3.61061 2.02698,4.26666 1.92031,4.26666 1.92031,3.61061 "/>
  <polygon class="fil1" points="4.91385,3.61061 4.91385,4.26666 4.80719,4.26666 4.80719,3.61061 "/>
  <path class="fil2" d="M2.03456 1.59389c0.122374,0 0.239949,0.0193937 0.349531,0.0550315 0.13289,-0.418634 0.54337,-0.723681 1.02924,-0.723681 0.48587,0 0.896354,0.305047 1.02924,0.723685 0.109587,-0.0356417 0.227161,-0.0550354 0.349535,-0.0550354 0.593461,0 1.07456,0.455051 1.07456,1.01639 0,0.561339 -0.481094,1.01639 -1.07456,1.01639 -1.05345,0 -1.7041,0 -2.75756,0 -0.593465,0 -1.07456,-0.455051 -1.07456,-1.01639 0,-0.561335 0.481094,-1.01639 1.07456,-1.01639z"/>
  <g id="_457593816">
   <polygon id="_457594056" class="fil1" points="4.92689,5.58775 4.92689,5.86601 5.06156,5.86601 5.06156,5.99876 4.65949,5.99876 4.65949,5.86601 4.79415,5.86601 4.79415,5.58775 "/>
   <path id="_457593984" class="fil2" d="M3.82709 4.26666l2.06686 0c0.0275906,0 0.0501654,0.0253898 0.0501654,0.0563819l0 1.27063c0,0.0309921 -0.0225945,0.0563819 -0.0501654,0.0563819l-2.06686 0c-0.0275709,0 -0.0501654,-0.0253701 -0.0501654,-0.0563819l0 -1.27063c0,-0.0310079 0.0225709,-0.0563819 0.0501654,-0.0563819z"/>
  </g>
  <g id="_457601256">
   <polygon id="_457601208" class="fil1" points="2.04002,5.58775 2.04002,5.86601 2.17469,5.86601 2.17469,5.99876 1.77262,5.99876 1.77262,5.86601 1.90728,5.86601 1.90728,5.58775 "/>
   <path id="_457601496" class="fil2" d="M0.94022 4.26666l2.06686 0c0.0275906,0 0.0501654,0.0253898 0.0501654,0.0563819l0 1.27063c0,0.0309921 -0.0225945,0.0563819 -0.0501654,0.0563819l-2.06686 0c-0.0275709,0 -0.0501654,-0.0253701 -0.0501654,-0.0563819l0 -1.27063c0,-0.0310079 0.0225709,-0.0563819 0.0501654,-0.0563819z"/>
  </g>
 </g>
</svg>
