<?xml version="1.0" encoding="UTF-8"?>
<!DOCTYPE svg PUBLIC "-//W3C//DTD SVG 1.1//EN" "http://www.w3.org/Graphics/SVG/1.1/DTD/svg11.dtd">
<!-- Creator: CorelDRAW -->
<svg xmlns="http://www.w3.org/2000/svg" xml:space="preserve" width="6.82666in" height="6.82666in" style="shape-rendering:geometricPrecision; text-rendering:geometricPrecision; image-rendering:optimizeQuality; fill-rule:evenodd; clip-rule:evenodd"
viewBox="0 0 6.82666 6.82666"
 xmlns:xlink="http://www.w3.org/1999/xlink">
 <defs>
  <style type="text/css">
   <![CDATA[
    .fil0 {fill:#FF9800}
    .fil1 {fill:#FFFFFE}
   ]]>
  </style>
 </defs>
 <g id="Layer_x0020_1">
  <metadata id="CorelCorpID_0Corel-Layer"/>
  <rect class="fil0" width="6.82666" height="6.82666" rx="0.853335" ry="0.853335"/>
  <g id="_305263408">
   <path id="_305263312" class="fil1" d="M2.34919 3.81926c-0.0301772,0 -0.058626,0.0119449 -0.0799449,0.0332638 -0.0213189,0.021315 -0.0332638,0.0497717 -0.0332638,0.0799449l0 1.37359c0,0.0301772 0.0119528,0.058622 0.0332717,0.0799409 0.021311,0.021315 0.0497677,0.0332677 0.079937,0.0332677l2.1283 0c0.0301693,0 0.058622,-0.0119606 0.0799331,-0.0332756 0.021315,-0.021311 0.0332756,-0.0497638 0.0332756,-0.0799331l0 -1.37359c0,-0.0301693 -0.0119528,-0.058626 -0.0332677,-0.079937 -0.0213189,-0.0213189 -0.0497638,-0.0332717 -0.0799409,-0.0332717l-2.1283 0zm1.34415 0.800004l-0.28 0.161657 -0.280004 0.161661 0 -0.323319 0 -0.323319 0.280004 0.161661 0.28 0.161657z"/>
   <path id="_305262904" class="fil1" d="M1.97461 2.17321c0.127697,0 0.250386,0.0222087 0.364732,0.0630276 0.138665,-0.479476 0.566992,-0.828846 1.07399,-0.828846 0.506996,0 0.935323,0.34937 1.07399,0.82885 0.114354,-0.0408189 0.237039,-0.0630315 0.36474,-0.0630315 0.61926,0 1.12127,0.521177 1.12127,1.16409 0,0.642913 -0.502012,1.16409 -1.12127,1.16409l-0.154705 0 0 -0.568917c0,-0.0605591 -0.0247087,-0.115563 -0.0645118,-0.155366 -0.0397992,-0.0397913 -0.0947874,-0.0645079 -0.155362,-0.0645079l-2.1283 0c-0.0605748,0 -0.115567,0.0247087 -0.15537,0.0645039 -0.0397953,0.0398031 -0.0645039,0.0948031 -0.0645039,0.15537l0 0.568917 -0.154705 0c-0.619264,0 -1.12128,-0.521181 -1.12128,-1.16409 0,-0.642909 0.502012,-1.16409 1.12128,-1.16409z"/>
  </g>
 </g>
</svg>
