<?xml version="1.0" encoding="UTF-8"?>
<!DOCTYPE svg PUBLIC "-//W3C//DTD SVG 1.1//EN" "http://www.w3.org/Graphics/SVG/1.1/DTD/svg11.dtd">
<!-- Creator: CorelDRAW -->
<svg xmlns="http://www.w3.org/2000/svg" xml:space="preserve" width="6.82666in" height="6.82666in" style="shape-rendering:geometricPrecision; text-rendering:geometricPrecision; image-rendering:optimizeQuality; fill-rule:evenodd; clip-rule:evenodd"
viewBox="0 0 6.82666 6.82666"
 xmlns:xlink="http://www.w3.org/1999/xlink">
 <defs>
  <style type="text/css">
   <![CDATA[
    .fil0 {fill:#42A5F5}
    .fil1 {fill:#FFFFFE}
   ]]>
  </style>
 </defs>
 <g id="Layer_x0020_1">
  <metadata id="CorelCorpID_0Corel-Layer"/>
  <rect class="fil0" width="6.82666" height="6.82666" rx="0.853335" ry="0.853335"/>
  <path class="fil1" d="M1.97461 2.63215c0.127697,0 0.250382,0.0222126 0.364728,0.0630315 0.138669,-0.479472 0.566996,-0.828846 1.074,-0.828846 0.506996,0 0.935323,0.349374 1.07399,0.82885 0.114358,-0.0408189 0.237039,-0.0630354 0.36474,-0.0630354 0.61926,0 1.12127,0.521181 1.12127,1.16409 0,0.642909 -0.502012,1.16409 -1.12127,1.16409 -1.09926,0 -1.77819,0 -2.87745,0 -0.619264,0 -1.12128,-0.521181 -1.12128,-1.16409 0,-0.642913 0.502012,-1.16409 1.12128,-1.16409zm1.96993 1.67711l-0.531201 -0.500512 -0.531201 0.500512 -0.145835 -0.155 0.521866 -0.491717 -0.521866 -0.491717 0.145835 -0.155 0.531201 0.500512 0.531201 -0.500512 0.145835 0.155 -0.521866 0.491717 0.521866 0.491717 -0.145835 0.155z"/>
 </g>
</svg>
