<?xml version="1.0" encoding="UTF-8"?>
<!DOCTYPE svg PUBLIC "-//W3C//DTD SVG 1.1//EN" "http://www.w3.org/Graphics/SVG/1.1/DTD/svg11.dtd">
<!-- Creator: CorelDRAW -->
<svg xmlns="http://www.w3.org/2000/svg" xml:space="preserve" width="6.82666in" height="6.82666in" style="shape-rendering:geometricPrecision; text-rendering:geometricPrecision; image-rendering:optimizeQuality; fill-rule:evenodd; clip-rule:evenodd"
viewBox="0 0 6.82666 6.82666"
 xmlns:xlink="http://www.w3.org/1999/xlink">
 <defs>
  <style type="text/css">
   <![CDATA[
    .fil0 {fill:#607D8B}
    .fil1 {fill:#FFFFFE}
    .fil2 {fill:#FFFFFE;fill-rule:nonzero}
   ]]>
  </style>
 </defs>
 <g id="Layer_x0020_1">
  <metadata id="CorelCorpID_0Corel-Layer"/>
  <rect class="fil0" width="6.82666" height="6.82666" rx="0.853335" ry="0.853335"/>
  <g id="_461094768">
   <path id="_461095080" class="fil1" d="M1.21376 3.06315l4.39915 0c0.0724449,0 0.131709,0.0596142 0.131709,0.132457l0 2.3313c0,0.0728425 -0.0592756,0.132457 -0.131709,0.132457l-4.39915 0c-0.0724331,0 -0.131709,-0.0596024 -0.131709,-0.132457l0 -2.3313c0,-0.0728543 0.0592638,-0.132457 0.131709,-0.132457zm-0.184697 2.69824c-0.0585197,0 -0.105969,0.0474488 -0.105969,0.105972 0,0.0585236 0.0474488,0.105969 0.105969,0.105969l4.76854 0c0.0585197,0 0.105969,-0.0474449 0.105969,-0.105969 0,-0.0585236 -0.0474488,-0.105972 -0.105969,-0.105972l-4.76854 0z"/>
   <g>
    <path id="_461095320" class="fil1" d="M4.57413 1.52751l0 3.93701e-006c0.305035,0 0.552315,0.24728 0.552315,0.552315 0,0.305035 -0.24728,0.414236 -0.552315,0.414236 -0.223988,0 -0.883795,-3.93701e-006 -2.20926,-3.93701e-006 -0.305039,0 -0.552315,-0.24728 -0.552315,-0.552315 0,-0.305035 0.247276,-0.552315 0.552315,-0.552315 0.0522126,0 0.102728,0.00724803 0.150602,0.0207874 0.0522638,-0.709374 1.99664,-0.814724 2.05866,0.117291z"/>
    <polygon id="_461095608" class="fil2" points="3.57546,2.4764 3.57546,2.92137 3.36352,2.92137 3.36352,2.4764 "/>
   </g>
  </g>
 </g>
</svg>
