<?xml version="1.0" encoding="UTF-8"?>
<!DOCTYPE svg PUBLIC "-//W3C//DTD SVG 1.1//EN" "http://www.w3.org/Graphics/SVG/1.1/DTD/svg11.dtd">
<!-- Creator: CorelDRAW -->
<svg xmlns="http://www.w3.org/2000/svg" xml:space="preserve" width="6.82666in" height="6.82666in" style="shape-rendering:geometricPrecision; text-rendering:geometricPrecision; image-rendering:optimizeQuality; fill-rule:evenodd; clip-rule:evenodd"
viewBox="0 0 6.82666 6.82666"
 xmlns:xlink="http://www.w3.org/1999/xlink">
 <defs>
  <style type="text/css">
   <![CDATA[
    .fil0 {fill:#8BC34A}
    .fil1 {fill:#FFFFFE}
   ]]>
  </style>
 </defs>
 <g id="Layer_x0020_1">
  <metadata id="CorelCorpID_0Corel-Layer"/>
  <rect class="fil0" width="6.82666" height="6.82666" rx="0.853335" ry="0.853335"/>
  <path class="fil1" d="M2.77333 0.858689l3.2 0 0 4.37333 -2.90434 0 -0.0266811 -0.0266811 0 0c0.0202165,-0.0359843 0.0383071,-0.0731614 0.0541024,-0.111295 0.0157047,-0.0379055 0.0291969,-0.0767244 0.0403543,-0.116209l0.154705 -3.93701e-006c0.0579094,0 0.112972,-0.0229685 0.153906,-0.0638976 0.0409331,-0.040937 0.0639055,-0.096 0.0639055,-0.153917l0 -0.13337c0,-0.0579134 -0.0229685,-0.112988 -0.0639016,-0.153921 -0.0409331,-0.0409291 -0.096,-0.0638976 -0.153909,-0.0638976l-0.154709 0 0 -3.93701e-006c-0.0111575,-0.0394843 -0.0246496,-0.0783071 -0.0403543,-0.116217 -0.0157992,-0.038126 -0.0338858,-0.0753031 -0.0540984,-0.111287l0.109543 -0.109547c0.0409449,-0.0409449 0.0636693,-0.0961142 0.0636693,-0.154004 0,-0.0578898 -0.0227205,-0.113059 -0.0636693,-0.154008l-0.094311 -0.0943071c-0.0409488,-0.0409449 -0.0961181,-0.0636693 -0.154008,-0.0636693 -0.0473071,0 -0.0928031,0.0151772 -0.130201,0.0430748l0 -2.79017zm0.459358 0.77002l2.28129 0 0 0.213339 -2.28129 0 0 -0.213339zm0 1.21334l2.28129 0 0 0.213339 -2.28129 0 0 -0.213339zm0.237421 1.21334l2.04387 0 0 0.213339 -2.04387 0 0 -0.213339z"/>
  <path class="fil1" d="M1.14751 3.90802l0 0.00975984c-3.93701e-006,0.0294882 0.0110827,0.0576496 0.0320079,0.0785709l0.166713 0.166717 -0.0395984 0.0704921c-0.0181378,0.0322913 -0.0343661,0.0656457 -0.0485433,0.0998661 -0.0141102,0.0340551 -0.0262402,0.0689213 -0.0362598,0.104398l-0.0219409 0.0776693 -0.235409 0c-0.029626,0 -0.0575591,0.0117283 -0.0784843,0.0326575 -0.0209331,0.0209291 -0.0326614,0.0488661 -0.0326614,0.0784961l0 0.13337c0,0.0296299 0.0117323,0.057563 0.0326654,0.0784921 0.0209252,0.0209291 0.0488583,0.0326575 0.0784803,0.0326575l0.235402 0 0.0219449 0.0776614c0.0100197,0.0354606 0.0221496,0.0703189 0.036252,0.104362 0.0141811,0.0342323 0.0304173,0.0676063 0.048563,0.0999094l0.0396024 0.0704921 -0.166724 0.166717c-0.0209488,0.0209488 -0.0324252,0.0489803 -0.0324252,0.0785827 0,0.0296024 0.0114803,0.0576378 0.0324291,0.0785866l0.0943071 0.094311c0.0209488,0.0209488 0.0489803,0.0324252 0.0785827,0.0324252 0.0296024,0 0.0576339,-0.0114803 0.0785827,-0.0324291l0.166713 -0.166713 0.0704921 0.0396024c0.0322992,0.0181457 0.0656654,0.034378 0.0998898,0.0485551 0.0340512,0.0141063 0.0689134,0.0262323 0.104382,0.0362559l0.0776654 0.0219409 0 0.235402c0,0.029626 0.0117283,0.0575591 0.0326575,0.0784843 0.0209291,0.0209331 0.0488661,0.0326614 0.0784961,0.0326614l0.13337 0c0.0296299,0 0.057563,-0.0117323 0.0784921,-0.0326654 0.0209291,-0.0209252 0.0326575,-0.0488583 0.0326575,-0.0784803l0 -0.235398 0.0776614 -0.0219449c0.0354646,-0.0100236 0.0703268,-0.0221496 0.104374,-0.0362559 0.0342323,-0.0141811 0.0676024,-0.0304173 0.0999055,-0.048563l0.0704882 -0.0395945 0.166717 0.166713c0.0209213,0.0209252 0.0490827,0.0320118 0.0785709,0.0320079l0.00975591 0c0.0259646,-0.00223622 0.0502047,-0.0133819 0.0688386,-0.0320118l0.094311 -0.0943071c0.0209449,-0.0209449 0.0324252,-0.0489843 0.0324252,-0.0785827 0,-0.0296024 -0.0114803,-0.0576339 -0.0324291,-0.0785827l-0.166713 -0.166717 0.0395984 -0.0704921c0.0181378,-0.0322953 0.034378,-0.0656535 0.0485551,-0.099878 0.0141063,-0.0340512 0.0262323,-0.0689173 0.036252,-0.10439l0.0219449 -0.0776654 0.235406 0c0.029622,0 0.0575551,-0.0117283 0.0784803,-0.0326575 0.0209331,-0.0209291 0.0326654,-0.0488622 0.0326654,-0.0784921l0 -0.13337c0,-0.0296299 -0.0117283,-0.0575669 -0.0326614,-0.0784961 -0.0209252,-0.0209291 -0.0488583,-0.0326575 -0.0784843,-0.0326575l-0.235409 0 -0.0219449 -0.0776654c-0.0100197,-0.0354724 -0.0221417,-0.0703386 -0.036252,-0.10439 -0.0141772,-0.0342205 -0.0304134,-0.0675827 -0.0485512,-0.099878l-0.0395984 -0.0704921 0.166713 -0.166717c0.0209488,-0.0209488 0.0324291,-0.0489803 0.0324291,-0.0785827 0,-0.0296024 -0.0114764,-0.0576339 -0.0324252,-0.0785827l-0.094311 -0.0943071c-0.0209488,-0.0209488 -0.0489843,-0.0324291 -0.0785866,-0.0324291 -0.0295984,0 -0.0576378,0.0114803 -0.0785827,0.0324252l-0.166713 0.16672 -0.0704961 -0.0396024c-0.0322913,-0.0181417 -0.0656496,-0.0343701 -0.0998701,-0.0485472 -0.0340551,-0.0141102 -0.0689291,-0.0262362 -0.104406,-0.0362598l-0.0776575 -0.0219449 0 -0.235406c0,-0.029622 -0.0117283,-0.0575551 -0.0326575,-0.0784803 -0.0209291,-0.0209331 -0.0488622,-0.0326654 -0.0784921,-0.0326654l-0.13337 0c-0.0296299,0 -0.0575669,0.0117283 -0.0784961,0.0326614 -0.0209291,0.0209252 -0.0326575,0.0488583 -0.0326575,0.0784843l0 0.235409 -0.0776693 0.0219409c-0.0354606,0.0100157 -0.070315,0.0221417 -0.104358,0.0362441 -0.0342283,0.0141811 -0.0675984,0.0304173 -0.0999016,0.048563l-0.0704921 0.0395984 -0.16672 -0.166717c-0.0209488,-0.0209488 -0.0489803,-0.0324291 -0.0785827,-0.0324291 -0.0296024,0 -0.0576339,0.0114764 -0.0785827,0.0324252l-0.0943071 0.094311c-0.0186339,0.0186378 -0.0297756,0.042874 -0.0320118,0.0688386zm0.980465 0.146461c0.176402,0 0.336114,0.0715157 0.451728,0.187122 0.115606,0.115614 0.187122,0.275327 0.187122,0.451728 0,0.176402 -0.0715157,0.336122 -0.187122,0.451728 -0.115614,0.115614 -0.275327,0.187122 -0.451728,0.187122 -0.176402,0 -0.336122,-0.0715079 -0.451728,-0.187122 -0.115614,-0.115606 -0.187122,-0.275327 -0.187122,-0.451728 0,-0.176402 0.0715079,-0.336114 0.187122,-0.451728 0.115606,-0.115606 0.275327,-0.187122 0.451728,-0.187122z"/>
  <path class="fil1" d="M1.29405 1.90319l0 0.00594094c0,0.0179488 0.00674803,0.0350906 0.0194843,0.0478228l0.101472 0.101476 -0.0241024 0.0429055c-0.0110394,0.0196535 -0.0209173,0.0399567 -0.0295472,0.0607874 -0.00859055,0.0207283 -0.0159724,0.0419488 -0.0220709,0.0635433l-0.0133543 0.0472717 -0.143287 0c-0.0180315,0 -0.0350315,0.00714173 -0.0477717,0.019878 -0.0127402,0.0127402 -0.019878,0.0297441 -0.019878,0.0477795l0 0.0811772c0,0.0180354 0.00714173,0.0350354 0.0198819,0.0477756 0.0127362,0.0127402 0.0297402,0.019878 0.0477677,0.019878l0.143283 0 0.0133543 0.0472717c0.00609843,0.0215827 0.0134843,0.0427992 0.0220669,0.0635197 0.00862992,0.0208346 0.0185157,0.0411496 0.0295591,0.060811l0.0241063 0.0429055 -0.10148 0.101476c-0.012752,0.012752 -0.0197362,0.029815 -0.0197362,0.0478307 0,0.0180197 0.00698819,0.0350827 0.0197362,0.0478346l0.0574016 0.0574016c0.012752,0.012752 0.029815,0.0197362 0.0478307,0.0197362 0.0180197,0 0.0350827,-0.00698819 0.0478307,-0.0197362l0.101472 -0.101472 0.0429094 0.0241024c0.0196575,0.0110472 0.0399646,0.0209252 0.0607992,0.0295551 0.0207244,0.00858661 0.0419449,0.0159685 0.0635315,0.0220669l0.0472717 0.0133543 0 0.143283c0,0.0180315 0.00714173,0.0350315 0.019878,0.0477677 0.0127402,0.0127441 0.0297441,0.0198819 0.0477795,0.0198819l0.0811772 0c0.0180354,0 0.0350354,-0.00714173 0.0477756,-0.0198819 0.0127402,-0.0127362 0.019878,-0.0297402 0.019878,-0.0477677l0 -0.14328 0.0472717 -0.0133583c0.0215827,-0.00609843 0.0428031,-0.0134803 0.0635276,-0.0220669 0.0208346,-0.00862992 0.0411457,-0.0185157 0.0608071,-0.0295591l0.0429055 -0.0240984 0.101476 0.101472c0.0127323,0.0127362 0.029874,0.0194843 0.0478228,0.0194803l0.00593701 0c0.0158031,-0.0013622 0.0305591,-0.00814567 0.0419016,-0.0194843l0.0574016 -0.0574016c0.012748,-0.012748 0.0197362,-0.029815 0.0197362,-0.0478307 0,-0.0180157 -0.00698819,-0.0350787 -0.0197362,-0.0478307l-0.101472 -0.101476 0.0241024 -0.0429055c0.0110394,-0.0196575 0.0209252,-0.0399606 0.0295512,-0.0607913 0.00858661,-0.0207244 0.0159685,-0.0419488 0.0220669,-0.0635394l0.0133583 -0.0472717 0.143283 0c0.0180276,0 0.0350315,-0.0071378 0.0477677,-0.019878 0.0127402,-0.0127402 0.0198819,-0.0297402 0.0198819,-0.0477756l0 -0.0811772c0,-0.0180354 -0.0071378,-0.0350394 -0.0198819,-0.0477795 -0.0127362,-0.0127362 -0.0297362,-0.019878 -0.0477677,-0.019878l-0.143287 0 -0.0133583 -0.0472717c-0.00609843,-0.0215906 -0.0134764,-0.042811 -0.022063,-0.0635394 -0.00862992,-0.0208268 -0.0185118,-0.0411339 -0.0295512,-0.0607913l-0.0241024 -0.0429055 0.101472 -0.101476c0.012748,-0.012748 0.0197362,-0.029811 0.0197362,-0.0478307 0,-0.0180157 -0.00698425,-0.0350787 -0.0197362,-0.0478307l-0.0574016 -0.0574016c-0.012752,-0.012748 -0.029815,-0.0197362 -0.0478346,-0.0197362 -0.0180157,0 -0.0350827,0.00698819 -0.0478307,0.0197362l-0.101472 0.101476 -0.0429094 -0.0241063c-0.0196535,-0.0110394 -0.0399567,-0.0209173 -0.0607874,-0.0295472 -0.0207283,-0.00859055 -0.0419528,-0.0159685 -0.0635472,-0.0220709l-0.0472677 -0.0133583 0 -0.143283c0,-0.0180276 -0.0071378,-0.0350315 -0.019878,-0.0477677 -0.0127402,-0.0127402 -0.0297402,-0.0198819 -0.0477756,-0.0198819l-0.0811772 0c-0.0180354,0 -0.0350394,0.0071378 -0.0477795,0.019878 -0.0127362,0.0127402 -0.019878,0.0297402 -0.019878,0.0477717l0 0.143287 -0.0472717 0.0133543c-0.0215866,0.00609449 -0.0427992,0.0134764 -0.0635197,0.0220591 -0.0208346,0.00863386 -0.0411457,0.0185157 -0.0608071,0.0295591l-0.0429055 0.0241024 -0.10148 -0.101472c-0.012748,-0.012752 -0.029811,-0.0197402 -0.0478307,-0.0197402 -0.0180157,0 -0.0350787,0.00698425 -0.0478307,0.0197362l-0.0574016 0.0574055c-0.0113425,0.0113425 -0.018122,0.0260945 -0.0194843,0.0418976zm0.596776 0.0891457c0.10737,0 0.204583,0.0435315 0.274953,0.113898 0.0703661,0.0703701 0.113898,0.167583 0.113898,0.274949 0,0.10737 -0.0435315,0.204587 -0.113898,0.274953 -0.0703701,0.0703701 -0.167583,0.113898 -0.274953,0.113898 -0.107366,0 -0.204583,-0.0435276 -0.274949,-0.113898 -0.070374,-0.0703661 -0.113898,-0.167583 -0.113898,-0.274953 0,-0.107366 0.0435236,-0.204579 0.113898,-0.274949 0.0703661,-0.0703661 0.167583,-0.113898 0.274949,-0.113898z"/>
 </g>
</svg>
