<?xml version="1.0" encoding="UTF-8"?>
<!DOCTYPE svg PUBLIC "-//W3C//DTD SVG 1.1//EN" "http://www.w3.org/Graphics/SVG/1.1/DTD/svg11.dtd">
<!-- Creator: CorelDRAW -->
<svg xmlns="http://www.w3.org/2000/svg" xml:space="preserve" width="6.82666in" height="6.82666in" style="shape-rendering:geometricPrecision; text-rendering:geometricPrecision; image-rendering:optimizeQuality; fill-rule:evenodd; clip-rule:evenodd"
viewBox="0 0 6.82666 6.82666"
 xmlns:xlink="http://www.w3.org/1999/xlink">
 <defs>
  <style type="text/css">
   <![CDATA[
    .fil0 {fill:#AB47BC}
    .fil1 {fill:#FFFFFE}
   ]]>
  </style>
 </defs>
 <g id="Layer_x0020_1">
  <metadata id="CorelCorpID_0Corel-Layer"/>
  <rect class="fil0" width="6.82666" height="6.82666" rx="0.853335" ry="0.853335"/>
  <path class="fil1" d="M1.42222 1.59289l1.13778 0 0 0.56889 3.41334 0 0 3.072 -5.12 0 0 -3.072 0.568886 0 0 -0.56889zm0.853335 1.16621l2.27556 0 0 0.455114 -2.27556 0 0 -0.455114zm0 1.39012l2.27556 0 0 0.455114 -2.27556 0 0 -0.455114zm0.568894 0.158677c0.0380394,0 0.068878,0.0308425 0.068878,0.0688819 0,0.0380394 -0.0308386,0.068878 -0.068878,0.068878 -0.0380394,0 -0.0688819,-0.0308386 -0.0688819,-0.068878 0,-0.0380394 0.0308425,-0.0688819 0.0688819,-0.0688819zm-0.246638 0c0.0380354,0 0.068878,0.0308425 0.068878,0.0688819 0,0.0380394 -0.0308425,0.068878 -0.068878,0.068878 -0.0380394,0 -0.0688819,-0.0308386 -0.0688819,-0.068878 0,-0.0380394 0.0308425,-0.0688819 0.0688819,-0.0688819zm-0.322256 -0.853736l2.27556 0 0 0.455114 -2.27556 0 0 -0.455114zm0.568894 0.158677c0.0380394,0 0.068878,0.0308425 0.068878,0.0688819 0,0.0380394 -0.0308386,0.068878 -0.068878,0.068878 -0.0380394,0 -0.0688819,-0.0308386 -0.0688819,-0.068878 0,-0.0380394 0.0308425,-0.0688819 0.0688819,-0.0688819zm-0.246638 0c0.0380354,0 0.068878,0.0308425 0.068878,0.0688819 0,0.0380394 -0.0308425,0.068878 -0.068878,0.068878 -0.0380394,0 -0.0688819,-0.0308386 -0.0688819,-0.068878 0,-0.0380394 0.0308425,-0.0688819 0.0688819,-0.0688819zm0.246638 -0.695059c0.0380394,0 0.068878,0.0308425 0.068878,0.0688819 0,0.0380354 -0.0308386,0.068878 -0.068878,0.068878 -0.0380394,0 -0.0688819,-0.0308425 -0.0688819,-0.068878 0,-0.0380394 0.0308425,-0.0688819 0.0688819,-0.0688819zm-0.246638 0c0.0380354,0 0.068878,0.0308425 0.068878,0.0688819 0,0.0380354 -0.0308425,0.068878 -0.068878,0.068878 -0.0380394,0 -0.0688819,-0.0308425 -0.0688819,-0.068878 0,-0.0380394 0.0308425,-0.0688819 0.0688819,-0.0688819z"/>
 </g>
</svg>
