<?xml version="1.0" encoding="UTF-8"?>
<!DOCTYPE svg PUBLIC "-//W3C//DTD SVG 1.1//EN" "http://www.w3.org/Graphics/SVG/1.1/DTD/svg11.dtd">
<!-- Creator: CorelDRAW -->
<svg xmlns="http://www.w3.org/2000/svg" xml:space="preserve" width="6.82666in" height="6.82666in" style="shape-rendering:geometricPrecision; text-rendering:geometricPrecision; image-rendering:optimizeQuality; fill-rule:evenodd; clip-rule:evenodd"
viewBox="0 0 6.82666 6.82666"
 xmlns:xlink="http://www.w3.org/1999/xlink">
 <defs>
  <style type="text/css">
   <![CDATA[
    .fil0 {fill:#FF9800}
    .fil2 {fill:#FFFFFE}
    .fil1 {fill:#FFFFFE;fill-rule:nonzero}
   ]]>
  </style>
 </defs>
 <g id="Layer_x0020_1">
  <metadata id="CorelCorpID_0Corel-Layer"/>
  <rect class="fil0" width="6.82666" height="6.82666" rx="0.853335" ry="0.853335"/>
  <g id="_460872272">
   <path id="_460872584" class="fil1" d="M1.78931 4.09789l2.01011 0c0.0849724,0 0.153862,0.0688898 0.153862,0.153862l0 1.53572c0,0.0849724 -0.0688898,0.153862 -0.153862,0.153862l-2.79223 0c-0.0849724,0 -0.153862,-0.0688898 -0.153862,-0.153862l0 -1.88476c0,-0.0849724 0.0688898,-0.153862 0.153862,-0.153862l0.628252 0c0.0849724,0 0.153862,0.0688898 0.153862,0.153862l0 0.195169z"/>
   <g>
    <path id="_460872032" class="fil2" d="M3.58962 2.4754l2.38371 0 0 0.57478 -2.38371 0 0 -0.57478zm0.283311 0.209524c0.043,0 0.0778661,0.0348661 0.0778661,0.0778661 0,0.0430039 -0.0348661,0.0778661 -0.0778661,0.0778661 -0.0430039,0 -0.0778661,-0.0348622 -0.0778661,-0.0778661 0,-0.043 0.0348622,-0.0778661 0.0778661,-0.0778661zm0.324685 0c0.0430039,0 0.0778661,0.0348661 0.0778661,0.0778661 0,0.0430039 -0.0348622,0.0778661 -0.0778661,0.0778661 -0.043,0 -0.0778661,-0.0348622 -0.0778661,-0.0778661 0,-0.043 0.0348661,-0.0778661 0.0778661,-0.0778661z"/>
    <polygon id="_460871888" class="fil1" points="3.95328,4.89786 4.87204,4.89786 4.87204,2.98305 5.0923,2.98305 5.0923,5.00799 5.0923,5.11812 4.98217,5.11812 3.95328,5.11812 "/>
    <path id="_460872104" class="fil2" d="M3.58962 1.68036l2.38371 0 0 0.57478 -2.38371 0 0 -0.57478zm0.283311 0.209524c0.043,0 0.0778661,0.0348661 0.0778661,0.0778661 0,0.043 -0.0348661,0.0778661 -0.0778661,0.0778661 -0.0430039,0 -0.0778661,-0.0348661 -0.0778661,-0.0778661 0,-0.043 0.0348622,-0.0778661 0.0778661,-0.0778661zm0.324685 0c0.0430039,0 0.0778661,0.0348661 0.0778661,0.0778661 0,0.043 -0.0348622,0.0778661 -0.0778661,0.0778661 -0.043,0 -0.0778661,-0.0348661 -0.0778661,-0.0778661 0,-0.043 0.0348661,-0.0778661 0.0778661,-0.0778661z"/>
    <path id="_460872128" class="fil2" d="M3.58962 0.885319l2.38371 0 0 0.574783 -2.38371 0 0 -0.574783zm0.283311 0.209528c0.043,0 0.0778661,0.0348622 0.0778661,0.0778661 0,0.043 -0.0348661,0.0778661 -0.0778661,0.0778661 -0.0430039,0 -0.0778661,-0.0348661 -0.0778661,-0.0778661 0,-0.0430039 0.0348622,-0.0778661 0.0778661,-0.0778661zm0.324685 0c0.0430039,0 0.0778661,0.0348622 0.0778661,0.0778661 0,0.043 -0.0348622,0.0778661 -0.0778661,0.0778661 -0.043,0 -0.0778661,-0.0348661 -0.0778661,-0.0778661 0,-0.0430039 0.0348661,-0.0778661 0.0778661,-0.0778661z"/>
   </g>
  </g>
 </g>
</svg>
