<?xml version="1.0" encoding="UTF-8"?>
<!DOCTYPE svg PUBLIC "-//W3C//DTD SVG 1.1//EN" "http://www.w3.org/Graphics/SVG/1.1/DTD/svg11.dtd">
<!-- Creator: CorelDRAW -->
<svg xmlns="http://www.w3.org/2000/svg" xml:space="preserve" width="6.82666in" height="6.82666in" style="shape-rendering:geometricPrecision; text-rendering:geometricPrecision; image-rendering:optimizeQuality; fill-rule:evenodd; clip-rule:evenodd"
viewBox="0 0 6.82666 6.82666"
 xmlns:xlink="http://www.w3.org/1999/xlink">
 <defs>
  <style type="text/css">
   <![CDATA[
    .fil0 {fill:#FFCA28}
    .fil1 {fill:#FFFFFE}
   ]]>
  </style>
 </defs>
 <g id="Layer_x0020_1">
  <metadata id="CorelCorpID_0Corel-Layer"/>
  <rect class="fil0" width="6.82666" height="6.82666" rx="0.853335" ry="0.853335"/>
  <path class="fil1" d="M4.51487 0.876602l0.83022 0.83022 -0.83022 7.87402e-006 0 -0.830228zm-0.141543 2.20811l0 1.49333 -0.213339 0 0 -1.49333 0.213339 0zm-1.70666 -0.533331l0 2.02667 -0.213339 0 0 -2.02667 0.213339 0zm0.568886 0.533331l0 1.49333 -0.213339 0 0 -1.49333 0.213339 0zm0.568886 -0.533331l0 2.02667 -0.213339 0 0 -2.02667 0.213339 0zm-2.33894 -1.69805l2.93806 0 0 0.908937 0 0.0554409 0.0556535 -3.93701e-006 0.901941 -7.87402e-006 0 4.15563 -3.89565 0 0 -5.12z"/>
 </g>
</svg>
