<?xml version="1.0" encoding="UTF-8"?>
<!DOCTYPE svg PUBLIC "-//W3C//DTD SVG 1.1//EN" "http://www.w3.org/Graphics/SVG/1.1/DTD/svg11.dtd">
<!-- Creator: CorelDRAW -->
<svg xmlns="http://www.w3.org/2000/svg" xml:space="preserve" width="6.82666in" height="6.82666in" style="shape-rendering:geometricPrecision; text-rendering:geometricPrecision; image-rendering:optimizeQuality; fill-rule:evenodd; clip-rule:evenodd"
viewBox="0 0 6.82666 6.82666"
 xmlns:xlink="http://www.w3.org/1999/xlink">
 <defs>
  <style type="text/css">
   <![CDATA[
    .fil0 {fill:#00838F}
    .fil1 {fill:#FFFFFE}
    .fil2 {fill:#FFFFFE;fill-rule:nonzero}
   ]]>
  </style>
 </defs>
 <g id="Layer_x0020_1">
  <metadata id="CorelCorpID_0Corel-Layer"/>
  <rect class="fil0" width="6.82666" height="6.82666" rx="0.853335" ry="0.853335"/>
  <path class="fil1" d="M0.96187 4.12169c0.0135433,-0.192547 0.0604921,-0.375866 0.135189,-0.544169l0.636248 0c-0.0329764,0.184031 -0.0514843,0.36537 -0.0566181,0.544169l-0.714819 0zm0.947197 -0.544169l0.591138 0 0 0.544169 -0.650681 0c0.00542126,-0.17852 0.0248701,-0.35985 0.0595433,-0.544169zm0.764476 0l0.572417 0c0.0452835,0.184386 0.0706614,0.365717 0.0777402,0.544169l-0.650157 0 0 -0.544169zm0.750114 0l0.653031 0c0.0746969,0.168303 0.121646,0.351622 0.135189,0.544169l-0.715228 0c-0.00662205,-0.178854 -0.0304882,-0.360201 -0.0729921,-0.544169zm-2.23684 -0.173339c0.182941,-0.306693 0.46376,-0.548217 0.79935,-0.681437 -0.0951339,0.231252 -0.167067,0.458315 -0.217661,0.681437l-0.581689 0zm1.01729 -0.750559c0.12276,-0.0295669 0.250925,-0.0452638 0.382768,-0.0452638 0.0884173,0 0.175173,0.00708268 0.25976,0.0206535 0.156969,0.26439 0.27274,0.522634 0.351122,0.775169l-0.524213 0 0 -0.792642 -0.173339 0 0 0.792642 -0.554228 0c0.0582244,-0.244811 0.143398,-0.494866 0.25813,-0.750559zm0.871992 0.0295354c0.384772,0.12102 0.70798,0.380949 0.910835,0.721024l-0.608657 0c-0.069,-0.235937 -0.168787,-0.476181 -0.302177,-0.721024zm1.13881 1.61187c-0.00743701,0.213866 -0.0560394,0.417252 -0.138217,0.602469l-0.659276 0c0.0450433,-0.186476 0.0720591,-0.375929 0.0792323,-0.568559 0.00042126,-0.0112913 0.000751969,-0.0225945 0.00103543,-0.0339094l0.717224 0zm-0.975543 0.602469l-0.565819 0 0 -0.602469 0.651323 0c-0.000244094,0.00927953 -0.000535433,0.0185512 -0.00088189,0.027815 -0.00724803,0.194575 -0.0361614,0.386055 -0.084622,0.574654zm-0.739157 0l-0.586079 0c-0.0370787,-0.18835 -0.0592126,-0.379598 -0.0647953,-0.573976 -0.000271654,-0.00948819 -0.000503937,-0.0189882 -0.00069685,-0.0284921l0.651571 0 0 0.602469zm-0.762051 0l-0.641094 0c-0.0821772,-0.185217 -0.13078,-0.388602 -0.138217,-0.602469l0.717043 0c0.000216535,0.0110866 0.000464567,0.0221654 0.000783465,0.0332323 0.00553543,0.192839 0.0265079,0.382516 0.0614843,0.569236zm2.24878 0.173339c-0.206685,0.346528 -0.538354,0.609835 -0.932783,0.727752 0.133965,-0.237673 0.240705,-0.480094 0.315976,-0.727752l0.616807 0zm-1.16294 0.778638c-0.0774055,0.0113031 -0.156575,0.017185 -0.237118,0.017185 -0.125673,0 -0.248004,-0.0142835 -0.3655,-0.0412244 -0.114283,-0.246492 -0.20524,-0.497843 -0.268756,-0.754598l0.547587 0 0 0.792642 0.173339 0 0 -0.792642 0.515567 0c-0.0855591,0.265039 -0.209224,0.524398 -0.365118,0.778638zm-0.821539 -0.0908268c-0.342799,-0.131803 -0.629756,-0.376161 -0.815638,-0.687811l0.587992 0c0.0550787,0.23376 0.131898,0.462894 0.227646,0.687811z"/>
  <g id="_460878704">
   <polygon id="_460879400" class="fil2" points="4.78312,2.50576 4.78312,2.83134 4.94069,2.83134 4.94069,2.98666 4.47024,2.98666 4.47024,2.83134 4.6278,2.83134 4.6278,2.50576 "/>
   <path id="_460878776" class="fil1" d="M3.49628 0.959996l2.41835 0c0.0322874,0 0.0586969,0.0297126 0.0586969,0.0659724l0 1.48672c0,0.0362598 -0.0264331,0.0659724 -0.0586969,0.0659724l-2.41835 0c-0.0322638,0 -0.0586969,-0.029685 -0.0586969,-0.0659724l0 -1.48672c0,-0.0362795 0.0264055,-0.0659724 0.0586969,-0.0659724zm0.933972 0.743205l0 0.459252 -0.148496 0 0 -0.459252 0.148496 0zm0.698902 -0.326992l0 0.786244 -0.1485 0 0 -0.786244 0.1485 0zm-0.349453 0.174717l0 0.611528 -0.148496 0 0 -0.611528 0.148496 0z"/>
  </g>
 </g>
</svg>
