<?xml version="1.0" encoding="UTF-8"?>
<!DOCTYPE svg PUBLIC "-//W3C//DTD SVG 1.1//EN" "http://www.w3.org/Graphics/SVG/1.1/DTD/svg11.dtd">
<!-- Creator: CorelDRAW -->
<svg xmlns="http://www.w3.org/2000/svg" xml:space="preserve" width="6.82666in" height="6.82666in" style="shape-rendering:geometricPrecision; text-rendering:geometricPrecision; image-rendering:optimizeQuality; fill-rule:evenodd; clip-rule:evenodd"
viewBox="0 0 6.82666 6.82666"
 xmlns:xlink="http://www.w3.org/1999/xlink">
 <defs>
  <style type="text/css">
   <![CDATA[
    .fil0 {fill:#424242}
    .fil2 {fill:#FFFFFE}
    .fil1 {fill:#FFFFFE;fill-rule:nonzero}
   ]]>
  </style>
 </defs>
 <g id="Layer_x0020_1">
  <metadata id="CorelCorpID_0Corel-Layer"/>
  <rect class="fil0" width="6.82666" height="6.82666" rx="0.853335" ry="0.853335"/>
  <g id="_305270296">
   <path id="_305269744" class="fil1" d="M4.45728 3.55035l-2.08789 0 0 1.50302 0.570374 -0.543807 0.051563 -0.0491654 0.0502992 0.0503071 0.542398 0.542398 0.873256 -1.02355 0 -0.479205zm-1.04394 0.333913c0.122941,0 0.222606,0.0996654 0.222606,0.222606 0,0.122945 -0.0996654,0.22261 -0.222606,0.22261 -0.122945,0 -0.22261,-0.0996654 -0.22261,-0.22261 0,-0.122941 0.0996654,-0.222606 0.22261,-0.222606zm-1.04395 1.37044l0 0.67039 2.08789 0 0 -1.67106 -0.813776 0.953843 -0.0512323 0.0600472 -0.0557638 -0.0557677 -0.54787 -0.547866 -0.619248 0.590409z"/>
   <path id="_305269960" class="fil2" d="M1.97461 1.66738c0.127697,0 0.250386,0.0222087 0.364732,0.0630276 0.138665,-0.479472 0.566992,-0.828843 1.07399,-0.828843 0.506996,0 0.935323,0.34937 1.07399,0.828846 0.114354,-0.0408189 0.237039,-0.0630315 0.36474,-0.0630315 0.61926,0 1.12127,0.521181 1.12127,1.16409 0,0.642913 -0.502012,1.16409 -1.12127,1.16409l-0.270028 0 0 -0.44522 0 -0.111307 -0.111307 0 -2.11479 0 -0.111307 0 0 0.111307 0 0.44522 -0.270024 0c-0.619264,0 -1.12128,-0.521181 -1.12128,-1.16409 0,-0.642909 0.502012,-1.16409 1.12128,-1.16409z"/>
  </g>
 </g>
</svg>
