<?xml version="1.0" encoding="UTF-8"?>
<!DOCTYPE svg PUBLIC "-//W3C//DTD SVG 1.1//EN" "http://www.w3.org/Graphics/SVG/1.1/DTD/svg11.dtd">
<!-- Creator: CorelDRAW -->
<svg xmlns="http://www.w3.org/2000/svg" xml:space="preserve" width="6.82666in" height="6.82666in" style="shape-rendering:geometricPrecision; text-rendering:geometricPrecision; image-rendering:optimizeQuality; fill-rule:evenodd; clip-rule:evenodd"
viewBox="0 0 6.82666 6.82666"
 xmlns:xlink="http://www.w3.org/1999/xlink">
 <defs>
  <style type="text/css">
   <![CDATA[
    .fil0 {fill:#66BB6A}
    .fil1 {fill:#FFFFFE}
   ]]>
  </style>
 </defs>
 <g id="Layer_x0020_1">
  <metadata id="CorelCorpID_0Corel-Layer"/>
  <rect class="fil0" width="6.82666" height="6.82666" rx="0.853335" ry="0.853335"/>
  <path class="fil1" d="M1.61589 0.853335l3.59489 0 0 5.12 -3.59489 0 0 -5.12zm0.41078 0.64l2.77333 0 0 0.213339 -2.77333 0 0 -0.213339zm0.106669 1.38666l1.06667 0 0 1.6 -1.06667 0 0 -1.6zm1.48235 0l1.06667 0 0 1.6 -1.06667 0 0 -1.6zm-1.58902 2.24l2.77333 0 0 0.213339 -2.77333 0 0 -0.213339zm0 -2.98667l2.77333 0 0 0.213339 -2.77333 0 0 -0.213339z"/>
 </g>
</svg>
