<?xml version="1.0" encoding="UTF-8"?>
<!DOCTYPE svg PUBLIC "-//W3C//DTD SVG 1.1//EN" "http://www.w3.org/Graphics/SVG/1.1/DTD/svg11.dtd">
<!-- Creator: CorelDRAW -->
<svg xmlns="http://www.w3.org/2000/svg" xml:space="preserve" width="6.82666in" height="6.82666in" style="shape-rendering:geometricPrecision; text-rendering:geometricPrecision; image-rendering:optimizeQuality; fill-rule:evenodd; clip-rule:evenodd"
viewBox="0 0 6.82666 6.82666"
 xmlns:xlink="http://www.w3.org/1999/xlink">
 <defs>
  <style type="text/css">
   <![CDATA[
    .fil0 {fill:#66BB6A}
    .fil1 {fill:#FFFFFE}
   ]]>
  </style>
 </defs>
 <g id="Layer_x0020_1">
  <metadata id="CorelCorpID_0Corel-Layer"/>
  <rect class="fil0" width="6.82666" height="6.82666" rx="0.853335" ry="0.853335"/>
  <path class="fil1" d="M4.35069 1.61067l0 0.280248c-0.0549291,0.0332677 -0.206976,0.0735591 -0.424291,0.114811 -0.323154,0.0613465 -0.771921,0.0992913 -1.26968,0.0992913 -0.497756,0 -0.946524,-0.0379449 -1.26968,-0.0992913 -0.217315,-0.041252 -0.369362,-0.0815433 -0.424291,-0.114811l0 -0.280248c0,-0.452598 3.38794,-0.452598 3.38794,0zm0 0.493894l0 0.613567c-0.0549291,0.0332677 -0.206976,0.0735591 -0.424291,0.114811 -0.323154,0.0613465 -0.771921,0.0992913 -1.26968,0.0992913 -0.497756,0 -0.946524,-0.0379449 -1.26968,-0.0992913 -0.217315,-0.041252 -0.369362,-0.0815433 -0.424291,-0.114811l0 -0.613567c0.100937,0.0439646 0.231248,0.081122 0.385126,0.110331 0.336736,0.0639252 0.799634,0.103465 1.30884,0.103465 0.509209,0 0.972102,-0.0395394 1.30884,-0.103465 0.153878,-0.0292087 0.284189,-0.0663661 0.385126,-0.110331zm0 0.827213l0 0.613567c-0.0549291,0.0332677 -0.206976,0.0735591 -0.424291,0.114811 -0.323154,0.0613465 -0.771921,0.0992913 -1.26968,0.0992913 -0.497756,0 -0.946524,-0.0379449 -1.26968,-0.0992913 -0.217315,-0.041252 -0.369362,-0.0815433 -0.424291,-0.114811l0 -0.613567c0.100937,0.0439646 0.231248,0.081122 0.385126,0.110331 0.336736,0.0639252 0.799634,0.103465 1.30884,0.103465 0.509209,0 0.972102,-0.0395394 1.30884,-0.103465 0.153878,-0.0292087 0.284189,-0.0663661 0.385126,-0.110331zm0 0.827213l0 0.613567c-0.0549291,0.0332677 -0.206976,0.0735591 -0.424291,0.114811 -0.323154,0.0613465 -0.771921,0.0992913 -1.26968,0.0992913 -0.497756,0 -0.946524,-0.0379449 -1.26968,-0.0992913 -0.217315,-0.041252 -0.369362,-0.0815433 -0.424291,-0.114811l0 -0.613567c0.100937,0.0439646 0.231248,0.081122 0.385126,0.110331 0.336736,0.0639252 0.799634,0.103465 1.30884,0.103465 0.509209,0 0.972102,-0.0395394 1.30884,-0.103465 0.153878,-0.0292087 0.284189,-0.0663661 0.385126,-0.110331zm0 0.827213l0 0.629795c0,0.191157 -0.758413,0.346118 -1.69397,0.346118 -0.935555,0 -1.69397,-0.14428 -1.69397,-0.335437l0 -0.640476c0.100937,0.0439646 0.231248,0.081122 0.385126,0.110331 0.336736,0.0639252 0.799634,0.103465 1.30884,0.103465 0.509209,0 0.972102,-0.0395394 1.30884,-0.103465 0.153878,-0.0292087 0.284189,-0.0663661 0.385126,-0.110331z"/>
  <path class="fil1" d="M5.94794 2.1781l0 0.198646c-0.0389331,0.0235827 -0.146709,0.0521417 -0.300744,0.081378 -0.229059,0.0434843 -0.54715,0.0703819 -0.899972,0.0703819 -0.099811,0 -0.196843,-0.00215354 -0.289866,-0.00622441l0 -0.578406c0.679449,-0.0302795 1.49058,0.0477717 1.49058,0.234224zm0 0.350083l0 0.434906c-0.0389331,0.0235827 -0.146709,0.0521417 -0.300744,0.081378 -0.229059,0.0434843 -0.54715,0.0703819 -0.899972,0.0703819 -0.099811,0 -0.196843,-0.00215354 -0.289866,-0.00622441l0 -0.435071c0.0933386,0.00403543 0.19035,0.00616929 0.289866,0.00616929 0.360937,0 0.689043,-0.0280236 0.927732,-0.0733386 0.109071,-0.0207008 0.201437,-0.0470394 0.272984,-0.0782008zm0 0.586343l0 0.434906c-0.0389331,0.0235827 -0.146709,0.0521417 -0.300744,0.0813819 -0.229059,0.0434843 -0.54715,0.070378 -0.899972,0.070378 -0.099811,0 -0.196843,-0.00215354 -0.289866,-0.00622441l0 -0.435075c0.0933386,0.00403543 0.19035,0.00617323 0.289866,0.00617323 0.360937,0 0.689043,-0.0280276 0.927732,-0.0733386 0.109071,-0.0207047 0.201437,-0.0470394 0.272984,-0.0782008zm0 0.586343l0 0.434909c-0.0389331,0.0235787 -0.146709,0.0521339 -0.300744,0.081378 -0.229059,0.0434843 -0.54715,0.070378 -0.899972,0.070378 -0.099811,0 -0.196843,-0.00215354 -0.289866,-0.00622441l0 -0.435071c0.0933386,0.00403543 0.19035,0.00617323 0.289866,0.00617323 0.360937,0 0.689043,-0.0280276 0.927732,-0.0733386 0.109071,-0.0207047 0.201437,-0.0470433 0.272984,-0.0782047zm0 0.586343l0 0.446409c0,0.135496 -0.537579,0.245335 -1.20072,0.245335 -0.0999567,0 -0.197028,-0.00234252 -0.289866,-0.00675197l0 -0.539622c0.0933386,0.00403543 0.19035,0.00617323 0.289866,0.00617323 0.360937,0 0.689043,-0.0280276 0.927732,-0.0733386 0.109071,-0.0207047 0.201437,-0.0470433 0.272984,-0.0782047z"/>
 </g>
</svg>
