<?xml version="1.0" encoding="UTF-8"?>
<!DOCTYPE svg PUBLIC "-//W3C//DTD SVG 1.1//EN" "http://www.w3.org/Graphics/SVG/1.1/DTD/svg11.dtd">
<!-- Creator: CorelDRAW -->
<svg xmlns="http://www.w3.org/2000/svg" xml:space="preserve" width="6.82666in" height="6.82666in" style="shape-rendering:geometricPrecision; text-rendering:geometricPrecision; image-rendering:optimizeQuality; fill-rule:evenodd; clip-rule:evenodd"
viewBox="0 0 6.82666 6.82666"
 xmlns:xlink="http://www.w3.org/1999/xlink">
 <defs>
  <style type="text/css">
   <![CDATA[
    .fil0 {fill:#8BC34A}
    .fil1 {fill:#FFFFFE}
   ]]>
  </style>
 </defs>
 <g id="Layer_x0020_1">
  <metadata id="CorelCorpID_0Corel-Layer"/>
  <rect class="fil0" width="6.82666" height="6.82666" rx="0.853335" ry="0.853335"/>
  <g id="_460879568">
   <path id="_460880096" class="fil1" d="M5.48667 2.92061l0 2.1813c0,0.104268 -0.0853386,0.189606 -0.189606,0.189606l-0.151689 0c-0.104268,0 -0.189606,-0.0853228 -0.189606,-0.189606l0 -2.1813c-0.284378,-0.107303 -0.486657,-0.381941 -0.486657,-0.703866 0,-0.301614 0.177567,-0.561717 0.433843,-0.681591l0.074937 0.619937c0.014252,0.117957 0.0855591,0.216488 0.190098,0.216488l0.106457 0c0.104539,0 0.17585,-0.0985512 0.190102,-0.216488l0.0749331 -0.619937c0.25628,0.119874 0.433846,0.379976 0.433846,0.681591 0,0.321925 -0.20228,0.596563 -0.486657,0.703866z"/>
   <path id="_460879736" class="fil1" d="M0.853331 1.53672l3.13198 0 0 0.936917 -3.13198 0 0 -0.936917zm0.418736 0.356232c0.0619843,0 0.112232,0.050248 0.112232,0.112228 0,0.0619843 -0.050248,0.112232 -0.112232,0.112232 -0.0619803,0 -0.112228,-0.050248 -0.112228,-0.112232 0,-0.0619803 0.050248,-0.112228 0.112228,-0.112228zm0.958228 0c0.0619843,0 0.112232,0.050248 0.112232,0.112228 0,0.0619843 -0.050248,0.112232 -0.112232,0.112232 -0.0619803,0 -0.112228,-0.050248 -0.112228,-0.112232 0,-0.0619803 0.050248,-0.112228 0.112228,-0.112228zm-0.479114 0c0.0619843,0 0.112232,0.050248 0.112232,0.112228 0,0.0619843 -0.050248,0.112232 -0.112232,0.112232 -0.0619803,0 -0.112228,-0.050248 -0.112228,-0.112232 0,-0.0619803 0.050248,-0.112228 0.112228,-0.112228z"/>
   <path id="_460880240" class="fil1" d="M0.853331 2.87865l3.13198 0 0 0.936917 -3.13198 0 0 -0.936917zm0.418736 0.356232c0.0619843,0 0.112232,0.0502441 0.112232,0.112228 0,0.0619843 -0.050248,0.112228 -0.112232,0.112228 -0.0619803,0 -0.112228,-0.0502441 -0.112228,-0.112228 0,-0.0619843 0.050248,-0.112228 0.112228,-0.112228zm0.958228 0c0.0619843,0 0.112232,0.0502441 0.112232,0.112228 0,0.0619843 -0.050248,0.112228 -0.112232,0.112228 -0.0619803,0 -0.112228,-0.0502441 -0.112228,-0.112228 0,-0.0619843 0.050248,-0.112228 0.112228,-0.112228zm-0.479114 0c0.0619843,0 0.112232,0.0502441 0.112232,0.112228 0,0.0619843 -0.050248,0.112228 -0.112232,0.112228 -0.0619803,0 -0.112228,-0.0502441 -0.112228,-0.112228 0,-0.0619843 0.050248,-0.112228 0.112228,-0.112228z"/>
   <path id="_460879664" class="fil1" d="M0.853331 4.22057l3.13198 0 0 0.936917 -3.13198 0 0 -0.936917zm0.418736 0.356228c0.0619843,0 0.112232,0.050248 0.112232,0.112232 0,0.0619803 -0.050248,0.112228 -0.112232,0.112228 -0.0619803,0 -0.112228,-0.050248 -0.112228,-0.112228 0,-0.0619843 0.050248,-0.112232 0.112228,-0.112232zm0.958228 0c0.0619843,0 0.112232,0.050248 0.112232,0.112232 0,0.0619803 -0.050248,0.112228 -0.112232,0.112228 -0.0619803,0 -0.112228,-0.050248 -0.112228,-0.112228 0,-0.0619843 0.050248,-0.112232 0.112228,-0.112232zm-0.479114 0c0.0619843,0 0.112232,0.050248 0.112232,0.112232 0,0.0619803 -0.050248,0.112228 -0.112232,0.112228 -0.0619803,0 -0.112228,-0.050248 -0.112228,-0.112228 0,-0.0619843 0.050248,-0.112232 0.112228,-0.112232z"/>
  </g>
 </g>
</svg>
