<?xml version="1.0" encoding="UTF-8"?>
<!DOCTYPE svg PUBLIC "-//W3C//DTD SVG 1.1//EN" "http://www.w3.org/Graphics/SVG/1.1/DTD/svg11.dtd">
<!-- Creator: CorelDRAW -->
<svg xmlns="http://www.w3.org/2000/svg" xml:space="preserve" width="6.82666in" height="6.82666in" style="shape-rendering:geometricPrecision; text-rendering:geometricPrecision; image-rendering:optimizeQuality; fill-rule:evenodd; clip-rule:evenodd"
viewBox="0 0 6.82666 6.82666"
 xmlns:xlink="http://www.w3.org/1999/xlink">
 <defs>
  <style type="text/css">
   <![CDATA[
    .fil0 {fill:#C0CA33}
    .fil2 {fill:#FFFFFE}
    .fil1 {fill:#FFFFFE;fill-rule:nonzero}
   ]]>
  </style>
 </defs>
 <g id="Layer_x0020_1">
  <metadata id="CorelCorpID_0Corel-Layer"/>
  <rect class="fil0" width="6.82666" height="6.82666" rx="0.853335" ry="0.853335"/>
  <g id="_460866416">
   <polygon id="_460865840" class="fil1" points="4.86534,5.03541 4.86534,5.30932 4.9979,5.30932 4.9979,5.44 4.60211,5.44 4.60211,5.30932 4.73467,5.30932 4.73467,5.03541 "/>
   <path id="_460865792" class="fil2" d="M3.78272 3.73496l2.03457 0c0.0271614,0 0.0493819,0.0249921 0.0493819,0.0555l0 1.25078c0,0.0305079 -0.0222402,0.0555039 -0.0493819,0.0555039l-2.03457 0c-0.0271417,0 -0.0493819,-0.0249764 -0.0493819,-0.0555039l0 -1.25078c0,-0.0305236 0.0222205,-0.0555 0.0493819,-0.0555z"/>
  </g>
  <polygon class="fil1" points="4.85333,2.88 4.85333,3.73496 4.74667,3.73496 4.74667,2.88 "/>
  <polygon class="fil1" points="2.82503,1.80122 3.84,1.80122 3.84,1.90789 2.82503,1.90789 "/>
  <g id="_460881392">
   <polygon id="_460881824" class="fil1" points="4.86534,2.47378 4.86534,2.74769 4.9979,2.74769 4.9979,2.87836 4.60211,2.87836 4.60211,2.74769 4.73467,2.74769 4.73467,2.47378 "/>
   <path id="_460881440" class="fil2" d="M3.78272 1.17333l2.03457 0c0.0271614,0 0.0493819,0.0249921 0.0493819,0.0555l0 1.25078c0,0.0305079 -0.0222402,0.0555039 -0.0493819,0.0555039l-2.03457 0c-0.0271417,0 -0.0493819,-0.0249764 -0.0493819,-0.0555039l0 -1.25078c0,-0.0305236 0.0222205,-0.0555 0.0493819,-0.0555z"/>
  </g>
  <g id="_460881272">
   <polygon id="_460881680" class="fil1" points="1.98534,2.47378 1.98534,2.74769 2.1179,2.74769 2.1179,2.87836 1.72211,2.87836 1.72211,2.74769 1.85467,2.74769 1.85467,2.47378 "/>
   <path id="_460881320" class="fil2" d="M0.902717 1.17333l2.03457 0c0.0271614,0 0.0493819,0.0249921 0.0493819,0.0555l0 1.25078c0,0.0305079 -0.0222402,0.0555039 -0.0493819,0.0555039l-2.03457 0c-0.0271417,0 -0.0493819,-0.0249764 -0.0493819,-0.0555039l0 -1.25078c0,-0.0305236 0.0222205,-0.0555 0.0493819,-0.0555z"/>
  </g>
  <path class="fil2" d="M0.853335 3.09664l2.48495 0 0 0.743358 -2.48495 0 0 -0.743358zm0.332228 0.282638c0.0491811,0 0.0890472,0.0398661 0.0890472,0.0890433 0,0.0491772 -0.0398661,0.0890433 -0.0890472,0.0890433 -0.0491772,0 -0.0890433,-0.0398661 -0.0890433,-0.0890433 0,-0.0491772 0.0398661,-0.0890433 0.0890433,-0.0890433zm0.760272 0c0.0491772,0 0.0890433,0.0398661 0.0890433,0.0890433 0,0.0491772 -0.0398661,0.0890433 -0.0890433,0.0890433 -0.0491772,0 -0.0890472,-0.0398661 -0.0890472,-0.0890433 0,-0.0491772 0.0398701,-0.0890433 0.0890472,-0.0890433zm-0.380134 0c0.0491772,0 0.0890433,0.0398661 0.0890433,0.0890433 0,0.0491772 -0.0398661,0.0890433 -0.0890433,0.0890433 -0.0491811,0 -0.0890472,-0.0398661 -0.0890472,-0.0890433 0,-0.0491772 0.0398661,-0.0890433 0.0890472,-0.0890433z"/>
  <path class="fil2" d="M0.853335 4.05664l2.48495 0 0 0.743358 -2.48495 0 0 -0.743358zm0.332228 0.282638c0.0491811,0 0.0890472,0.0398661 0.0890472,0.0890433 0,0.0491772 -0.0398661,0.0890433 -0.0890472,0.0890433 -0.0491772,0 -0.0890433,-0.0398661 -0.0890433,-0.0890433 0,-0.0491772 0.0398661,-0.0890433 0.0890433,-0.0890433zm0.760272 0c0.0491772,0 0.0890433,0.0398661 0.0890433,0.0890433 0,0.0491772 -0.0398661,0.0890433 -0.0890433,0.0890433 -0.0491772,0 -0.0890472,-0.0398661 -0.0890472,-0.0890433 0,-0.0491772 0.0398701,-0.0890433 0.0890472,-0.0890433zm-0.380134 0c0.0491772,0 0.0890433,0.0398661 0.0890433,0.0890433 0,0.0491772 -0.0398661,0.0890433 -0.0890433,0.0890433 -0.0491811,0 -0.0890472,-0.0398661 -0.0890472,-0.0890433 0,-0.0491772 0.0398661,-0.0890433 0.0890472,-0.0890433z"/>
  <path class="fil2" d="M0.853335 5.01664l2.48495 0 0 0.743358 -2.48495 0 0 -0.743358zm0.332228 0.282638c0.0491811,0 0.0890472,0.0398661 0.0890472,0.0890433 0,0.0491772 -0.0398661,0.0890433 -0.0890472,0.0890433 -0.0491772,0 -0.0890433,-0.0398661 -0.0890433,-0.0890433 0,-0.0491772 0.0398661,-0.0890433 0.0890433,-0.0890433zm0.760272 0c0.0491772,0 0.0890433,0.0398661 0.0890433,0.0890433 0,0.0491772 -0.0398661,0.0890433 -0.0890433,0.0890433 -0.0491772,0 -0.0890472,-0.0398661 -0.0890472,-0.0890433 0,-0.0491772 0.0398701,-0.0890433 0.0890472,-0.0890433zm-0.380134 0c0.0491772,0 0.0890433,0.0398661 0.0890433,0.0890433 0,0.0491772 -0.0398661,0.0890433 -0.0890433,0.0890433 -0.0491811,0 -0.0890472,-0.0398661 -0.0890472,-0.0890433 0,-0.0491772 0.0398661,-0.0890433 0.0890472,-0.0890433z"/>
 </g>
</svg>
