<?xml version="1.0" encoding="UTF-8"?>
<!DOCTYPE svg PUBLIC "-//W3C//DTD SVG 1.1//EN" "http://www.w3.org/Graphics/SVG/1.1/DTD/svg11.dtd">
<!-- Creator: CorelDRAW -->
<svg xmlns="http://www.w3.org/2000/svg" xml:space="preserve" width="6.82666in" height="6.82666in" style="shape-rendering:geometricPrecision; text-rendering:geometricPrecision; image-rendering:optimizeQuality; fill-rule:evenodd; clip-rule:evenodd"
viewBox="0 0 6.82666 6.82666"
 xmlns:xlink="http://www.w3.org/1999/xlink">
 <defs>
  <style type="text/css">
   <![CDATA[
    .fil0 {fill:#C0CA33}
    .fil1 {fill:#FFFFFE}
   ]]>
  </style>
 </defs>
 <g id="Layer_x0020_1">
  <metadata id="CorelCorpID_0Corel-Layer"/>
  <rect class="fil0" width="6.82666" height="6.82666" rx="0.853335" ry="0.853335"/>
  <g id="_461087520">
   <path id="_461087496" class="fil1" d="M1.56423 1.06169l0.812598 0 0 0.280346c0,0.0497913 0.0252323,0.0952402 0.0659094,0.128378l-0.000224409 0.000181102c0.0405315,0.0329331 0.0965276,0.0533701 0.158224,0.0533701l1.62519 0c0.0613937,0 0.117248,-0.0204488 0.157772,-0.0533701l0.000452756 0c0.0405315,-0.0329291 0.065685,-0.078437 0.065685,-0.128559l0 -0.280346 0.812591 0 0 4.91165 -3.69819 0 0 -4.91165zm0.346713 0.751189l0.924547 0 0 0.231142 -0.924547 0 0 -0.231142zm2.08023 0l0.924547 0 0 0.231142 -0.924547 0 0 -0.231142zm-1.84265 1.91143c-0.0316614,0.0550984 -0.0126654,0.125437 0.0424331,0.157098 0.0550984,0.0316654 0.125437,0.0126654 0.157102,-0.0424331l0.311583 -0.539673 0.324417 0.324417 -7.87402e-006 7.87402e-006c0.045126,0.0451299 0.118307,0.0451299 0.163437,0 0.0100551,-0.0100551 0.0178622,-0.0215039 0.023437,-0.0337205l0.433835 -0.751429 0.481358 0.833736 0.0997638 -0.0573346 -0.100087 0.0577874c0.0319134,0.0552717 0.102602,0.0742087 0.157874,0.0422992 0.00981102,-0.00566535 0.0184685,-0.0125512 0.0259094,-0.0203583l0.390488 -0.390488c0.045126,-0.045126 0.045126,-0.118295 0,-0.163421 -0.045122,-0.045126 -0.118295,-0.045126 -0.163421,0l-0.286343 0.286343 -0.500469 -0.866843c-0.0096378,-0.0210787 -0.025689,-0.0394685 -0.0472874,-0.0519409 -0.0552756,-0.0319094 -0.125965,-0.0129724 -0.157874,0.0423031l0.100087 0.0577835 -0.0997677 -0.0573346 -0.463642 0.803055 -0.322437 -0.322433c-0.00743701,-0.00780315 -0.0160984,-0.0146929 -0.0259055,-0.0203583 -0.0552756,-0.0319094 -0.125965,-0.0129724 -0.157874,0.0423031l0.100087 0.0577835 -0.0997677 -0.0573346 -0.386929 0.670185zm-0.12202 0.631067l2.77365 0 0 0.231142 -2.77365 0 0 -0.231142zm0 0.924559l2.77365 0 0 0.231142 -2.77365 0 0 -0.231142zm0 -0.46228l2.77365 0 0 0.231142 -2.77365 0 0 -0.231142z"/>
   <path id="_461087280" class="fil1" d="M2.49077 0.883953c-0.0110906,0.0105236 -0.0247717,0.0275315 -0.0247717,0.0446772l0 0.439465c0,0.0175472 0.0124055,0.0335748 0.0240039,0.0439961l0.00579528 0.00520866c0.0233858,0.0179961 0.0535787,0.0260906 0.0816535,0.0260906l1.67177 0c0.0305079,0 0.0633583,-0.0097126 0.0873425,-0.0312047l0.00602362 -0.00539764c0.00970866,-0.0102244 0.0180866,-0.023748 0.0180866,-0.0386929l0 -0.439465c0,-0.0149961 -0.00842126,-0.0285394 -0.0181614,-0.0387756l-0.00560236 -0.00501181c-0.0241457,-0.0215787 -0.0569724,-0.0315079 -0.087689,-0.0315079l-1.67177 0c-0.0302362,0 -0.0627323,0.00957087 -0.0866811,0.0306181z"/>
  </g>
 </g>
</svg>
