<?xml version="1.0" encoding="UTF-8"?>
<!DOCTYPE svg PUBLIC "-//W3C//DTD SVG 1.1//EN" "http://www.w3.org/Graphics/SVG/1.1/DTD/svg11.dtd">
<!-- Creator: CorelDRAW -->
<svg xmlns="http://www.w3.org/2000/svg" xml:space="preserve" width="6.82666in" height="6.82666in" style="shape-rendering:geometricPrecision; text-rendering:geometricPrecision; image-rendering:optimizeQuality; fill-rule:evenodd; clip-rule:evenodd"
viewBox="0 0 6.82666 6.82666"
 xmlns:xlink="http://www.w3.org/1999/xlink">
 <defs>
  <style type="text/css">
   <![CDATA[
    .fil0 {fill:#3F51B5}
    .fil1 {fill:#FFFFFE}
    .fil2 {fill:#FFFFFE;fill-rule:nonzero}
   ]]>
  </style>
 </defs>
 <g id="Layer_x0020_1">
  <metadata id="CorelCorpID_0Corel-Layer"/>
  <rect class="fil0" width="6.82666" height="6.82666" rx="0.853335" ry="0.853335"/>
  <g id="_461097360">
   <path id="_461097504" class="fil1" d="M0.971843 1.5779l4.88297 0c0.065189,0 0.118516,0.053374 0.118516,0.11852l0 2.67065c0,0.0651457 -0.0533661,0.11852 -0.118516,0.11852l-4.88297 0c-0.0651457,0 -0.118512,-0.0533346 -0.118512,-0.11852l0 -2.67065c0,-0.065185 0.0533268,-0.11852 0.118512,-0.11852zm3.44376 0.496047c0.184122,0 0.333382,0.14926 0.333382,0.333382 0,0.184118 -0.14926,0.333378 -0.333382,0.333378 -0.0164606,0 -0.0326378,-0.0012126 -0.0484606,-0.00351575l-0.441335 0.764417c0.0242165,0.0462008 0.037937,0.0987717 0.037937,0.154555 0,0.184118 -0.149256,0.333378 -0.333378,0.333378 -0.177232,0 -0.322134,-0.138311 -0.332728,-0.312874l-0.651067 -0.174453c-0.0603071,0.0602047 -0.143567,0.0974331 -0.23552,0.0974331 -0.184122,0 -0.333382,-0.149256 -0.333382,-0.333378 0,-0.184118 0.14926,-0.333378 0.333382,-0.333378 0.184118,0 0.333378,0.14926 0.333378,0.333378 0,0.0106614 -0.000523622,0.0212008 -0.0015,0.0316063l0.615783 0.164996c0.0604449,-0.0847913 0.159591,-0.140091 0.271654,-0.140091 0.0453661,0 0.0886181,0.0090748 0.128035,0.0254921l0.412531 -0.714531c-0.0550512,-0.0594488 -0.0887087,-0.138996 -0.0887087,-0.226413 0,-0.184122 0.14926,-0.333382 0.333378,-0.333382z"/>
   <polygon id="_461097888" class="fil2" points="2.97086,5.1328 3.30203,5.1328 3.30203,4.48559 3.52464,4.48559 3.52464,5.1328 3.8558,5.1328 3.8558,5.35542 2.97086,5.35542 "/>
  </g>
 </g>
</svg>
