<?xml version="1.0" encoding="UTF-8"?>
<!DOCTYPE svg PUBLIC "-//W3C//DTD SVG 1.1//EN" "http://www.w3.org/Graphics/SVG/1.1/DTD/svg11.dtd">
<!-- Creator: CorelDRAW -->
<svg xmlns="http://www.w3.org/2000/svg" xml:space="preserve" width="6.82666in" height="6.82666in" style="shape-rendering:geometricPrecision; text-rendering:geometricPrecision; image-rendering:optimizeQuality; fill-rule:evenodd; clip-rule:evenodd"
viewBox="0 0 6.82666 6.82666"
 xmlns:xlink="http://www.w3.org/1999/xlink">
 <defs>
  <style type="text/css">
   <![CDATA[
    .fil0 {fill:#7E57C2}
    .fil1 {fill:#FFFFFE}
    .fil2 {fill:#FFFFFE;fill-rule:nonzero}
   ]]>
  </style>
 </defs>
 <g id="Layer_x0020_1">
  <metadata id="CorelCorpID_0Corel-Layer"/>
  <rect class="fil0" width="6.82666" height="6.82666" rx="0.853335" ry="0.853335"/>
  <path class="fil1" d="M2.01029 1.53375c0.124528,0 0.244169,0.0197362 0.355681,0.056 0.135232,-0.426004 0.552937,-0.736421 1.04736,-0.736421 0.494421,0 0.91213,0.310417 1.04736,0.736425 0.111516,-0.0362677 0.231157,-0.0560039 0.355685,-0.0560039 0.603909,0 1.09347,0.463059 1.09347,1.03428 0,0.57122 -0.489559,1.03428 -1.09347,1.03428 -1.072,0 -1.73409,0 -2.80609,0 -0.603913,0 -1.09347,-0.463059 -1.09347,-1.03428 0,-0.571217 0.489559,-1.03428 1.09347,-1.03428zm0.317602 1.3819l1.74864 0 0 0.217094 -1.74864 0 0 -0.217094zm0 -0.434165l1.94835 0 0 0.217094 -1.94835 0 0 -0.217094zm0 -0.434169l2.17089 0 0 0.217094 -2.17089 0 0 -0.217094z"/>
  <polygon class="fil2" points="2.74692,4.47669 3.34382,3.85628 3.41333,3.78403 3.48284,3.85628 4.07974,4.47669 3.54003,4.47669 3.54003,5.97333 3.28663,5.97333 3.28663,4.47669 "/>
 </g>
</svg>
