<?xml version="1.0" encoding="UTF-8"?>
<!DOCTYPE svg PUBLIC "-//W3C//DTD SVG 1.1//EN" "http://www.w3.org/Graphics/SVG/1.1/DTD/svg11.dtd">
<!-- Creator: CorelDRAW -->
<svg xmlns="http://www.w3.org/2000/svg" xml:space="preserve" width="6.82666in" height="6.82666in" style="shape-rendering:geometricPrecision; text-rendering:geometricPrecision; image-rendering:optimizeQuality; fill-rule:evenodd; clip-rule:evenodd"
viewBox="0 0 6.82666 6.82666"
 xmlns:xlink="http://www.w3.org/1999/xlink">
 <defs>
  <style type="text/css">
   <![CDATA[
    .fil0 {fill:#66BB6A}
    .fil1 {fill:#FFFFFE}
   ]]>
  </style>
 </defs>
 <g id="Layer_x0020_1">
  <metadata id="CorelCorpID_0Corel-Layer"/>
  <rect class="fil0" width="6.82666" height="6.82666" rx="0.853335" ry="0.853335"/>
  <path class="fil1" d="M1.97461 2.63215c0.127697,0 0.250386,0.0222087 0.364732,0.0630276 0.138665,-0.479476 0.566992,-0.828846 1.07399,-0.828846 0.506996,0 0.935323,0.34937 1.07399,0.82885 0.114354,-0.0408189 0.237039,-0.0630315 0.36474,-0.0630315 0.61926,0 1.12127,0.521177 1.12127,1.16409 0,0.642913 -0.502012,1.16409 -1.12127,1.16409 -1.09926,0 -1.7782,0 -2.87745,0 -0.619264,0 -1.12128,-0.521181 -1.12128,-1.16409 0,-0.642909 0.502012,-1.16409 1.12128,-1.16409zm0.620335 1.18172l0.454705 0.454705 1.18207 -1.18207 0.157394 0.157394 -1.26077 1.26077 -0.0786969 0.0786969 -0.0786969 -0.0786969 -0.533402 -0.533402 0.157394 -0.157394z"/>
 </g>
</svg>
