<svg xmlns="http://www.w3.org/2000/svg" viewBox="0 0 24 24"><title>43.Sharing</title><g id="_43.Sharing" data-name="43.Sharing"><path d="M11,19H7A7,7,0,0,1,5.276,5.223,6,6,0,0,1,17,7a1.875,1.875,0,0,1-.021.261l-2-.089L15,6.979A4,4,0,0,0,7.076,6.26l-.131.7-.7.106A5,5,0,0,0,7,17h4Z"/><path d="M15,18a3,3,0,1,1,3-3A3,3,0,0,1,15,18Zm0-4a1,1,0,1,0,1,1A1,1,0,0,0,15,14Z"/><path d="M20,13a3,3,0,1,1,3-3A3,3,0,0,1,20,13Zm0-4a1,1,0,1,0,1,1A1,1,0,0,0,20,9Z"/><path d="M20,23a3,3,0,1,1,3-3A3,3,0,0,1,20,23Zm0-4a1,1,0,1,0,1,1A1,1,0,0,0,20,19Z"/><rect x="15.379" y="11.5" width="4.243" height="2" transform="translate(-3.713 16.036) rotate(-45)"/><rect x="16.5" y="15.379" width="2" height="4.243" transform="translate(-7.249 17.5) rotate(-45)"/></g></svg>