<svg xmlns="http://www.w3.org/2000/svg" viewBox="0 0 32 32"><title>heart beat</title><g id="heart_beat" data-name="heart beat"><path d="M29.26,12.19a8,8,0,0,1-2.36,5.69l-8.41,8.41a7.92,7.92,0,0,1-1.95,1.42l-.05,0,0,0-.12,0-.08,0a1.07,1.07,0,0,1-.25,0h0a1.07,1.07,0,0,1-.25,0l-.08,0-.12,0-.05,0,0,0a7.92,7.92,0,0,1-2-1.42L8.29,21.07a1,1,0,0,1,1.42-1.42l5.22,5.22A5.3,5.3,0,0,0,16,25.7a5.3,5.3,0,0,0,1.07-.83l8.41-8.41a6,6,0,1,0-8.55-8.55l-.22.22a1,1,0,0,1-1,.24l-.14,0-.14-.1a1.22,1.22,0,0,1-.19-.12l-.22-.22A6.05,6.05,0,0,0,4.74,12a1,1,0,0,1-1,1h0a1,1,0,0,1-1-1A8,8,0,0,1,16,6.05a8,8,0,0,1,13.26,6.14ZM8.65,17.61,10.75,13l1.65,6.27a1,1,0,0,0,.92.75h0a1,1,0,0,0,.93-.65l1.95-5.17.92,1.37A1,1,0,0,0,18,16h3a1,1,0,0,0,0-2H18.54l-1.71-2.55a1,1,0,0,0-.94-.44,1,1,0,0,0-.83.64l-1.52,4.06L12,9.75A1,1,0,0,0,11.08,9a1,1,0,0,0-1,.59L7.86,14.5A1,1,0,0,0,7,14H3a1,1,0,0,0,0,2H6.28l.51,1.52a1,1,0,0,0,.9.68A1,1,0,0,0,8.65,17.61Z"/></g></svg>