<svg id="Layer_1" data-name="Layer 1" xmlns="http://www.w3.org/2000/svg" viewBox="0 0 128 128"><title>HEART BEAT</title><path d="M113.854,64.046H102.2l.484-.483A21.724,21.724,0,0,0,71.961,32.841L64,40.8l-7.961-7.961A21.724,21.724,0,1,0,25.316,63.563l.484.483H14.146a1.75,1.75,0,0,0,0,3.5H29.3l33.463,33.463a1.748,1.748,0,0,0,2.474,0L98.7,67.546h15.154a1.75,1.75,0,0,0,0-3.5ZM27.791,61.088A18.224,18.224,0,0,1,53.564,35.315l9.2,9.2a1.8,1.8,0,0,0,2.474,0l9.2-9.2a18.224,18.224,0,0,1,25.773,25.773l-2.958,2.958H77.833a1.751,1.751,0,0,0-1.552.942l-2.7,5.188L68.761,57.533a1.751,1.751,0,0,0-1.636-1.127h-.009a1.751,1.751,0,0,0-1.633,1.142l-5.31,14.357L54.956,51.527a1.75,1.75,0,0,0-3.328-.2l-4.9,12.714H30.749ZM64,97.3,34.249,67.546H47.93a1.748,1.748,0,0,0,1.632-1.12L52.924,57.7l5.249,20.5a1.75,1.75,0,0,0,1.6,1.313c.031,0,.062,0,.092,0a1.75,1.75,0,0,0,1.641-1.142l5.639-15.245,4.544,11.929a1.753,1.753,0,0,0,1.535,1.124,1.729,1.729,0,0,0,1.653-.939l4.014-7.7H93.751Z"/></svg>