<svg id="Layer_1" data-name="Layer 1" xmlns="http://www.w3.org/2000/svg" viewBox="0 0 128 128"><title>HEART</title><path d="M92.75,4.75C75.5,4.75,67.2,14.9,64,20.306,60.8,14.9,52.5,4.75,35.25,4.75,12.738,4.75,4.75,24.278,4.75,41c0,32.307,29.3,64.462,58.345,82a1.751,1.751,0,0,0,1.81,0c29.042-17.536,58.345-49.691,58.345-82C123.25,24.278,115.262,4.75,92.75,4.75ZM64,119.451C36.1,102.311,8.25,71.612,8.25,41c0-15.108,7.071-32.75,27-32.75,20.854,0,26.858,15.858,27.1,16.53a1.75,1.75,0,0,0,3.295,0c.06-.166,6.157-16.53,27.1-16.53,19.929,0,27,17.642,27,32.75C119.75,71.612,91.9,102.311,64,119.451Z"/><path d="M105.753,72.813a1.751,1.751,0,0,0-2.409.567A113.792,113.792,0,0,1,86.856,93.854a1.75,1.75,0,0,0,2.472,2.479,117.33,117.33,0,0,0,16.993-21.11A1.751,1.751,0,0,0,105.753,72.813Z"/></svg>